<?xml version="1.0" encoding="utf-8"?>
<!-- Generator: Adobe Illustrator 24.0.3, SVG Export Plug-In . SVG Version: 6.00 Build 0)  -->
<svg version="1.1" id="Layer_1" xmlns="http://www.w3.org/2000/svg" xmlns:xlink="http://www.w3.org/1999/xlink" x="0px" y="0px"
	 viewBox="0 0 542 542" style="enable-background:new 0 0 542 542;" xml:space="preserve">
<style type="text/css">
	.st0{fill:#FFF6E6;}
	.st1{fill:#8B8B8B;}
</style>
<circle class="st0" cx="271" cy="271" r="271"/>
<path class="st1" d="M159.5,69.6l9.8-8.8c3.9-2.7,9.3-1.8,12,2.1c2.9,3.6,3.9,8.4,2.7,12.8c-1.4,4.4-4.2,8.1-8,10.7
	c-7.8,5.4-18.3,5-25.7-1c-7.4-6.3-9.7-16.7-5.7-25.5c3.9-8.6,11.8-14.9,21.2-16.7c4.6-1.1,9.3-1.2,13.9-0.4
	c4.4,0.8,8.8,1.9,13.1,3.3c4.6,1.8,8.4,5,11.1,9.1c2.6,4.1,4,8.9,4.2,13.7c0.8,8.8,1.2,17.7,1.1,26.6l-6.5-0.2
	c0.3-8.6,0.2-17.3-0.3-25.9c0.1-3.9-0.9-7.8-2.8-11.2c-2-3.3-5-6-8.5-7.6c-7.7-3.4-16.1-4.5-24.4-3.4c-8.2,1.3-15.3,6.5-19,14
	c-3.7,7.6-2,16.7,4.3,22.4c6.6,5.6,16,6.2,23.2,1.5c3.6-2.3,6.3-5.7,7.7-9.7c1.2-4.1,0.4-8.6-2.2-12c-2.5-3.7-7.4-4.8-11.2-2.3
	L159.5,69.6z"/>
<path class="st1" d="M209.7,96.1l-7.5-0.2v-0.5c0.3-8.6,0.2-17.3-0.3-25.8c0.1-3.9-0.8-7.6-2.7-11c-2-3.2-4.8-5.8-8.3-7.4
	c-7.6-3.3-15.9-4.5-24.2-3.4c-8,1.3-15,6.4-18.6,13.7c-3.6,7.3-1.9,16.3,4.2,21.8c6.4,5.5,15.5,6.1,22.6,1.5
	c3.5-2.2,6.2-5.5,7.5-9.4c1.2-3.9,0.4-8.2-2.1-11.5c-2.3-3.5-7-4.5-10.5-2.2l-10,8.4l-0.7-0.8l9.8-8.8c4.2-2.9,9.9-1.9,12.8,2.2
	c3,3.7,4,8.6,2.8,13.2c-1.4,4.5-4.3,8.4-8.2,11c-8,5.5-18.8,5-26.3-1c-7.5-6.4-9.9-17.1-5.9-26.1c4-8.8,12-15.1,21.5-17
	c4.6-1.1,9.4-1.2,14.1-0.4c4.5,0.8,8.9,1.9,13.2,3.3c4.7,1.9,8.6,5.1,11.4,9.3c2.7,4.2,4.1,9,4.2,14c0.8,8.8,1.2,17.7,1.1,26.6
	L209.7,96.1z M203.2,94.9l5.5,0.1c0.1-8.7-0.3-17.4-1.1-26c-0.1-4.8-1.5-9.5-4.1-13.5c-2.7-4-6.4-7.1-10.9-8.9
	c-4.2-1.4-8.6-2.5-13-3.3c-4.6-0.8-9.2-0.6-13.7,0.4c-9.2,1.8-16.9,7.9-20.8,16.4c-3.9,8.6-1.6,18.8,5.6,24.9
	c7.2,5.8,17.5,6.2,25.1,1c3.7-2.5,6.5-6.2,7.8-10.4c0.6-2.2,0.6-4.5,0.1-6.7c0.4,2.2,0.4,4.5-0.3,6.7c-1.5,4.1-4.3,7.6-8,9.9
	c-7.5,4.8-17,4.2-23.8-1.6c-6.4-5.8-8.2-15.2-4.4-23c3.8-7.6,11-12.9,19.4-14.3c8.4-1.1,16.9,0.1,24.7,3.5c3.6,1.7,6.7,4.4,8.7,7.8
	c2,3.5,2.9,7.5,2.8,11.5C203.4,77.9,203.5,86.5,203.2,94.9z"/>
<path class="st1" d="M254.1,81.7l4.6,7.5c1.3,2.7,3.5,4.7,6.3,5.6c5.9,1.9,11-2.9,14.1-7.5c3.2-4.8,4.4-10.7,3.5-16.4
	c-0.6-2.7-2.1-5.1-4.4-6.7c-2.5-1.4-5.1-2.4-7.9-2.9c-2.8-0.7-5.7-1.5-8.5-1.9c-2.7,0-5.4,0.3-8.1,0.9c-5.4,2.2-10.6,4.8-15.6,7.8
	c-9.5,6.4-17.8,15-26.7,22.5l0.4-0.4l-36.6,58.7l-5.5-3.5l38.4-57.5l0.2-0.3l0.2-0.1c9.4-7.3,17.8-15.6,28-22.1
	c5.2-2.9,10.7-5.4,16.3-7.5c3.1-0.7,6.3-0.9,9.4-0.7c3,0.6,5.8,1.4,8.7,2.2c3,0.6,5.9,1.8,8.5,3.4c2.5,1.9,4.3,4.8,4.8,7.9
	c0.8,6.1-0.7,12.2-4.3,17.3c-3.2,4.7-8.9,9.6-15.1,7.4c-2.9-1-5.2-3.2-6.4-5.9L254.1,81.7z"/>
<path class="st1" d="M175.5,149.5l-6.3-4.1l39.1-58.3l0.2-0.1c3.3-2.6,6.5-5.3,9.7-8c5.8-4.9,11.8-9.9,18.4-14.1
	c5.3-2.9,10.8-5.5,16.4-7.5c3.2-0.7,6.4-0.9,9.6-0.8c3,0.6,5.6,1.3,8.8,2.3c3,0.7,5.9,1.8,8.6,3.5c2.7,2.1,4.5,5,5.1,8.3
	c0.8,6.2-0.7,12.5-4.3,17.6c-1.7,2.5-7.9,10.4-15.7,7.6c-3-1.1-5.4-3.3-6.7-6.2l-4.4-7.6l0.9-0.5l4.6,7.5c1.2,2.6,3.4,4.5,6.1,5.3
	c6.5,2.1,11.6-4.4,13.5-7.3c3.1-4.7,4.3-10.4,3.5-16c-0.5-2.6-2-4.8-4.2-6.4c-2.4-1.3-5-2.3-7.7-2.8c-2.5-0.6-5.6-1.4-8.5-1.9
	c-2.6,0-5.3,0.3-7.9,0.9c-5.3,2.2-10.5,4.8-15.4,7.7c-6.1,4.1-11.8,9.3-17.3,14.3c-2.9,2.6-6,5.4-9.1,7.9L175.5,149.5z M170.5,145.1
	l4.6,3l36.1-57.8l-0.1-0.1l0.4-0.4l0.1,0.1c3-2.5,6-5.2,8.9-7.8c5.6-5,11.3-10.2,17.5-14.4c5-3,10.3-5.6,15.6-7.8
	c2.8-0.6,5.5-0.9,8.3-0.9c3,0.5,6.1,1.3,8.6,1.9c2.8,0.5,5.5,1.5,8,2.9c2.4,1.7,4,4.2,4.6,7c0.9,5.9-0.4,11.8-3.6,16.7
	c-0.6,0.9-1.4,2-2.5,3.2c1.2-1.2,2.1-2.4,2.6-3.2c3.5-4.9,4.9-10.9,4.2-16.9c-0.5-3-2.2-5.7-4.6-7.6c-2.5-1.6-5.3-2.7-8.3-3.3
	c-3.2-0.9-5.8-1.7-8.7-2.2c-3-0.2-6.2,0.1-9.2,0.7c-5.5,2-10.9,4.6-16.1,7.4c-6.6,4.1-12.5,9.2-18.3,14c-3.1,2.7-6.4,5.4-9.7,8
	l-0.1,0.1l-0.2,0.2L170.5,145.1z"/>
<ellipse transform="matrix(0.1514 -0.9885 0.9885 0.1514 -332.5666 546.8553)" class="st0" cx="152.2" cy="467.1" rx="28.8" ry="33.2"/>
<path class="st1" d="M153.6,496.5c-1.9,0-3.9-0.1-5.9-0.5c-8.9-1.4-16.8-5.6-22.3-12.1c-5.5-6.4-7.8-14.2-6.7-22l0.5,0.1l-0.5-0.1
	c1.2-7.7,5.8-14.5,12.9-19c7.1-4.5,15.9-6.2,24.8-4.8c8.9,1.4,16.8,5.6,22.3,12.1c5.5,6.4,7.8,14.2,6.7,22
	C183.3,486.5,169.6,496.5,153.6,496.5z M150.6,438.8c-6.6,0-13,1.8-18.4,5.1c-6.9,4.3-11.3,10.8-12.5,18.3l0,0
	c-1.1,7.4,1.1,15,6.4,21.2s13,10.4,21.6,11.7c17.8,2.7,34.3-7.6,36.6-23c1.1-7.4-1.1-15-6.4-21.2c-5.3-6.2-13-10.4-21.6-11.7
	C154.5,438.9,152.6,438.8,150.6,438.8z"/>
<path class="st1" d="M153.6,499.3c-2.1,0-4.2-0.2-6.3-0.5c-19.9-3.1-33.9-19.7-31.2-37.2c2.7-17.4,21-29.1,40.9-26.1
	s33.9,19.7,31.2,37.2l0,0C184.8,488.9,170.1,500.2,153.6,499.3z M150.7,441.6c-13.3-0.9-25.2,8.1-28.2,21.1
	c-2.1,13.9,9.4,27.2,25.8,29.7s31.3-6.8,33.5-20.7l0,0c2.1-13.9-9.4-27.2-25.8-29.7C154.2,441.7,152.5,441.6,150.7,441.6
	L150.7,441.6z"/>
<path class="st1" d="M155.4,499.8c-0.6,0-1.2,0-1.8,0c-2.1,0-4.3-0.2-6.3-0.5c-20.2-3.1-34.4-20-31.6-37.7
	c2.7-17.7,21.3-29.6,41.5-26.5c10.5,1.6,19.9,7.1,25.7,15.1c5,6.8,7.1,14.8,5.9,22.7C185.3,488.7,171.5,499.8,155.4,499.8z
	 M150.8,435.5c-17.1,0-31.9,10.8-34.2,26.2c-2.6,17.2,11.2,33.6,30.8,36.6c2.1,0.3,4.1,0.5,6.2,0.5l0,0
	c16.4,0.8,30.7-10.2,34.1-26.2c1.2-7.6-0.9-15.3-5.7-21.9c-5.7-7.8-14.9-13.1-25.1-14.7C154.9,435.7,152.8,435.5,150.8,435.5z
	 M153.7,493.3c-1.8,0-3.6-0.1-5.4-0.4c-8-1.2-15.2-5.1-20.1-10.8c-5-5.7-7.1-12.7-6.1-19.5c3-13.3,15.1-22.4,28.7-21.5h0.3
	c1.7,0,3.4,0.1,5,0.4c16.6,2.5,28.4,16.1,26.2,30.3c-1.1,6.9-5.2,12.8-11.6,16.8C165.7,491.7,159.8,493.3,153.7,493.3z M148.9,442
	c-12.4,0-23.1,8.5-25.9,20.7c-1,6.5,1.1,13.2,5.8,18.7c4.8,5.5,11.7,9.2,19.5,10.4c7.8,1.2,15.5-0.3,21.7-4.1
	c6.2-3.8,10.2-9.6,11.2-16.1c2.1-13.6-9.3-26.7-25.4-29.2c-1.7-0.3-3.5-0.4-5.2-0.4h-0.5l0,0C149.8,442,149.3,442,148.9,442z"/>
<ellipse transform="matrix(0.9222 -0.3868 0.3868 0.9222 -150.6654 107.302)" class="st0" cx="191.3" cy="428" rx="33.2" ry="28.8"/>
<path class="st1" d="M188,458c-12.2,0-23.3-6.2-27.8-16.9c-6.2-14.9,2.6-32.8,19.8-40l0,0c17.2-7.2,36.2-0.9,42.4,13.9
	c6.2,14.9-2.6,32.8-19.8,40C197.8,457,192.8,458,188,458z M180.4,402c-16.6,7-25.3,24.3-19.3,38.7c6,14.4,24.5,20.4,41.1,13.4
	s25.3-24.3,19.3-38.7C215.4,401,197,395,180.4,402L180.4,402z"/>
<path class="st1" d="M188,460.7c-13,0.5-24.9-6.8-30.4-18.6c-3.3-8.2-2.9-17.4,1.2-25.2c4.3-8.3,11.4-14.9,20.1-18.4
	c18.6-7.8,39.2-0.9,46,15.4l0,0c6.8,16.3-2.7,35.9-21.3,43.6C198.7,459.6,193.4,460.7,188,460.7z M194.6,401.8
	c-4.5,0-9,0.9-13.2,2.7c-7.2,2.9-13.2,8.4-16.8,15.3c-3.3,6.1-3.6,13.4-1,19.8c5.4,13,22.3,18.3,37.5,11.9s23.2-22.1,17.8-35.1l0,0
	C214.5,407.1,204.9,401.3,194.6,401.8z"/>
<path class="st1" d="M186.7,461.3c-12.7,0-24.2-7.3-29.5-18.9c-3.4-8.4-3-17.7,1.2-25.7c4.3-8.4,11.5-15.1,20.3-18.6
	c18.8-7.9,39.7-0.9,46.7,15.7c3.4,8,3,17-1.1,25.4s-11.3,15.1-20.4,18.9c-5,2.1-10.4,3.2-15.9,3.2
	C187.6,461.3,187.2,461.3,186.7,461.3z M194.6,395.8c-5.1,0-10.4,1-15.5,3.2c-8.6,3.5-15.6,9.9-19.8,18.2c-4,7.7-4.5,16.8-1.2,24.8
	c5.4,11.6,17.1,18.8,29.9,18.3l0,0c5.3,0,10.6-1.1,15.5-3.2c8.9-3.7,15.9-10.2,19.9-18.4c4-8.1,4.4-16.9,1.1-24.6
	C219.6,402.6,207.7,395.8,194.6,395.8z M188,454.8c-4,0-7.9-0.7-11.5-2.2c-6.2-2.5-10.9-7-13.2-12.7c-2.7-6.6-2.3-14,1.1-20.3
	c3.6-7,9.7-12.6,17-15.5c4.2-1.8,8.7-2.7,13.3-2.7c10.5-0.5,20.3,5.4,24.8,14.9c5.5,13.2-2.6,29.3-18,35.8
	C197,453.8,192.4,454.8,188,454.8z M195.8,402.3c-0.4,0-0.8,0-1.2,0l0,0c-4.5,0-8.8,0.9-13,2.7c-7.1,2.9-13,8.2-16.5,15.1
	c-3.2,6-3.6,13.1-1,19.4c2.3,5.4,6.8,9.8,12.7,12.2c7.4,3,16.2,2.8,24.2-0.5c15-6.3,22.8-21.8,17.5-34.5
	C214.3,407.8,205.5,402.3,195.8,402.3z"/>
<ellipse transform="matrix(0.9222 -0.3868 0.3868 0.9222 -131.4806 98.2058)" class="st0" cx="178.3" cy="375.8" rx="33.2" ry="28.8"/>
<path class="st1" d="M175,405.8c-12.2,0-23.3-6.2-27.8-16.9c-3-7.2-2.6-15.4,1.1-22.9c3.7-7.5,10.4-13.6,18.7-17.1l0,0
	c17.1-7.2,36.2-0.9,42.4,13.9c3,7.2,2.6,15.4-1.1,22.9c-3.7,7.5-10.4,13.6-18.7,17.1C184.7,404.8,179.8,405.8,175,405.8z
	 M181.6,346.9c-4.7,0-9.5,0.9-14.2,2.9c-8.1,3.4-14.5,9.3-18.2,16.6c-3.6,7.3-4,15.2-1.1,22.1c6,14.4,24.5,20.4,41.1,13.4
	c8.1-3.4,14.5-9.3,18.2-16.6c3.6-7.3,4-15.2,1.1-22.1C204.1,352.9,193.4,346.9,181.6,346.9z"/>
<path class="st1" d="M175,408.6c-13,0.5-24.9-6.8-30.4-18.6c-3.3-8.2-2.9-17.4,1.2-25.2c4.3-8.3,11.4-14.9,20.1-18.4
	c18.6-7.8,39.2-0.9,46,15.4l0,0c6.8,16.3-2.7,35.9-21.3,43.6C185.7,407.5,180.4,408.5,175,408.6z M181.6,349.6
	c-4.5,0-9,0.9-13.2,2.7c-7.2,2.9-13.2,8.4-16.8,15.3c-3.3,6.1-3.6,13.4-1,19.8c5.4,13,22.3,18.3,37.5,11.9s23.2-22.1,17.8-35.1l0,0
	C201.5,354.9,191.9,349.1,181.6,349.6L181.6,349.6z"/>
<path class="st1" d="M173.7,409.1c-12.7,0-24.2-7.3-29.5-18.9c-3.4-8.4-3-17.7,1.2-25.7c4.3-8.4,11.5-15.1,20.3-18.6
	c18.8-7.9,39.8-0.8,46.7,15.7c3.4,8,3,17-1.1,25.4s-11.3,15.1-20.4,18.9c-5,2.1-10.4,3.2-15.9,3.2
	C174.5,409.1,174.1,409.1,173.7,409.1z M181.5,343.6c-5.1,0-10.4,1-15.5,3.2c-8.6,3.5-15.6,9.9-19.8,18.2c-4,7.7-4.5,16.8-1.2,24.8
	c5.4,11.6,17.1,18.8,29.9,18.3l0,0c5.3,0,10.6-1.1,15.5-3.2c8.9-3.7,15.9-10.2,19.9-18.4c4-8.1,4.4-16.9,1.1-24.6
	C206.6,350.4,194.7,343.6,181.5,343.6z M174.9,402.6c-3.2,0-6.4-0.5-9.4-1.4c-7.2-2.3-12.7-7.1-15.4-13.5c-2.7-6.6-2.3-14,1.1-20.3
	c3.6-7,9.7-12.6,17-15.5c4.2-1.8,8.7-2.7,13.4-2.7l0,0c10.5-0.5,20.3,5.4,24.8,14.9c5.5,13.2-2.6,29.3-18,35.8
	C184,401.7,179.4,402.6,174.9,402.6z M182.8,350.1c-0.4,0-0.8,0-1.2,0l0,0c-4.5,0-8.9,0.9-13,2.7c-7.1,2.9-13,8.2-16.5,15.1
	c-3.2,6-3.6,13.1-1,19.4c2.6,6.1,7.8,10.7,14.8,12.9c7,2.2,14.8,1.8,22.1-1.3c15-6.3,22.8-21.7,17.5-34.5
	C201.3,355.6,192.5,350.1,182.8,350.1z"/>
<ellipse transform="matrix(0.995 -9.996144e-02 9.996144e-02 0.995 -31.3749 19.4299)" class="st0" cx="178.2" cy="322.8" rx="33.2" ry="29.6"/>
<path class="st1" d="M177.4,353c-16.9,0-31.2-11.4-32.8-26.8c-0.8-8,1.9-15.9,7.7-22.2c5.8-6.3,13.9-10.2,22.8-11.1l0,0
	c8.9-0.9,17.7,1.4,24.6,6.4c6.9,5,11.2,12.2,12,20.2c1.7,16.5-12,31.5-30.5,33.3C179.9,352.9,178.6,353,177.4,353z M175.2,293.8
	c-8.7,0.9-16.6,4.7-22.2,10.8c-5.6,6.1-8.2,13.7-7.5,21.4c1.6,16,17.5,27.5,35.5,25.7s31.3-16.3,29.6-32.2
	c-0.8-7.7-4.9-14.7-11.6-19.5C192.4,295.2,184,293,175.2,293.8L175.2,293.8z"/>
<path class="st1" d="M177.4,355.7c-17.6,0.8-32.9-11.9-35.5-29.3c-0.8-8.9,2.2-17.8,8.4-24.3c13.4-14.1,35.1-16.3,51.1-5.1
	c7.4,5.1,12.2,13.2,13.1,22.2c0.9,19.1-13.9,35.4-33,36.3C180.1,355.6,178.7,355.7,177.4,355.7z M179,296.4c-1.1,0-2.3,0.1-3.4,0.2
	c-7.8,0.7-15.1,4.2-20.4,9.9c-4.9,5.2-7.4,12.2-6.7,19.3c3.8,16.2,20,26.3,36.3,22.6c13.4-3.1,22.9-14.8,23.3-28.6
	c-0.8-7.1-4.6-13.5-10.4-17.5C192.1,298.4,185.6,296.4,179,296.4z"/>
<path class="st1" d="M175.8,356.3c-17.2,0-31.9-12.5-34.5-29.7c-0.9-9.1,2.3-18.1,8.6-24.7c13.7-14.4,35.4-16.5,51.7-5.2
	c7.5,5.2,12.3,13.4,13.3,22.5c0.9,19.4-14.2,35.9-33.5,36.9c-1.3,0.1-2.7,0.2-4.1,0.2C176.9,356.2,176.3,356.3,175.8,356.3z
	 M178.8,290.3c-10.3,0-20.5,4.1-28.1,12.1c-6.1,6.4-9.1,15.1-8.3,23.9c2.6,17.2,17.6,29.6,35,28.8l0,0c1.3,0,2.7-0.1,4-0.2
	c18.8-1,33.4-17,32.6-35.8c-0.9-8.8-5.6-16.7-12.9-21.8C194.3,292.7,186.5,290.3,178.8,290.3z M177.8,349.7
	c-13.9,0-26.6-9.6-29.9-23.7c-0.7-7.3,1.8-14.5,6.9-19.7c5.5-5.8,12.8-9.4,20.8-10.1c1.4-0.1,2.6-0.2,3.8-0.2
	c6.7,0,13.1,2.1,18.6,5.9c6,4.1,9.9,10.7,10.6,17.9c-0.4,14-10.1,25.9-23.7,29.1C182.4,349.4,180.1,349.7,177.8,349.7z M179,296.9
	c-1,0-2.1,0.1-3.4,0.2c-7.7,0.7-14.8,4.2-20.1,9.8c-4.8,5.1-7.2,11.9-6.6,18.9c3.7,15.9,19.7,25.8,35.7,22.1
	c13.1-3.1,22.6-14.6,23-28.1c-0.8-6.9-4.5-13.1-10.2-17.1C191.9,298.8,185.6,296.9,179,296.9L179,296.9z"/>
<ellipse transform="matrix(0.9474 -0.3201 0.3201 0.9474 -92.6658 56.4582)" class="st0" cx="125.4" cy="310.1" rx="25.7" ry="33.2"/>
<path class="st1" d="M129.5,343.1c-4.7,0-9.5-1.5-14.1-4.6c-6.7-4.4-12-11.6-14.8-20.1s-3-17.4-0.4-25s7.8-13.1,14.4-15.3
	c13.7-4.6,29.7,5.9,35.6,23.5c2.9,8.5,3,17.4,0.4,25c-2.6,7.6-7.8,13.1-14.4,15.3C134,342.7,131.8,343.1,129.5,343.1z M121.3,278
	c-2.1,0-4.3,0.3-6.4,1c-6.4,2.1-11.3,7.4-13.8,14.7c-2.6,7.4-2.4,16,0.4,24.3s7.9,15.3,14.5,19.6c6.5,4.3,13.5,5.5,19.9,3.3
	c6.4-2.1,11.3-7.4,13.8-14.7c2.6-7.4,2.4-16-0.4-24.3C144.4,287.6,132.7,278,121.3,278z"/>
<path class="st1" d="M129.6,345.9c-15-1.4-27.7-11.9-31.6-26.5c-6.4-19,0.6-38.7,15.8-43.8l0,0c15.2-5.1,32.7,6.2,39.1,25.3
	s-0.7,38.7-15.8,43.8C134.7,345.5,132.1,345.9,129.6,345.9z M115.8,281.7c-11.7,4-17,19.9-11.7,35.6c5.3,15.6,19.2,25.2,30.9,21.2
	c11.7-4,17-19.9,11.7-35.6C141.4,287.2,127.6,277.7,115.8,281.7z"/>
<path class="st1" d="M129.6,346.4L129.6,346.4L129.6,346.4c-15.3-1.4-28.1-12.2-32.1-26.9c-3.1-9.3-3.2-19-0.2-27.4
	s8.8-14.5,16.3-17c15.4-5.2,33.2,6.3,39.8,25.6c6.5,19.3-0.7,39.3-16.1,44.5C134.8,346,132.2,346.4,129.6,346.4z M129.6,345.4
	L129.6,345.4c2.5,0,5-0.4,7.3-1.2c14.9-5,21.8-24.4,15.5-43.2c-6.4-18.8-23.6-30-38.5-25c-7.2,2.4-12.7,8.2-15.7,16.4
	c-2.9,8.2-2.9,17.7,0.2,26.8C102.3,333.5,114.8,344,129.6,345.4z M129.5,339.8c-3.1,0-6.2-0.8-9.3-2.3c-7.3-3.6-13.5-11.1-16.5-20.1
	c-5.4-15.9,0-32.1,12-36.2l0,0c12-4,26.1,5.6,31.5,21.5c5.4,15.9,0,32.1-12,36.2C133.3,339.5,131.4,339.8,129.5,339.8z M116,282.1
	c-11.5,3.9-16.6,19.6-11.4,34.9c3,8.8,8.9,16.1,16,19.6c4.8,2.4,9.8,2.8,14.2,1.3c11.5-3.9,16.6-19.6,11.4-34.9
	S127.5,278.3,116,282.1L116,282.1z"/>
<ellipse transform="matrix(0.3937 -0.9192 0.9192 0.3937 -175.3759 253.1687)" class="st0" cx="104.2" cy="259.5" rx="33.2" ry="25.7"/>
<path class="st1" d="M99.2,292.2c-2.8,0-5.6-0.5-8.3-1.7c-6.5-2.8-11.1-8.6-13.2-16.4c-2-7.8-1.2-16.6,2.3-24.9
	c7.3-17.1,24.1-26.4,37.4-20.7c6.5,2.8,11.1,8.6,13.2,16.4c2,7.8,1.2,16.6-2.3,24.9C122.5,283.5,110.6,292.2,99.2,292.2z
	 M109.2,227.8c-10.9,0-22.5,8.4-28.2,21.8c-3.4,8.1-4.3,16.7-2.3,24.2s6.4,13.1,12.6,15.8c12.8,5.5,29-3.6,36.1-20.2
	c3.4-8.1,4.3-16.7,2.3-24.2s-6.4-13.1-12.6-15.8C114.6,228.3,111.9,227.8,109.2,227.8z"/>
<path class="st1" d="M99.3,295c-3.2,0-6.4-0.6-9.4-1.9c-14.7-6.3-20.2-26.5-12.3-44.9c7.9-18.4,26.4-28.4,41-22.1l0,0
	c14.7,6.3,20.2,26.5,12.3,45c-3.5,8.5-9.7,15.6-17.6,20.2C109,293.6,104.2,294.9,99.3,295z M109.2,230.6c-11.7,1.2-21.7,9-25.6,20.1
	c-6.5,15.2-2.5,31.5,8.8,36.4c5.8,2.3,12.4,1.7,17.7-1.6c6.7-3.9,11.9-9.9,14.8-17.1c6.5-15.2,2.5-31.5-8.9-36.4
	C113.8,231,111.5,230.6,109.2,230.6L109.2,230.6z"/>
<path class="st1" d="M99.2,295.5c-3.3,0-6.5-0.7-9.6-2c-7.2-3.1-12.5-9.6-14.9-18.2c-2.4-8.6-1.5-18.3,2.4-27.4
	c8-18.7,26.7-28.8,41.7-22.4c14.9,6.4,20.6,26.9,12.6,45.6c-3.5,8.5-9.8,15.8-17.8,20.4C109.2,294,104.3,295.4,99.2,295.5
	L99.2,295.5C99.3,295.5,99.2,295.5,99.2,295.5z M109.3,224.6c-12.2,0-25,9.2-31.2,23.7c-3.8,8.8-4.6,18.3-2.3,26.7
	c2.3,8.3,7.4,14.6,14.3,17.6c2.9,1.2,6,1.8,9.2,1.9c4.8-0.1,9.6-1.4,13.8-3.8c7.8-4.5,14-11.6,17.4-20c7.8-18.2,2.4-38.1-12-44.3
	C115.5,225.2,112.4,224.6,109.3,224.6z M99.6,288.9c-2.5,0-5-0.5-7.4-1.4c-5.7-2.4-9.7-7.6-11.4-14.7c-1.7-7-0.9-14.9,2.3-22.4
	c4-11.2,14.2-19.2,26-20.4v0.1V230v0.1V230h0.1c2.4,0,4.7,0.5,7,1.4c5.7,2.4,9.7,7.6,11.5,14.7c1.7,7,0.9,14.9-2.3,22.4
	c-2.9,7.2-8.3,13.4-15,17.3C107.1,287.9,103.4,288.9,99.6,288.9z M109.2,231.1c-11.4,1.2-21.3,8.9-25.1,19.8
	c-3.1,7.3-3.9,15-2.3,21.8c1.6,6.7,5.5,11.7,10.8,14c5.6,2.2,12.1,1.6,17.2-1.6c6.5-3.8,11.7-9.8,14.6-16.8c3.1-7.3,3.9-15,2.3-21.8
	c-1.6-6.7-5.5-11.7-10.9-14C113.7,231.5,111.5,231,109.2,231.1z"/>
<ellipse class="st0" cx="168.5" cy="262.4" rx="38.3" ry="36.2"/>
<path class="st1" d="M168.5,299.1c-21.4,0-38.8-16.4-38.8-36.7c0-20.3,17.4-36.7,38.8-36.7s38.8,16.4,38.8,36.7
	C207.3,282.7,189.9,299.1,168.5,299.1z M168.5,226.8c-20.9,0-37.8,16-37.8,35.7s17,35.7,37.8,35.7c20.9,0,37.8-16,37.8-35.7
	C206.3,242.8,189.4,226.8,168.5,226.8z"/>
<path class="st1" d="M168.5,301.9c-21.8-1.2-38.5-19.8-37.3-41.6s19.8-38.5,41.6-37.3c20.9,1.1,37.4,18.4,37.4,39.4
	C209.5,284.8,190.9,302.4,168.5,301.9z M168.5,229.5c-18.2,1.2-32,16.8-30.8,35s16.8,32,35,30.8c17.4-1.1,30.9-15.5,30.9-32.9
	C203,243.7,187.3,229,168.5,229.5z"/>
<path class="st1" d="M169.6,302.4c-0.3,0-0.7,0-1,0l0,0c-10.7-0.6-20.5-5.3-27.6-13.2c-7.1-7.9-10.7-18.2-10.2-28.9
	c1.2-22,20-38.9,42.1-37.8c21.2,1.1,37.8,18.7,37.8,39.9C210,284.7,191.7,302.4,169.6,302.4z M168.6,301.4
	c22,0.6,40.5-16.9,41.1-38.9c0-20.7-16.2-37.8-36.9-38.9c-21.5-1.2-39.9,15.4-41,36.8c-0.6,10.4,3,20.4,9.9,28.1
	C148.6,296.2,158.2,300.8,168.6,301.4z M170.6,295.9c-17.5,0-32.2-13.6-33.4-31.3c-1.2-18.4,12.8-34.4,31.3-35.5l0,0
	c19-0.6,35,14.4,35.6,33.4c0,17.6-13.8,32.3-31.3,33.4C172.1,295.9,171.3,295.9,170.6,295.9z M168.6,230
	c-17.9,1.2-31.5,16.6-30.3,34.5c1.1,17.9,16.6,31.5,34.5,30.3c17-1.1,30.4-15.3,30.4-32.4C202.5,244,187,229.5,168.6,230z"/>
<ellipse transform="matrix(0.9474 -0.3201 0.3201 0.9474 -125.5238 66.3624)" class="st0" cx="139.1" cy="415" rx="28.7" ry="33.2"/>
<path class="st1" d="M141.6,448.3c-4.9,0-9.9-1.4-14.5-4.1c-7.3-4.3-12.8-11.3-15.7-19.8c-2.9-8.5-2.7-17.5,0.5-25.3s9-13.5,16.4-16
	c15.3-5.2,32.5,5,38.5,22.6c2.9,8.5,2.7,17.5-0.5,25.3s-9,13.5-16.4,16C147.2,447.8,144.4,448.3,141.6,448.3z M136.5,382.7
	c-2.6,0-5.3,0.4-7.9,1.3c-7.1,2.4-12.8,7.9-15.8,15.4c-3.1,7.6-3.2,16.3-0.4,24.6c2.8,8.3,8.2,15.1,15.3,19.3c7,4.1,14.8,5.1,22,2.7
	c7.1-2.4,12.8-7.9,15.8-15.4c3.1-7.6,3.2-16.3,0.4-24.6C161.1,391.8,148.9,382.7,136.5,382.7z"/>
<path class="st1" d="M141.7,451c-15.3-0.8-28.5-11.1-32.9-25.8c-3.1-8.8-2.9-18.5,0.5-27.2c5.6-15.2,22.5-22.9,37.7-17.3
	c1.9,0.7,3.7,1.6,5.5,2.7c16.4,10.1,23.3,30.5,16.4,48.6c-3.2,8.2-9.8,14.7-18.1,17.6C147.9,450.5,144.8,451,141.7,451z
	 M136.6,385.4c-2.4,0-4.8,0.4-7.1,1.2c-6.5,2.3-11.7,7.4-14.2,13.9c-2.8,7.3-3,15.3-0.4,22.7c5.3,15.7,20.5,24.7,33.7,20.2
	c6.5-2.3,11.7-7.4,14.2-13.9c5.6-15-0.1-31.9-13.7-40.5C145.4,386.7,141,385.5,136.6,385.4L136.6,385.4z"/>
<path class="st1" d="M141.7,451.5L141.7,451.5L141.7,451.5c-15.6-0.8-29-11.3-33.4-26.2c-3.1-8.9-2.9-18.7,0.5-27.6
	c5.7-15.4,22.9-23.3,38.4-17.6c1.9,0.7,3.8,1.6,5.5,2.7c16.6,10.3,23.6,30.9,16.6,49.2c-3.2,8.4-9.9,14.9-18.4,17.9
	C148,451,144.9,451.5,141.7,451.5z M141.7,450.5L141.7,450.5c3,0,6-0.5,8.9-1.5c8.2-2.9,14.7-9.2,17.8-17.3c6.8-17.8,0-38-16.2-48
	c-1.7-1.1-3.5-2-5.4-2.7c-14.9-5.5-31.6,2.1-37.1,17c-3.4,8.6-3.6,18.2-0.5,26.9C113.6,439.6,126.6,449.8,141.7,450.5z M141.7,445
	c-3.7,0-7.5-0.9-11.1-2.7c-7.4-3.6-13.3-10.6-16.1-19.1c-2.6-7.5-2.5-15.6,0.4-23c2.5-6.6,7.8-11.8,14.5-14.2
	c2.3-0.8,4.7-1.2,7.2-1.2l0,0h0.5c4.4,0.1,8.6,1.4,12.4,3.6c13.7,8.6,19.6,25.9,13.9,41.1c-2.5,6.6-7.8,11.8-14.5,14.2
	C146.5,444.6,144.1,445,141.7,445z M136.1,385.9c-2.2,0-4.3,0.4-6.4,1.1c-6.4,2.3-11.5,7.2-13.9,13.6c-2.8,7.2-2.9,15.1-0.4,22.3
	c2.8,8.2,8.5,15,15.6,18.5c5.7,2.8,11.9,3.3,17.5,1.4c6.4-2.3,11.5-7.2,13.9-13.6c5.5-14.7-0.1-31.5-13.5-39.9
	c-3.7-2.2-8-3.4-12.4-3.5L136.1,385.9z"/>
<ellipse transform="matrix(0.9474 -0.3201 0.3201 0.9474 -107.9082 63.1333)" class="st0" cx="138.1" cy="359.8" rx="26" ry="30.1"/>
<path class="st1" d="M140.4,390c-4.5,0-9-1.3-13.2-3.7c-6.6-3.9-11.6-10.3-14.3-18s-2.5-15.9,0.4-22.9c2.9-7.1,8.2-12.3,14.9-14.5
	l0,0c6.7-2.3,14.1-1.4,20.7,2.5s11.6,10.3,14.3,18s2.5,15.9-0.4,22.9c-2.9,7.1-8.2,12.3-14.9,14.5C145.4,389.6,142.9,390,140.4,390z
	 M135.8,330.6c-2.4,0-4.8,0.4-7.2,1.2l0,0c-6.4,2.2-11.5,7.1-14.3,14c-2.8,6.8-2.9,14.7-0.4,22.2s7.4,13.7,13.8,17.4
	c6.4,3.7,13.4,4.6,19.8,2.4s11.5-7.1,14.3-14c2.8-6.8,2.9-14.7,0.4-22.2s-7.4-13.7-13.8-17.4C144.4,331.8,140.1,330.6,135.8,330.6z"
	/>
<path class="st1" d="M140.4,392.8c-5.1,0-10.2-1.5-14.6-4.1c-15-9.3-21.3-27.9-15-44.4c5.2-13.9,20.7-21,34.6-15.8
	c1.7,0.6,3.4,1.5,5,2.5c15,9.3,21.3,27.9,15,44.4c-2.9,7.5-9,13.4-16.6,16.1C146.1,392.3,143.2,392.8,140.4,392.8z M135.8,333.4
	c-2.1,0-4.3,0.3-6.3,1c-5.8,2.1-10.5,6.6-12.7,12.4c-5,13.5,0.1,28.6,12.3,36.3c9.5,6.1,22.1,3.4,28.2-6.1c0.8-1.3,1.5-2.7,2-4.1
	c5.1-13.5-0.1-28.6-12.3-36.3C143.7,334.5,139.8,333.4,135.8,333.4z"/>
<path class="st1" d="M140.4,393.3L140.4,393.3L140.4,393.3c-5.3,0-10.4-1.5-14.9-4.2c-15.2-9.4-21.6-28.3-15.2-45
	c2.5-6.9,7.6-12.3,14.3-15.3c6.7-3,14.1-3.3,20.9-0.8c1.8,0.7,3.5,1.5,5.1,2.5c15.2,9.4,21.6,28.3,15.2,45
	c-2.9,7.7-9.1,13.7-16.9,16.4C146.2,392.8,143.3,393.3,140.4,393.3z M140.4,392.3L140.4,392.3c2.8,0,5.6-0.5,8.2-1.3
	c7.5-2.6,13.4-8.4,16.3-15.8c6.2-16.2,0-34.6-14.8-43.8c-1.5-1-3.2-1.8-4.9-2.4c-6.6-2.5-13.8-2.2-20.2,0.7
	c-6.4,2.9-11.3,8.2-13.8,14.8c-6.2,16.2,0,34.6,14.8,43.8C130.4,390.9,135.3,392.3,140.4,392.3z M140.1,386.8c-4,0-7.9-1.1-11.3-3.3
	c-12.3-7.7-17.5-23.2-12.4-36.8c2.3-5.9,7-10.6,13-12.7c2.1-0.7,4.2-1.1,6.4-1.1l0,0l0,0c4.1,0,8.1,1.2,11.5,3.3
	c12.3,7.7,17.6,23.2,12.5,36.9c-0.5,1.5-1.2,2.9-2.1,4.2c-3,4.7-7.7,7.9-13.1,9.1C143.1,386.6,141.6,386.8,140.1,386.8z
	 M135.8,333.9c-2.1,0-4.1,0.3-6.1,1c-5.7,2-10.2,6.4-12.3,12.1c-4.9,13.2,0.1,28.2,12,35.6c4.5,2.9,9.8,3.9,15,2.7
	c5.2-1.1,9.6-4.2,12.5-8.7c0.8-1.3,1.5-2.6,2-4c5-13.2-0.1-28.2-12-35.7C143.5,335,139.7,333.9,135.8,333.9L135.8,333.9z"/>
<circle class="st0" cx="225.9" cy="353.6" r="32.6"/>
<path class="st1" d="M225.9,386.7c-18.3,0-33.1-14.9-33.1-33.1c0-18.3,14.9-33.1,33.1-33.1c18.3,0,33.1,14.9,33.1,33.1
	C259,371.8,244.1,386.7,225.9,386.7z M225.9,321.5c-17.7,0-32.1,14.4-32.1,32.1s14.4,32.1,32.1,32.1s32.1-14.4,32.1-32.1
	S243.6,321.5,225.9,321.5z"/>
<path class="st1" d="M225.9,389.4c-19.8,0-35.9-16-35.9-35.8s16-35.9,35.8-35.9s35.9,16,35.9,35.8c0,0,0,0,0,0.1
	C261.7,373.4,245.7,389.4,225.9,389.4z M225.9,324.2c-16.2,0-29.4,13.1-29.4,29.4s13.1,29.4,29.4,29.4s29.4-13.1,29.4-29.4l0,0
	C255.2,337.4,242.1,324.2,225.9,324.2L225.9,324.2z"/>
<path class="st1" d="M225.8,389.9c-9.7,0-18.8-3.8-25.7-10.6c-6.9-6.9-10.7-16-10.7-25.7s3.8-18.9,10.6-25.7
	c6.9-6.9,16-10.7,25.7-10.7l0,0c20,0,36.4,16.3,36.4,36.3C262.2,373.6,245.9,389.9,225.8,389.9L225.8,389.9
	C225.9,389.9,225.9,389.9,225.8,389.9z M225.9,318.2C225.8,318.2,225.8,318.2,225.9,318.2c-9.5,0-18.4,3.7-25,10.4
	c-6.7,6.7-10.3,15.6-10.3,25s3.7,18.3,10.4,25s15.6,10.3,25,10.3l0,0l0,0c19.5,0,35.3-15.9,35.3-35.3
	C261.2,334,245.3,318.2,225.9,318.2z M225.9,383.4c-16.5,0-29.9-13.4-29.9-29.9c0-16.3,13.1-29.6,29.4-29.9l0,0h0.5
	c16.4,0,29.8,13.4,29.9,29.9C255.7,370,242.3,383.4,225.9,383.4z M226.3,324.7h-0.4c-15.9,0-28.9,12.9-28.9,28.9
	c0,15.9,12.9,28.9,28.9,28.9c15.9,0,28.9-12.9,28.9-28.9C254.7,337.8,242,324.9,226.3,324.7z"/>
<ellipse transform="matrix(0.9474 -0.3201 0.3201 0.9474 -86.8824 100.2446)" class="st0" cx="261.5" cy="314.4" rx="28.8" ry="32.6"/>
<path class="st1" d="M263.7,347.2c-12.8,0-25.2-9.2-30-23.3c-5.8-17.3,1.9-35.6,17.2-40.7c15.3-5.2,32.5,4.7,38.4,22
	c5.8,17.3-1.9,35.6-17.2,40.7C269.3,346.7,266.5,347.2,263.7,347.2z M259.3,282.7c-2.7,0-5.4,0.4-8.1,1.3
	c-14.8,5-22.2,22.7-16.6,39.5s22.3,26.3,37.1,21.3s22.2-22.7,16.6-39.5C283.7,291.6,271.6,282.7,259.3,282.7z"/>
<path class="st1" d="M263.6,350c-5.5,0-11-1.5-15.7-4.3c-8-4.7-14-12.1-16.9-20.9c-6.9-17.5,1.6-37.2,19-44.3
	c8.3-2.8,17.5-1.7,25,2.8c16.4,9.8,23.2,30.1,16.1,47.8c-3.3,8.2-9.9,14.5-18.2,17.4C269.9,349.4,266.8,350,263.6,350z M259.3,285.4
	c-2.5,0-4.9,0.4-7.2,1.2c-14,5.9-20.6,21.9-14.8,36c2.4,7.3,7.3,13.5,13.9,17.4c10.9,6.8,25.2,3.4,32-7.5c0.8-1.3,1.5-2.6,2-4
	c2.9-7.1,3.1-15,0.5-22.2l0,0c-2.4-7.3-7.3-13.5-13.9-17.4C268,286.7,263.7,285.5,259.3,285.4z"/>
<path class="st1" d="M263.6,350.5L263.6,350.5c-5.6,0-11.1-1.6-16-4.4c-8.1-4.8-14.2-12.3-17.1-21.2c-7-17.6,1.7-37.8,19.2-44.9
	c8.5-2.8,17.8-1.8,25.5,2.8c16.6,10,23.5,30.4,16.4,48.4c-3.3,8.3-10.1,14.7-18.5,17.7C270,349.9,266.9,350.5,263.6,350.5z
	 M259.5,279.4c-3.1,0-6.3,0.5-9.3,1.5c-17,6.9-25.4,26.5-18.6,43.6c2.9,8.7,8.8,16,16.6,20.7c4.7,2.8,10,4.2,15.5,4.3
	c3.1,0,6.2-0.5,9.1-1.5c8.2-2.8,14.7-9.1,17.9-17.1c7-17.6,0.3-37.4-15.9-47.2C270.1,280.9,264.8,279.4,259.5,279.4z M263.4,344
	c-4.3,0-8.6-1.2-12.5-3.6c-6.7-3.9-11.7-10.2-14.1-17.6c-5.8-14.2,1-30.6,15.1-36.6c2.4-0.8,4.9-1.2,7.4-1.2l0,0
	c4.5,0,8.9,1.3,12.7,3.5c6.7,4,11.7,10.2,14.1,17.6c2.6,7.3,2.4,15.4-0.5,22.6c-0.5,1.4-1.2,2.8-2,4.1
	C279.1,340,271.3,344,263.4,344z M259.3,285.9c-2.4,0-4.8,0.4-7.1,1.2c-13.6,5.7-20.2,21.6-14.5,35.3c2.3,7.2,7.2,13.3,13.7,17.1
	c5.2,3.2,11.3,4.2,17.2,2.8c5.9-1.4,10.9-5,14.2-10.1c0.8-1.2,1.4-2.6,1.9-3.9c2.9-7,3-14.8,0.5-21.9c-2.3-7.2-7.2-13.3-13.7-17.1
	C267.8,287.1,263.6,286,259.3,285.9z"/>
<ellipse transform="matrix(0.9474 -0.3201 0.3201 0.9474 -81.2982 88.8385)" class="st0" cx="229.6" cy="291.7" rx="28.8" ry="32.6"/>
<path class="st1" d="M231.8,324.5c-12.8,0-25.2-9.2-30-23.3c-5.8-17.3,1.9-35.6,17.2-40.7c7.4-2.5,15.5-1.6,22.8,2.6
	c7.2,4.2,12.8,11,15.6,19.4c5.8,17.3-1.9,35.6-17.2,40.7C237.4,324,234.6,324.5,231.8,324.5z M227.5,260c-2.8,0-5.5,0.4-8.1,1.3
	c-14.8,5-22.2,22.7-16.6,39.5c5.7,16.8,22.3,26.3,37.1,21.3s22.2-22.7,16.6-39.5c-2.7-8.1-8.1-14.8-15.2-18.9
	C236.9,261.3,232.2,260,227.5,260z"/>
<path class="st1" d="M231.8,327.3c-15.1-0.6-28.2-10.8-32.6-25.2c-6.9-17.4,1.6-37.2,18.9-44.3c8.4-2.8,17.5-1.8,25,2.8
	c8,4.7,14,12.1,16.9,20.9c6.9,17.4-1.6,37.2-18.9,44.3C238.1,326.8,235,327.3,231.8,327.3z M227.5,262.7c-2.5,0-4.9,0.4-7.3,1.2
	c-16.1,3.1-26.6,18.6-23.6,34.7c3.1,16.1,18.6,26.6,34.7,23.6c16.1-3.1,26.6-18.6,23.6-34.7c-0.3-1.3-0.6-2.7-1-3.9
	c-2.4-7.3-7.3-13.5-13.9-17.4C236.2,264,231.9,262.8,227.5,262.7L227.5,262.7z"/>
<path class="st1" d="M231.8,327.8L231.8,327.8L231.8,327.8c-9.3-0.4-17.8-4.3-24.1-10.6c-5.8-4.4-10.1-10.8-11.6-18.5
	c-0.8-4.4-0.7-8.8,0.4-12.9c1.3-12.3,9.2-23.6,21.4-28.5c8.5-2.8,17.8-1.8,25.5,2.8c8.1,4.7,14.2,12.3,17.1,21.2
	c7,17.6-1.7,37.7-19.2,44.9C238.2,327.2,235.1,327.8,231.8,327.8z M231.8,326.8L231.8,326.8c3.1,0,6.2-0.5,9.1-1.5
	c17-6.9,25.4-26.5,18.6-43.6c-2.8-8.7-8.8-16.1-16.7-20.7c-7.4-4.5-16.4-5.5-24.6-2.7c-9.7,3.9-16.6,12-19.5,21.4
	c4.1-8.1,11.7-14.3,21.3-16.1c2.3-0.8,4.8-1.2,7.3-1.2l0,0h1.2l0,0c4.1,0.2,8,1.4,11.5,3.5c6.7,4,11.7,10.2,14.1,17.6
	c0.4,1.3,0.8,2.6,1.1,4c3.1,16.3-7.7,32.1-24,35.2c-6.4,1.2-12.8,0.3-18.3-2.3C218.5,324.2,225,326.5,231.8,326.8z M208.4,316.5
	c6.3,4.7,14.5,6.8,22.8,5.2c15.8-3,26.2-18.3,23.2-34.1c-0.2-1.3-0.6-2.6-1-3.9c-2.3-7.2-7.2-13.3-13.7-17.1
	c-3.7-2.2-7.9-3.4-12.2-3.4h-0.4c-2.3,0-4.5,0.4-6.7,1.2c-7.7,1.5-14.3,5.8-18.7,12.3c-1.9,2.8-3.3,5.9-4.2,9.2
	c-0.6,5.3,0.1,10.7,2.1,16C201.4,307.5,204.4,312.5,208.4,316.5z M196.7,294.4c0.1,1.4,0.2,2.7,0.5,4.1c0.9,4.6,2.8,8.8,5.5,12.2
	c-1.6-2.6-3-5.5-3.9-8.6C197.7,299.6,197,297,196.7,294.4z"/>
<circle class="st0" cx="130.2" cy="211.1" r="27.9"/>
<path class="st1" d="M130.2,239.5c-15.7,0-28.4-12.7-28.4-28.4s12.7-28.4,28.4-28.4s28.4,12.7,28.4,28.4S145.9,239.5,130.2,239.5z
	 M130.2,183.6c-15.1,0-27.4,12.3-27.4,27.4s12.3,27.4,27.4,27.4s27.4-12.3,27.4-27.4S145.3,183.6,130.2,183.6z"/>
<path class="st1" d="M130.2,242.2C113,242.2,99,228.3,99,211c0-17.2,14-31.2,31.2-31.2s31.2,14,31.2,31.2
	C161.4,228.3,147.4,242.2,130.2,242.2z M130.2,186.4c-13.6,0-24.6,11-24.6,24.6s11,24.6,24.6,24.6s24.6-11,24.6-24.6l0,0
	C154.8,197.4,143.8,186.4,130.2,186.4L130.2,186.4z"/>
<path class="st1" d="M130.2,242.7L130.2,242.7c-17.5,0-31.7-14.2-31.7-31.7s14.2-31.7,31.7-31.7l0,0c17.5,0,31.7,14.2,31.7,31.7
	S147.6,242.7,130.2,242.7z M130.2,180.4c-16.9,0-30.7,13.7-30.7,30.7c0,16.9,13.7,30.7,30.7,30.7c16.9,0,30.7-13.8,30.7-30.7
	C160.9,194.1,147.1,180.4,130.2,180.4L130.2,180.4z M130.2,236.2c-13.9,0-25.1-11.3-25.1-25.1s11.3-25.1,25.1-25.1h0.5
	c13.6,0.3,24.6,11.5,24.6,25.1C155.3,224.9,144,236.2,130.2,236.2z M129.7,186.9c-13.1,0.3-23.6,11-23.6,24.1
	c0,13.3,10.8,24.1,24.1,24.1s24.1-10.8,24.1-24.1s-10.9-24.1-24.1-24.1H129.7z"/>
<ellipse class="st0" cx="185.8" cy="200.9" rx="30.2" ry="28.3"/>
<path class="st1" d="M185.8,229.8c-16.9,0-30.7-12.9-30.7-28.8s13.8-28.8,30.7-28.8s30.7,12.9,30.7,28.8S202.7,229.8,185.8,229.8z
	 M185.8,173.1c-16.3,0-29.7,12.5-29.7,27.8c0,15.4,13.3,27.8,29.7,27.8c16.3,0,29.7-12.5,29.7-27.8S202.2,173.1,185.8,173.1z"/>
<path class="st1" d="M185.8,232.5c-17.5-1-30.8-15.9-29.8-33.4s15.9-30.8,33.4-29.8c16.8,0.9,29.9,14.8,29.9,31.6
	C218.7,218.8,203.8,233,185.8,232.5z M185.8,175.8c-13.9,1-24.3,13-23.3,26.8c1,13.9,13,24.3,26.8,23.3
	c13.2-0.9,23.4-11.9,23.4-25.1C212.2,186.6,200.2,175.4,185.8,175.8z"/>
<path class="st1" d="M186.7,233c-0.3,0-0.6,0-0.9,0l0,0c-8.6-0.5-16.5-4.3-22.2-10.7s-8.6-14.6-8.1-23.2c1-17.7,16.2-31.3,33.9-30.3
	c17,0.9,30.4,15,30.4,32.1C219.2,218.8,204.5,233,186.7,233z M185.8,232c17.6,0.4,32.4-13.5,32.9-31.1c0-16.5-12.9-30.2-29.4-31.1
	c-17.1-0.9-31.9,12.2-32.8,29.4c-0.5,8.3,2.3,16.3,7.9,22.5C169.9,227.9,177.5,231.6,185.8,232z M187.5,226.6
	c-13.3,0-24.6-10.4-25.6-23.9c-1-14.1,9.7-26.4,23.8-27.4l0,0c14.5-0.5,26.9,11,27.4,25.6c0,13.4-10.5,24.7-23.9,25.6
	C188.7,226.5,188.1,226.6,187.5,226.6z M185.8,176.3c-13.6,0.9-23.8,12.7-22.9,26.3c0.5,6.6,3.4,12.6,8.4,16.9s11.3,6.5,17.9,6
	c12.9-0.9,22.9-11.7,22.9-24.6C211.7,186.9,199.9,175.9,185.8,176.3z"/>
<ellipse transform="matrix(0.7071 -0.7071 0.7071 0.7071 -69.5138 163.2537)" class="st0" cx="162.3" cy="165.5" rx="30.2" ry="28.3"/>
<path class="st1" d="M160.5,195.3c-7.3,0-14.5-2.7-19.9-8.1c-11.2-11.2-10.7-30.1,1.3-42.1l0,0c5.8-5.8,13.3-9.1,21.3-9.4
	c8-0.2,15.3,2.6,20.8,8.1c11.2,11.2,10.7,30.1-1.3,42.1C176.5,192.1,168.4,195.3,160.5,195.3z M142.7,145.8
	c-11.6,11.6-12.1,29.8-1.3,40.7c10.9,10.9,29.1,10.3,40.7-1.3c11.6-11.6,12.1-29.8,1.3-40.7c-5.3-5.3-12.4-8-20-7.8
	C155.6,137,148.3,140.2,142.7,145.8L142.7,145.8z"/>
<path class="st1" d="M160.5,198c-8.2,0.1-16-3.1-21.8-8.9c-12.3-13.8-11.1-35,2.8-47.3c12.7-11.3,31.8-11.3,44.5,0
	c6,6,9.2,14.3,8.9,22.8C194.1,183.2,179,197.8,160.5,198L160.5,198z M164.1,139.5c-7.4,0.1-14.4,3-19.5,8.3
	c-10.5,9.1-11.6,25-2.5,35.5s25,11.6,35.5,2.5c0.9-0.8,1.7-1.6,2.5-2.5c5-5,8-11.7,8.3-18.7c0.6-13.2-9.5-24.3-22.7-25
	C165.1,139.5,164.6,139.5,164.1,139.5z"/>
<path class="st1" d="M160.3,198.5c-8.2,0-16.1-3.3-21.9-9c-6.1-6.8-9.1-15.5-8.6-24.6s4.6-17.4,11.3-23.4
	c12.9-11.5,32.3-11.5,45.2,0c6.1,6.1,9.4,14.6,9.1,23.2c-0.8,18.7-16,33.5-34.6,33.8l0,0h-0.2C160.5,198.5,160.4,198.5,160.3,198.5z
	 M163.7,133.9c-7.8,0-15.7,2.8-21.9,8.3c-6.6,5.9-10.5,13.9-11,22.7s2.4,17.3,8.3,23.8c5.6,5.5,13.3,8.7,21.2,8.7l0,0l0,0h0.2
	c18.2-0.2,33.1-14.6,33.8-32.8c0.3-8.3-2.8-16.5-8.7-22.4C179.4,136.7,171.6,133.9,163.7,133.9z M161.1,192.4c-0.6,0-1.2,0-1.8-0.1
	c-6.8-0.5-13.1-3.6-17.6-8.8s-6.7-11.8-6.2-18.6s3.6-13.1,8.8-17.6c5.3-5.3,12.3-8.3,19.9-8.4c0.5,0,1,0,1.5,0
	c13.4,0.6,23.8,12.1,23.2,25.5c-0.3,7.2-3.2,14-8.4,19.1c-0.8,0.9-1.6,1.7-2.5,2.5C173.2,190.2,167.3,192.4,161.1,192.4z M164.5,140
	c-0.1,0-0.2,0-0.3,0l0,0c-7.3,0.1-14.1,2.9-19.2,8.1c-5,4.3-8,10.3-8.4,16.9c-0.5,6.6,1.7,12.9,6,17.9c8.9,10.3,24.5,11.3,34.8,2.4
	c0.9-0.8,1.7-1.6,2.4-2.4c5-4.9,7.9-11.5,8.1-18.4c0.6-12.9-9.4-23.8-22.2-24.5C165.2,140,164.9,140,164.5,140z"/>
<path class="st0" d="M297.5,101.8c9.9-21,17.1-39,41.9-39c46.2,0,82.9,49.5,82.9,49.5c-2.1,9.5-7.3,18.1-14.6,24.5
	c-11.2,8.3-23.3,15.3-36,20.9c53.4-6.2,61.2,12.6,66.8,16.8c4.6,3.4,25.3,43.7,25.3,43.7l-24.4,13.5c-5.6,3.1-9.2,8.8-9.7,15.1
	l-7.3,98l-105.9-71.4l-20.7-16.1c-11.6,9.8-19.7,23.2-23,38c-0.6,8-0.6,16.1,0,24.2c0,0-46.9-25.8-56.4-40.3
	c-11.4-17.5-10.9-84.3-10.9-84.3s29.8-14.3,36.3-22.8c2.6-3.4,4.5-14.5,1.1-17.3c-5.8-4.7-28.8,8.1-28.8,8.1s-11.5-20.7,3.5-35.7
	c20.9-20.9,47.2,0,47.2,0l43,29.1c0.4,0.3,1,0.2,1.3-0.2c0.2-0.2,0.2-0.5,0.1-0.7C309.1,155.5,288,121.9,297.5,101.8z"/>
<path class="st1" d="M422.6,345.7l-0.7-0.5L316,273.8L295.6,258c-11.3,9.7-19.3,22.9-22.5,37.4c-0.6,7.9-0.6,16,0,24l0.1,0.9
	l-0.8-0.4c-1.9-1.1-47.1-26-56.6-40.4c-11.4-17.4-11-81.8-11-84.5v-0.3l0.3-0.1c0.3-0.1,29.7-14.3,36.1-22.6
	c2.6-3.4,4.3-14.1,1.2-16.6c-2.2-1.8-7.8-1-16,2.3c-6.4,2.6-12.1,5.7-12.2,5.8l-0.4,0.2l-0.2-0.4C213.3,163,202,142,217,127
	c20.9-20.9,47.6-0.2,47.9,0l43,29.1c0.2,0.1,0.5,0.1,0.6-0.1c0.1-0.1,0.1-0.2,0.1-0.3c-0.6-0.9-5.5-9.1-9.3-19.3
	c-3.8-10-7.2-24.2-2.2-34.8l1.4-3c9.1-19.4,17-36.2,40.9-36.2c46,0,82.9,49.2,83.3,49.7l0.1,0.2l-0.1,0.2
	c-2.2,9.7-7.3,18.2-14.8,24.7c-10.4,7.7-21.5,14.3-33.3,19.7c43.4-4.3,55.5,8.5,61.4,14.7c1,1,1.8,1.9,2.6,2.5
	c4.6,3.4,24.6,42.2,25.5,43.9l0.2,0.4l-24.9,13.7c-5.5,3-9,8.5-9.4,14.7L422.6,345.7z M295.6,256.7l21,16.4L421.7,344l7.2-97.1
	c0.5-6.6,4.2-12.4,10-15.5l24-13.2c-2.2-4.4-20.7-40-24.9-43.1c-0.8-0.6-1.7-1.6-2.7-2.6c-5.9-6.3-18.2-19.3-63.7-14.1l-0.3-1
	c12.7-5.5,24.8-12.6,35.9-20.9c7.2-6.3,12.2-14.6,14.4-24c-2.5-3.3-38.3-49.1-82.3-49.1c-23.3,0-30.6,15.7-40,35.7l-1.4,3
	c-9.2,19.6,11.3,52.8,11.5,53.2l0.1,0.2c0.1,0.4,0,0.8-0.2,1.1c-0.5,0.7-1.4,0.8-2,0.4l-43-29.1c-0.3-0.2-26.2-20.4-46.6-0.1
	c-13.3,13.3-5.1,31.6-3.6,34.6c3.4-1.8,23.3-12.3,28.9-7.8c3.7,3,1.6,14.5-1.1,18c-6.2,8.1-32.9,21.2-36.1,22.8
	c0,5,0,67.1,10.9,83.7c8.6,13.2,49.1,36.2,55.4,39.7c-0.6-7.7-0.6-15.6,0.1-23.3c3.4-14.9,11.6-28.5,23.2-38.3L295.6,256.7z"/>
<path class="st1" d="M425.1,350.7l-110.6-74.5l-18.8-14.6c-9.9,9.2-16.9,21.2-19.9,34.4c-0.6,7.7-0.6,15.5,0.1,23.3l0.4,6l-5.2-2.9
	c-2-1.1-47.7-26.3-57.5-41.3c-11.8-18.1-11.5-83.3-11.5-86.1v-2.1l1.8-0.9c8.1-3.9,30.2-15.4,35.1-21.8c2.1-3.9,2.7-8.5,1.7-12.8
	c-2.1-1.6-14.3,2.4-25.1,8.4l-2.9,1.6l-1.6-2.8c-4.4-7.9-9.2-26.4,4-39.6c22.7-22.7,51.2-0.5,51.5-0.2l34.9,23.6
	c-5.8-11.8-14-32.9-6.9-47.9l1.4-3c9.1-19.5,17.7-37.8,43.4-37.8c47.3,0,84,48.7,85.5,50.8l0.8,1.1l-0.2,1.4
	c-2.3,10.2-7.8,19.5-15.7,26.4c-6.7,5.5-13.9,10.2-21.6,14c33.7-0.7,44.5,10.6,49.9,16.4c0.7,0.8,1.4,1.5,2.3,2.2
	c4.8,3.6,21.3,35.2,26.3,44.8l1.5,2.8l-27.2,15c-4.6,2.5-7.7,7.3-8.1,12.5L425.1,350.7z M295.6,253.2l22.7,17.7l101,68.1l6.9-92.4
	c0.5-7.5,4.8-14.2,11.4-17.8l21.7-11.9c-6.7-13.8-14.3-27.1-22.9-39.8c-1.1-0.9-2.1-1.9-3.1-2.9c-5.6-6-17.3-18.3-61.4-13.2
	l-2.7,0.3l-0.8-2.7c-0.8-2.7,1.2-3.7,4.5-5.1c11.7-4.9,22.6-11.4,32.6-19.1c6.4-5.6,11-13,13.3-21.2c-5.8-7.4-39.2-47-79.3-47
	c-21.5,0-28.2,14.3-37.5,34.1l-1.4,3c-8.6,18.2,11.2,50.2,11.4,50.5l0.4,1.1c0.5,2.3-1,4.5-3.3,5c-1.1,0.2-2.3,0-3.2-0.6L262.8,130
	c-1.2-0.9-24.5-18.9-43.1-0.4c-7.1,7.9-8.8,19.3-4.2,28.8c8.5-4.4,23.4-10.9,29.3-6.1c5.2,4.3,2.8,17.4-0.6,21.8
	c-6,7.9-28.6,19.4-35.6,22.8c0,19.7,1.8,67.2,10.5,80.4c6.6,10,34.8,27.5,50.1,36.3c-0.5-6.4-0.3-12.7,0.4-19.1
	c3.5-15.6,12-29.6,24.2-39.9L295.6,253.2z"/>
<path class="st1" d="M425.5,351.6l-0.7-0.5l-110.6-74.5l-18.5-14.4c-9.7,9.2-16.5,20.9-19.5,33.9c-0.6,7.6-0.6,15.4,0.1,23.1
	l0.5,6.9l-6-3.3c-0.5-0.3-47.7-26.1-57.7-41.5c-11.6-17.7-11.6-79.4-11.6-86.3v-2.4l2.1-1c8.1-3.9,30-15.3,34.9-21.7
	c2-3.7,2.6-8,1.6-12.2c-2.1-1.1-13.7,2.6-24.4,8.5l-3.3,1.8l-1.8-3.3c-4.4-8-9.3-26.8,4.1-40.2c11.9-11.9,25.4-11.4,34.6-8.8
	c10.1,2.8,17.5,8.5,17.5,8.5l33.3,22.5c-5.6-11.8-13-32.1-6.1-46.7l1.4-3c9.2-19.6,17.9-38.1,43.9-38.1c19.8,0,40.1,8.3,60.2,24.7
	c14.6,11.9,23.9,24,25.7,26.3l0.9,1.3l-0.3,1.6c-2.3,10.3-7.9,19.8-15.9,26.7c-6.1,5-12.8,9.4-19.8,13.1c0.2,0,0.5,0,0.7,0
	c31.8,0,42.3,11.2,47.4,16.6c0.7,0.8,1.4,1.5,2.2,2.2c4.9,3.7,21.4,35.4,26.4,45l1.7,3.2l-27.6,15.2c-4.5,2.5-7.4,7-7.8,12.1
	L425.5,351.6z M295.7,260.9l19.1,14.9l109.8,74l7.6-102.8c0.4-5.5,3.5-10.3,8.3-12.9l26.8-14.8l-1.2-2.4
	c-10.1-19.7-22.3-41.8-26.1-44.7c-0.9-0.7-1.6-1.5-2.3-2.3c-5.2-5.5-15.9-16.9-49.5-16.2l-0.2-0.9c7.6-3.8,14.9-8.5,21.5-14
	c7.8-6.7,13.3-16,15.6-26.1l0.2-1.1l-0.7-1c-1.7-2.3-11-14.3-25.5-26.1c-20-16.3-40-24.5-59.6-24.5c-25.4,0-33.9,18.2-43,37.6
	l-1.4,3c-7,14.9,1.3,36.2,6.9,47.5l0.8,1.7l-36.5-24.7c-0.1-0.1-7.3-5.7-17.2-8.4c-13.1-3.6-24.4-0.7-33.7,8.6
	c-13,13-8.2,31.2-3.9,39l1.3,2.4l2.4-1.3c10-5.6,23.2-10.3,25.7-8.4l0.1,0.1v0.2c1.1,4.4,0.5,9.1-1.7,13.1
	c-5.1,6.6-27.2,18.1-35.3,22l-1.5,0.8v1.7c0,6.9,0,68.3,11.4,85.8c9.9,15.2,56.9,40.9,57.4,41.2l4.4,2.4l-0.3-5
	c-0.7-7.7-0.7-15.6-0.1-23.3c3.1-13.4,10-25.4,20.1-34.8L295.7,260.9z M419.8,339.9l-0.7-0.5l-101-68.1l-22.4-17.5l-1.7,1.3
	c-12,10.1-20.6,24.2-24,39.6c-0.7,6.2-0.9,12.6-0.4,18.9l0.1,0.9l-0.8-0.5c-7.1-4.1-42.7-24.9-50.3-36.5
	C208.2,261.7,208,199.6,208,197v-0.3l0.3-0.1c6.8-3.4,29.5-14.9,35.4-22.7c1.7-2.2,3.1-6.6,3.4-10.7c0.4-4.8-0.6-8.6-2.7-10.4
	c-5.7-4.7-20.5,1.8-28.8,6.1l-0.5,0.2l-0.2-0.5c-4.7-9.8-3-21.3,4.3-29.4c7.8-7.8,17.6-10.3,28.5-7.2c8.1,2.2,14.1,6.7,15.2,7.6
	l43,29.1c0.8,0.5,1.8,0.7,2.8,0.5c2-0.4,3.3-2.4,2.9-4.4l-0.4-1c-0.2-0.2-20.1-32.3-11.3-50.9l1.4-3c9.4-20,16.1-34.4,38-34.4
	c17.1,0,34.9,7,52.8,20.8c14.3,11,24.2,22.9,26.9,26.3l0.2,0.2l-0.1,0.2c-2.3,8.3-6.9,15.7-13.4,21.4c-10.1,7.8-21.1,14.2-32.8,19.2
	c-3.4,1.6-4.8,2.3-4.2,4.5l0.7,2.3l2.3-0.3c44.4-5.1,56.2,7.4,61.8,13.4c0.9,1,1.9,2,3,2.9l0.1,0.1c8.6,12.7,16.3,26.1,23,39.9
	l0.2,0.4L437.7,229c-6.4,3.5-10.6,10-11.1,17.4L419.8,339.9z M295.6,252.6l23,17.9l100.3,67.6l6.8-91.5c0.6-7.7,4.9-14.5,11.6-18.2
	l21.2-11.7c-6.6-13.6-14.2-26.8-22.7-39.3c-1.1-0.9-2.1-1.9-3.1-2.9c-5.5-5.9-17.1-18.1-61-13.1l-3.2,0.4l-0.9-3.1
	c-0.9-3.2,1.5-4.2,4.7-5.7c11.6-4.9,22.6-11.3,32.5-19c6.3-5.5,10.8-12.7,13-20.7c-2.9-3.6-12.6-15.3-26.6-26
	c-17.8-13.7-35.4-20.6-52.2-20.6c-21.2,0-27.8,14.2-37,33.8l-1.4,3c-8.5,17.9,11.1,49.7,11.3,50l0.5,1.1c0.6,2.6-1.1,5.1-3.6,5.7
	c-1.2,0.3-2.5,0-3.6-0.7l-43.1-29.2c-1.1-0.9-7-5.2-14.9-7.4c-10.7-3-20-0.6-27.5,7c-6.9,7.6-8.6,18.5-4.4,27.8
	c8.6-4.4,23.3-10.8,29.4-5.8c5.6,4.5,3,17.8-0.5,22.5c-5.9,7.6-26.6,18.4-35.5,22.8c0,22.3,2.2,67.3,10.4,79.8
	c7.2,11,40.5,30.7,49.1,35.7c-0.4-6.1-0.2-12.2,0.5-18.2c3.5-15.7,12.1-29.9,24.3-40.2L295.6,252.6z"/>
<path class="st0" d="M371.3,254.2l-36.8-63.5L309,155.5"/>
<polygon class="st1" points="370.8,254.4 334,191 308.6,155.8 309.5,155.2 334.9,190.5 371.7,253.9 "/>
<path class="st1" d="M371.1,254.3l-38.5-62.5l0.1,0.2l-26.3-34.6l5.3-3.8l24.5,35.9l0.1,0.1l0,0l35.2,64.4L371.1,254.3z"/>
<path class="st1" d="M370.9,255l-38.6-62.8l-26.6-35l6.1-4.4l24.9,36.7l35.3,64.7L370.9,255z M333.1,191.7l32.3,52.5l-29.7-54.4
	l-24.2-35.5l-4.5,3.2l25.9,34.1l0,0L333.1,191.7L333.1,191.7z"/>
<path class="st1" d="M350.6,83.2l6.1,30.7l-0.7-0.5l29.6-4.4l0,0l-29.3,6.1l0.7-0.5l-34.4,57.7l-0.4,0.7l-0.7,0.3l-33.6,17.9
	l0.4-0.3l-34.9,46.5l32.8-48l0.1-0.2l0.3-0.2l31.6-21.3l-1.1,1l38-55.3l0.3-0.4l0.4-0.1l29.7-3.9l0,0l-29.4,5.6l-0.6,0.1l-0.1-0.6
	L350.6,83.2z"/>
<path class="st1" d="M253.8,237.6L253,237l33-48.3l0.3-0.2l30.9-20.8l37.6-54.7l0,0l0,0l-4.7-29.8l1-0.2l5.8,29.2l28.6-3.8v0.1h0.1
	l0.2,1l-28.6,5.9l-34.5,57.9l-0.8,0.4l-33.3,17.7L253.8,237.6z M286.7,189.5l-0.1,0.1l-20.1,29.5l21.2-28.2l-0.1-0.1l0.4-0.3
	l0.1,0.1l33.8-18l0.3-0.6l33.9-56.9l-1,0.2l-0.1-0.8l-36.6,53.3l0.2,0.2l-1.1,1l-0.2-0.2L286.7,189.5z M355.9,113.9L355.9,113.9
	l0.1,0.1L355.9,113.9z M357.2,113.7L357.2,113.7l3.2-0.5L357.2,113.7z M354.9,107.4l0.8,5h0.2L354.9,107.4z"/>
<path class="st1" d="M334.4,189.5l68.5-2.7h0.3l0.2,0.2l38,23.8l-0.1,0.2l-38.9-22.3l0.6,0.1l-68.5,3.2L334.4,189.5z"/>
<path class="st1" d="M441.5,211.7l-38.9-22.4l-68.6,3.2l-0.2-3.4l69.5-2.8l0.4,0.2l38.4,24.1L441.5,211.7z M403.1,188.5l22.2,12.7
	l-22.2-13.9h-0.2l-68,2.7l0.1,1.4l67.5-3.1l0.1-0.1l0.6,0.1L403.1,188.5z"/>
<path class="st1" d="M391.1,212.8l39.3,28.4l-1,1.3L391.1,212.8z"/>
<path class="st1" d="M429.5,243.2l-38.8-30l0.6-0.8l39.8,28.7L429.5,243.2z M414.6,230.4l14.7,11.4l0.4-0.5L414.6,230.4z"/>
<path class="st1" d="M352.7,265.8l0.8,32.1H352L352.7,265.8z"/>
<path class="st1" d="M354,298.5h-2.6l0.8-32.7h1L354,298.5z M352.5,297.5h0.5l-0.3-11.2L352.5,297.5z"/>
<path class="st1" d="M334.4,229.3l-2.9,17.4v0.1l-0.1,0.1L315.2,269l-1.3-1l16.8-21.7l-0.1,0.2L334.4,229.3z"/>
<path class="st1" d="M315.3,269.7l-2.1-1.6l17-21.9l3.8-17l1,0.2l-3,17.6l-0.2,0.2L315.3,269.7z M314.6,267.9l0.5,0.4l14.2-19.4
	L314.6,267.9z"/>
<path class="st1" d="M295.7,204.8l1,52.5h-2.1L295.7,204.8z"/>
<path class="st1" d="M297.2,257.9h-3.1l1-53h1L297.2,257.9z M295.2,256.9h1l-0.5-26.4L295.2,256.9z"/>
<path class="st1" d="M223.8,235.1l50.2-27.3l0.5,0.9L223.8,235.1z"/>
<path class="st1" d="M224.1,235.5l-0.5-0.9l50.6-27.6l1,1.8L224.1,235.5z M273.8,208.5l-2.9,1.6L273.8,208.5L273.8,208.5z"/>
<path class="st1" d="M380,267.3l29.9,43.8l-0.6,0.4l-32.8-41.7L380,267.3z"/>
<path class="st1" d="M409.3,312.2l-33.4-42.5l4.2-3.1l30.5,44.7L409.3,312.2z M377.3,269.9l29.8,38L379.9,268L377.3,269.9z"/>
</svg>
