<?xml version="1.0" encoding="utf-8"?>
<!-- Generator: Adobe Illustrator 24.0.3, SVG Export Plug-In . SVG Version: 6.00 Build 0)  -->
<svg version="1.1" id="Layer_1" xmlns="http://www.w3.org/2000/svg" xmlns:xlink="http://www.w3.org/1999/xlink" x="0px" y="0px"
	 viewBox="0 0 500 500" style="enable-background:new 0 0 500 500;" xml:space="preserve">
<style type="text/css">
	.st0{fill:#5D5D5D;}
</style>
<g id="Group_70" transform="translate(993.716 4369.085)">
	<path id="Path_11" class="st0" d="M-743.7-4324c66.8,0,74.7,0.3,101,1.5c15.9,0.2,31.6,3.1,46.4,8.6c10.9,4,20.7,10.4,28.7,18.7
		c8.3,8.1,14.7,17.9,18.7,28.7c5.5,14.9,8.4,30.6,8.6,46.4c1.2,26.4,1.5,34.3,1.5,101c0,66.8-0.3,74.7-1.5,101
		c-0.2,15.9-3.1,31.6-8.6,46.4c-4,10.9-10.4,20.7-18.7,28.7c-8.1,8.3-17.9,14.7-28.7,18.7c-14.9,5.5-30.6,8.4-46.4,8.6
		c-26.4,1.2-34.3,1.5-101,1.5s-74.7-0.3-101-1.5c-15.8-0.2-31.5-3.1-46.4-8.6c-10.9-4-20.7-10.4-28.7-18.7
		c-8.3-8.1-14.7-17.9-18.7-28.7c-5.5-14.9-8.4-30.6-8.6-46.4c-1.2-26.4-1.5-34.3-1.5-101c0-66.8,0.3-74.7,1.5-101
		c0.2-15.9,3.1-31.6,8.6-46.4c4-10.9,10.4-20.7,18.7-28.7c8.1-8.3,17.9-14.7,28.7-18.7c14.9-5.5,30.6-8.4,46.4-8.6
		C-818.4-4323.8-810.5-4324-743.7-4324 M-743.7-4369.1c-67.9,0-76.4,0.3-103.1,1.5c-20.7,0.4-41.3,4.3-60.7,11.6
		c-16.7,6.3-31.8,16.1-44.3,28.8c-12.7,12.5-22.6,27.6-28.8,44.3c-7.3,19.4-11.2,39.9-11.6,60.7c-1.2,26.7-1.5,35.2-1.5,103.1
		c0,67.9,0.3,76.4,1.5,103.1c0.4,20.7,4.3,41.3,11.6,60.7c6.3,16.7,16.1,31.8,28.8,44.3c12.5,12.7,27.6,22.6,44.3,28.8
		c19.4,7.3,39.9,11.2,60.7,11.6c26.7,1.2,35.2,1.5,103.1,1.5s76.4-0.3,103.1-1.5c20.7-0.4,41.3-4.3,60.7-11.6
		c16.7-6.3,31.8-16.1,44.3-28.8c12.7-12.5,22.6-27.6,28.8-44.3c7.3-19.4,11.2-39.9,11.6-60.7c1.2-26.7,1.5-35.2,1.5-103.1
		c0-67.9-0.3-76.4-1.5-103.1c-0.4-20.7-4.3-41.3-11.6-60.7c-6.3-16.7-16.1-31.8-28.8-44.3c-12.5-12.7-27.6-22.6-44.3-28.8
		c-19.4-7.3-39.9-11.2-60.7-11.6C-667.3-4368.8-675.8-4369.1-743.7-4369.1L-743.7-4369.1z"/>
	<path id="Path_12" class="st0" d="M-743.7-4247.4c-70.9,0-128.4,57.5-128.4,128.4l0,0c0,70.9,57.5,128.4,128.4,128.4c0,0,0,0,0,0
		c70.9,0,128.4-57.5,128.4-128.4l0,0C-615.3-4189.9-672.8-4247.4-743.7-4247.4L-743.7-4247.4z M-743.7-4035.7
		c-46,0-83.3-37.3-83.3-83.3l0,0c0-46,37.3-83.3,83.3-83.3c46,0,83.3,37.3,83.3,83.3C-660.4-4073-697.7-4035.7-743.7-4035.7
		C-743.7-4035.7-743.7-4035.7-743.7-4035.7z"/>
	<ellipse id="Ellipse_3" class="st0" cx="-610.3" cy="-4252.5" rx="30" ry="30"/>
</g>
</svg>
