<svg id="Group_70" data-name="Group 70" xmlns="http://www.w3.org/2000/svg" width="30.993" height="30.994" viewBox="0 0 30.993 30.994">
  <path id="Path_11" data-name="Path 11" d="M310.622-238.6c4.138,0,4.628.016,6.262.09a8.586,8.586,0,0,1,2.878.534,4.8,4.8,0,0,1,1.782,1.159,4.8,4.8,0,0,1,1.159,1.782,8.577,8.577,0,0,1,.534,2.878c.074,1.634.09,2.124.09,6.262s-.016,4.628-.09,6.262a8.574,8.574,0,0,1-.534,2.877,4.8,4.8,0,0,1-1.159,1.782,4.8,4.8,0,0,1-1.782,1.16,8.577,8.577,0,0,1-2.878.533c-1.634.074-2.124.09-6.262.09s-4.628-.016-6.262-.09a8.575,8.575,0,0,1-2.877-.533,4.8,4.8,0,0,1-1.782-1.16,4.8,4.8,0,0,1-1.159-1.782,8.574,8.574,0,0,1-.533-2.877c-.074-1.634-.09-2.124-.09-6.262s.016-4.628.09-6.262a8.577,8.577,0,0,1,.533-2.878,4.8,4.8,0,0,1,1.159-1.782,4.8,4.8,0,0,1,1.782-1.159,8.584,8.584,0,0,1,2.877-.534c1.634-.074,2.124-.09,6.262-.09m0-2.792c-4.208,0-4.736.018-6.389.093a11.366,11.366,0,0,0-3.762.721,7.593,7.593,0,0,0-2.745,1.787,7.6,7.6,0,0,0-1.788,2.745,11.376,11.376,0,0,0-.72,3.762c-.076,1.653-.093,2.181-.093,6.389s.018,4.736.093,6.389a11.376,11.376,0,0,0,.72,3.762A7.6,7.6,0,0,0,297.726-213a7.6,7.6,0,0,0,2.745,1.787,11.377,11.377,0,0,0,3.762.72c1.653.076,2.181.093,6.389.093s4.737-.018,6.389-.093a11.377,11.377,0,0,0,3.762-.72A7.593,7.593,0,0,0,323.518-213a7.592,7.592,0,0,0,1.787-2.745,11.364,11.364,0,0,0,.721-3.762c.075-1.653.093-2.181.093-6.389s-.018-4.737-.093-6.389a11.364,11.364,0,0,0-.721-3.762,7.6,7.6,0,0,0-1.787-2.745,7.589,7.589,0,0,0-2.745-1.787,11.366,11.366,0,0,0-3.762-.721c-1.653-.075-2.181-.093-6.389-.093Z" transform="translate(-295.125 241.391)" fill="#fff9ed"/>
  <path id="Path_12" data-name="Path 12" d="M323.025-221.45a7.958,7.958,0,0,0-7.958,7.958,7.958,7.958,0,0,0,7.958,7.958,7.958,7.958,0,0,0,7.958-7.958A7.958,7.958,0,0,0,323.025-221.45Zm0,13.123a5.165,5.165,0,0,1-5.165-5.165,5.166,5.166,0,0,1,5.165-5.166,5.166,5.166,0,0,1,5.166,5.166A5.165,5.165,0,0,1,323.025-208.327Z" transform="translate(-307.528 228.989)" fill="#fff9ed"/>
  <ellipse id="Ellipse_3" data-name="Ellipse 3" cx="1.86" cy="1.86" rx="1.86" ry="1.86" transform="translate(21.909 5.365)" fill="#fff9ed"/>
</svg>
