<?xml version="1.0" encoding="utf-8"?>
<!-- Generator: Adobe Illustrator 24.0.3, SVG Export Plug-In . SVG Version: 6.00 Build 0)  -->
<svg version="1.1" id="Layer_1" xmlns="http://www.w3.org/2000/svg" xmlns:xlink="http://www.w3.org/1999/xlink" x="0px" y="0px"
	 viewBox="0 0 500 500" style="enable-background:new 0 0 500 500;" xml:space="preserve">
<style type="text/css">
	.st0{fill:#8B8B8B;}
	.st1{fill:#FFFFFF;}
</style>
<path class="st0" d="M138.5,48.6l9.8-8.8c3.9-2.7,9.3-1.8,12,2.1c2.9,3.6,3.9,8.4,2.7,12.8c-1.4,4.4-4.2,8.1-8,10.7
	c-7.8,5.4-18.3,5-25.7-1c-7.4-6.3-9.7-16.7-5.7-25.5c3.9-8.6,11.8-14.9,21.2-16.7c4.6-1.1,9.3-1.2,13.9-0.4
	c4.4,0.8,8.8,1.9,13.1,3.3c4.6,1.8,8.4,5,11.1,9.1c2.6,4.1,4,8.9,4.2,13.7c0.8,8.8,1.2,17.7,1.1,26.6l-6.5-0.2
	c0.3-8.6,0.2-17.3-0.3-25.9c0.1-3.9-0.9-7.8-2.8-11.2c-2-3.3-5-6-8.5-7.6c-7.7-3.4-16.1-4.5-24.4-3.4c-8.2,1.3-15.3,6.5-19,14
	c-3.7,7.6-2,16.7,4.3,22.4c6.6,5.6,16,6.2,23.2,1.5c3.6-2.3,6.3-5.7,7.7-9.7c1.2-4.1,0.4-8.6-2.2-12c-2.5-3.7-7.4-4.8-11.2-2.3
	L138.5,48.6z"/>
<path class="st0" d="M188.7,75.1l-7.5-0.2l0-0.5c0.3-8.6,0.2-17.3-0.3-25.8c0.1-3.9-0.8-7.6-2.7-11c-2-3.2-4.8-5.8-8.3-7.4
	c-7.6-3.3-15.9-4.5-24.2-3.4c-8,1.3-15,6.4-18.6,13.7c-3.6,7.3-1.9,16.3,4.2,21.8c6.4,5.5,15.5,6.1,22.6,1.5
	c3.5-2.2,6.2-5.5,7.5-9.4c1.2-3.9,0.4-8.2-2.1-11.5c-2.3-3.5-7-4.5-10.5-2.2l-10,8.4l-0.7-0.8l9.8-8.8c4.2-2.9,9.9-1.9,12.8,2.2
	c3,3.7,4,8.6,2.8,13.2c-1.4,4.5-4.3,8.4-8.2,11c-8,5.5-18.8,5-26.3-1c-7.5-6.4-9.9-17.1-5.9-26.1c4-8.8,12-15.1,21.5-17
	c4.6-1.1,9.4-1.2,14.1-0.4c4.5,0.8,8.9,1.9,13.2,3.3c4.7,1.9,8.6,5.1,11.4,9.3c2.7,4.2,4.1,9,4.2,14c0.8,8.8,1.2,17.7,1.1,26.6
	L188.7,75.1z M182.2,73.9l5.5,0.1c0.1-8.7-0.3-17.4-1.1-26c-0.1-4.8-1.5-9.5-4.1-13.5c-2.7-4-6.4-7.1-10.9-8.9
	c-4.2-1.4-8.6-2.5-13-3.3c-4.6-0.8-9.2-0.6-13.7,0.4c-9.2,1.8-16.9,7.9-20.8,16.4c-3.9,8.6-1.6,18.8,5.6,24.9
	c7.2,5.8,17.5,6.2,25.1,1c3.7-2.5,6.5-6.2,7.8-10.4c0.6-2.2,0.6-4.5,0.1-6.7c0.4,2.2,0.4,4.5-0.3,6.7c-1.5,4.1-4.3,7.6-8,9.9
	c-7.5,4.8-17,4.2-23.8-1.6c-6.4-5.8-8.2-15.2-4.4-23c3.8-7.6,11-12.9,19.4-14.3c8.4-1.1,16.9,0.1,24.7,3.5c3.6,1.7,6.7,4.4,8.7,7.8
	c2,3.5,2.9,7.5,2.8,11.5C182.4,56.9,182.5,65.5,182.2,73.9z"/>
<path class="st0" d="M233.1,60.7l4.6,7.5c1.3,2.7,3.5,4.7,6.3,5.6c5.9,1.9,11-2.9,14.1-7.5c3.2-4.8,4.4-10.7,3.5-16.4
	c-0.6-2.7-2.1-5.1-4.4-6.7c-2.5-1.4-5.1-2.4-7.9-2.9c-2.8-0.7-5.7-1.5-8.5-1.9c-2.7,0-5.4,0.3-8.1,0.9c-5.4,2.2-10.6,4.8-15.6,7.8
	c-9.5,6.4-17.8,15-26.7,22.5l0.4-0.4l-36.6,58.7l-5.5-3.5l38.4-57.5l0.2-0.3l0.2-0.1c9.4-7.3,17.8-15.6,28-22.1
	c5.2-2.9,10.7-5.4,16.3-7.5c3.1-0.7,6.3-0.9,9.4-0.7c3,0.6,5.8,1.4,8.7,2.2c3,0.6,5.9,1.8,8.5,3.4c2.5,1.9,4.3,4.8,4.8,7.9
	c0.8,6.1-0.7,12.2-4.3,17.3c-3.2,4.7-8.9,9.6-15.1,7.4c-2.9-1-5.2-3.2-6.4-5.9L233.1,60.7z"/>
<path class="st0" d="M154.5,128.5l-6.3-4.1l39.1-58.3l0.2-0.1c3.3-2.6,6.5-5.3,9.7-8c5.8-4.9,11.8-9.9,18.4-14.1
	c5.3-2.9,10.8-5.5,16.4-7.5c3.2-0.7,6.4-0.9,9.6-0.8c3,0.6,5.6,1.3,8.8,2.3c3,0.7,5.9,1.8,8.6,3.5c2.7,2.1,4.5,5,5.1,8.3
	c0.8,6.2-0.7,12.5-4.3,17.6c-1.7,2.5-7.9,10.4-15.7,7.6c-3-1.1-5.4-3.3-6.7-6.2l-4.4-7.6l0.9-0.5l4.6,7.5c1.2,2.6,3.4,4.5,6.1,5.3
	c6.5,2.1,11.6-4.4,13.5-7.3c3.1-4.7,4.3-10.4,3.5-16c-0.5-2.6-2-4.8-4.2-6.4c-2.4-1.3-5-2.3-7.7-2.8c-2.5-0.6-5.6-1.4-8.5-1.9
	c-2.6,0-5.3,0.3-7.9,0.9c-5.3,2.2-10.5,4.8-15.4,7.7c-6.1,4.1-11.8,9.3-17.3,14.3c-2.9,2.6-6,5.4-9.1,7.9L154.5,128.5z M149.5,124.1
	l4.6,3l36.1-57.8l-0.1-0.1l0.4-0.4l0.1,0.1c3-2.5,6-5.2,8.9-7.8c5.6-5,11.3-10.2,17.5-14.4c5-3,10.3-5.6,15.6-7.8
	c2.8-0.6,5.5-0.9,8.3-0.9c3,0.5,6.1,1.3,8.6,1.9c2.8,0.5,5.5,1.5,8,2.9c2.4,1.7,4,4.2,4.6,7c0.9,5.9-0.4,11.8-3.6,16.7
	c-0.6,0.9-1.4,2-2.5,3.2c1.2-1.2,2.1-2.4,2.6-3.2c3.5-4.9,4.9-10.9,4.2-16.9c-0.5-3-2.2-5.7-4.6-7.6c-2.5-1.6-5.3-2.7-8.3-3.3
	c-3.2-0.9-5.8-1.7-8.7-2.2c-3-0.2-6.2,0.1-9.2,0.7c-5.5,2-10.9,4.6-16.1,7.4c-6.6,4.1-12.5,9.2-18.3,14c-3.1,2.7-6.4,5.4-9.7,8
	l-0.1,0.1l-0.2,0.2L149.5,124.1z"/>
<ellipse transform="matrix(0.1514 -0.9885 0.9885 0.1514 -329.721 508.2547)" class="st1" cx="131.2" cy="446.2" rx="28.8" ry="33.2"/>
<path class="st0" d="M132.6,475.5c-1.9,0-3.9-0.1-5.9-0.5c-8.9-1.4-16.8-5.6-22.3-12.1c-5.5-6.4-7.8-14.2-6.7-22l0.5,0.1l-0.5-0.1
	c1.2-7.7,5.8-14.5,12.9-19c7.1-4.5,15.9-6.2,24.8-4.8c8.9,1.4,16.8,5.6,22.3,12.1c5.5,6.4,7.8,14.2,6.7,22
	C162.3,465.5,148.6,475.5,132.6,475.5z M129.6,417.8c-6.6,0-13,1.8-18.4,5.1c-6.9,4.3-11.3,10.8-12.5,18.3l0,0
	c-1.1,7.4,1.1,15,6.4,21.2c5.3,6.2,13,10.4,21.6,11.7c17.8,2.7,34.3-7.6,36.6-23c1.1-7.4-1.1-15-6.4-21.2
	c-5.3-6.2-13-10.4-21.6-11.7C133.5,417.9,131.6,417.8,129.6,417.8z"/>
<path class="st0" d="M132.6,478.3c-2.1,0-4.2-0.2-6.3-0.5c-19.9-3.1-33.9-19.7-31.2-37.2c2.7-17.4,21-29.1,40.9-26.1
	c19.9,3,33.9,19.7,31.2,37.2l0,0C163.8,467.9,149.1,479.2,132.6,478.3z M129.7,420.6c-13.3-0.9-25.2,8.1-28.2,21.1
	c-2.1,13.9,9.4,27.2,25.8,29.7s31.3-6.8,33.5-20.7l0,0c2.1-13.9-9.4-27.2-25.8-29.7C133.2,420.7,131.5,420.6,129.7,420.6
	L129.7,420.6z"/>
<path class="st0" d="M134.4,478.8c-0.6,0-1.2,0-1.8,0c-2.1,0-4.3-0.2-6.3-0.5c-20.2-3.1-34.4-20-31.6-37.7
	c2.7-17.7,21.3-29.6,41.5-26.5c10.5,1.6,19.9,7.1,25.7,15.1c5,6.8,7.1,14.8,5.9,22.7C164.3,467.7,150.5,478.8,134.4,478.8z
	 M129.8,414.5c-17.1,0-31.9,10.8-34.2,26.2c-2.6,17.2,11.2,33.6,30.8,36.6c2.1,0.3,4.1,0.5,6.2,0.5l0,0
	c16.4,0.8,30.7-10.2,34.1-26.2c1.2-7.6-0.9-15.3-5.7-21.9c-5.7-7.8-14.9-13.1-25.1-14.7C133.9,414.7,131.8,414.5,129.8,414.5z
	 M132.7,472.3c-1.8,0-3.6-0.1-5.4-0.4c-8-1.2-15.2-5.1-20.1-10.8c-5-5.7-7.1-12.7-6.1-19.5c3-13.3,15.1-22.4,28.7-21.5l0.3,0
	c1.7,0,3.4,0.1,5,0.4c16.6,2.5,28.4,16.1,26.2,30.3c-1.1,6.9-5.2,12.8-11.6,16.8C144.7,470.7,138.8,472.3,132.7,472.3z M127.9,421
	c-12.4,0-23.1,8.5-25.9,20.7c-1,6.5,1.1,13.2,5.8,18.7c4.8,5.5,11.7,9.2,19.5,10.4c7.8,1.2,15.5-0.3,21.7-4.1
	c6.2-3.8,10.2-9.6,11.2-16.1c2.1-13.6-9.3-26.7-25.4-29.2c-1.7-0.3-3.5-0.4-5.2-0.4l-0.5,0v0C128.8,421,128.3,421,127.9,421z"/>
<ellipse transform="matrix(0.9222 -0.3868 0.3868 0.9222 -144.1881 97.5594)" class="st1" cx="170.3" cy="407" rx="33.2" ry="28.8"/>
<path class="st0" d="M167,437c-12.2,0-23.3-6.2-27.8-16.9c-6.2-14.9,2.6-32.8,19.8-40l0,0c17.2-7.2,36.2-0.9,42.4,13.9
	c6.2,14.9-2.6,32.8-19.8,40C176.8,436,171.8,437,167,437z M159.4,381c-16.6,7-25.3,24.3-19.3,38.7c6,14.4,24.5,20.4,41.1,13.4
	c16.6-7,25.3-24.3,19.3-38.7C194.4,380,176,374,159.4,381L159.4,381z"/>
<path class="st0" d="M167,439.7c-13,0.5-24.9-6.8-30.4-18.6c-3.3-8.2-2.9-17.4,1.2-25.2c4.3-8.3,11.4-14.9,20.1-18.4
	c18.6-7.8,39.2-0.9,46,15.4l0,0c6.8,16.3-2.7,35.9-21.3,43.6C177.7,438.6,172.4,439.7,167,439.7z M173.6,380.8
	c-4.5,0-9,0.9-13.2,2.7c-7.2,2.9-13.2,8.4-16.8,15.3c-3.3,6.1-3.6,13.4-1,19.8c5.4,13,22.3,18.3,37.5,11.9
	c15.2-6.4,23.2-22.1,17.8-35.1l0,0C193.5,386.1,183.9,380.3,173.6,380.8z"/>
<path class="st0" d="M165.7,440.3c-12.7,0-24.2-7.3-29.5-18.9c-3.4-8.4-3-17.7,1.2-25.7c4.3-8.4,11.5-15.1,20.3-18.6
	c18.8-7.9,39.7-0.9,46.7,15.7c3.4,8,3,17-1.1,25.4c-4.1,8.4-11.3,15.1-20.4,18.9c-5,2.1-10.4,3.2-15.9,3.2
	C166.6,440.3,166.2,440.3,165.7,440.3z M173.6,374.8c-5.1,0-10.4,1-15.5,3.2c-8.6,3.5-15.6,9.9-19.8,18.2c-4,7.7-4.5,16.8-1.2,24.8
	c5.4,11.6,17.1,18.8,29.9,18.3h0c5.3,0,10.6-1.1,15.5-3.2c8.9-3.7,15.9-10.2,19.9-18.4c4-8.1,4.4-16.9,1.1-24.6
	C198.6,381.6,186.7,374.8,173.6,374.8z M167,433.8c-4,0-7.9-0.7-11.5-2.2c-6.2-2.5-10.9-7-13.2-12.7c-2.7-6.6-2.3-14,1.1-20.3
	c3.6-7,9.7-12.6,17-15.5c4.2-1.8,8.7-2.7,13.3-2.7c10.5-0.5,20.3,5.4,24.8,14.9c5.5,13.2-2.6,29.3-18,35.8
	C176,432.8,171.4,433.8,167,433.8z M174.8,381.3c-0.4,0-0.8,0-1.2,0l0,0c-4.5,0-8.8,0.9-13,2.7c-7.1,2.9-13,8.2-16.5,15.1
	c-3.2,6-3.6,13.1-1,19.4c2.3,5.4,6.8,9.8,12.7,12.2c7.4,3,16.2,2.8,24.2-0.5c15-6.3,22.8-21.8,17.5-34.5
	C193.3,386.8,184.5,381.3,174.8,381.3z"/>
<ellipse transform="matrix(0.9222 -0.3868 0.3868 0.9222 -125.0182 88.4516)" class="st1" cx="157.3" cy="354.8" rx="33.2" ry="28.8"/>
<path class="st0" d="M154,384.8c-12.2,0-23.3-6.2-27.8-16.9c-3-7.2-2.6-15.4,1.1-22.9c3.7-7.5,10.4-13.6,18.7-17.1l0,0
	c17.1-7.2,36.2-0.9,42.4,13.9c3,7.2,2.6,15.4-1.1,22.9c-3.7,7.5-10.4,13.6-18.7,17.1C163.7,383.8,158.8,384.8,154,384.8z
	 M160.6,325.9c-4.7,0-9.5,0.9-14.2,2.9c-8.1,3.4-14.5,9.3-18.2,16.6c-3.6,7.3-4,15.2-1.1,22.1c6,14.4,24.5,20.4,41.1,13.4
	c8.1-3.4,14.5-9.3,18.2-16.6c3.6-7.3,4-15.2,1.1-22.1C183.1,331.9,172.4,325.9,160.6,325.9z"/>
<path class="st0" d="M154,387.6c-13,0.5-24.9-6.8-30.4-18.6c-3.3-8.2-2.9-17.4,1.2-25.2c4.3-8.3,11.4-14.9,20.1-18.4
	c18.6-7.8,39.2-0.9,46,15.4l0,0c6.8,16.3-2.7,35.9-21.3,43.6C164.7,386.5,159.4,387.5,154,387.6z M160.6,328.6
	c-4.5,0-9,0.9-13.2,2.7c-7.2,2.9-13.2,8.4-16.8,15.3c-3.3,6.1-3.6,13.4-1,19.8c5.4,13,22.3,18.3,37.5,11.9s23.2-22.1,17.8-35.1l0,0
	C180.5,333.9,170.9,328.1,160.6,328.6L160.6,328.6z"/>
<path class="st0" d="M152.7,388.1c-12.7,0-24.2-7.3-29.5-18.9c-3.4-8.4-3-17.7,1.2-25.7c4.3-8.4,11.5-15.1,20.3-18.6
	c18.8-7.9,39.8-0.8,46.7,15.7c3.4,8,3,17-1.1,25.4c-4.1,8.4-11.3,15.1-20.4,18.9c-5,2.1-10.4,3.2-15.9,3.2
	C153.5,388.1,153.1,388.1,152.7,388.1z M160.5,322.6c-5.1,0-10.4,1-15.5,3.2c-8.6,3.5-15.6,9.9-19.8,18.2c-4,7.7-4.5,16.8-1.2,24.8
	c5.4,11.6,17.1,18.8,29.9,18.3h0c5.3,0,10.6-1.1,15.5-3.2c8.9-3.7,15.9-10.2,19.9-18.4c4-8.1,4.4-16.9,1.1-24.6
	C185.6,329.4,173.7,322.6,160.5,322.6z M153.9,381.6c-3.2,0-6.4-0.5-9.4-1.4c-7.2-2.3-12.7-7.1-15.4-13.5c-2.7-6.6-2.3-14,1.1-20.3
	c3.6-7,9.7-12.6,17-15.5c4.2-1.8,8.7-2.7,13.4-2.7h0c10.5-0.5,20.3,5.4,24.8,14.9c5.5,13.2-2.6,29.3-18,35.8
	C163,380.7,158.4,381.6,153.9,381.6z M161.8,329.1c-0.4,0-0.8,0-1.2,0l0,0c-4.5,0-8.9,0.9-13,2.7c-7.1,2.9-13,8.2-16.5,15.1
	c-3.2,6-3.6,13.1-1,19.4c2.6,6.1,7.8,10.7,14.8,12.9c7,2.2,14.8,1.8,22.1-1.3c15-6.3,22.8-21.7,17.5-34.5
	C180.3,334.6,171.5,329.1,161.8,329.1z"/>
<ellipse transform="matrix(0.995 -9.996231e-02 9.996231e-02 0.995 -29.3824 17.2216)" class="st1" cx="157.2" cy="301.8" rx="33.2" ry="29.6"/>
<path class="st0" d="M156.4,332c-16.9,0-31.2-11.4-32.8-26.8c-0.8-8,1.9-15.9,7.7-22.2c5.8-6.3,13.9-10.2,22.8-11.1l0,0
	c8.9-0.9,17.7,1.4,24.6,6.4c6.9,5,11.2,12.2,12,20.2c1.7,16.5-12,31.5-30.5,33.3C158.9,331.9,157.6,332,156.4,332z M154.2,272.8
	c-8.7,0.9-16.6,4.7-22.2,10.8c-5.6,6.1-8.2,13.7-7.5,21.4c1.6,16,17.5,27.5,35.5,25.7c18-1.8,31.3-16.3,29.6-32.2
	c-0.8-7.7-4.9-14.7-11.6-19.5C171.4,274.2,163,272,154.2,272.8L154.2,272.8z"/>
<path class="st0" d="M156.4,334.7c-17.6,0.8-32.9-11.9-35.5-29.3c-0.8-8.9,2.2-17.8,8.4-24.3c13.4-14.1,35.1-16.3,51.1-5.1
	c7.4,5.1,12.2,13.2,13.1,22.2c0.9,19.1-13.9,35.4-33,36.3C159.1,334.6,157.7,334.7,156.4,334.7z M158,275.4c-1.1,0-2.3,0.1-3.4,0.2
	c-7.8,0.7-15.1,4.2-20.4,9.9c-4.9,5.2-7.4,12.2-6.7,19.3c3.8,16.2,20,26.3,36.3,22.6c13.4-3.1,22.9-14.8,23.3-28.6
	c-0.8-7.1-4.6-13.5-10.4-17.5C171.1,277.4,164.6,275.4,158,275.4z"/>
<path class="st0" d="M154.8,335.3c-17.2,0-31.9-12.5-34.5-29.7c-0.9-9.1,2.3-18.1,8.6-24.7c13.7-14.4,35.4-16.5,51.7-5.2
	c7.5,5.2,12.3,13.4,13.3,22.5c0.9,19.4-14.2,35.9-33.5,36.9c-1.3,0.1-2.7,0.2-4.1,0.2C155.9,335.2,155.3,335.3,154.8,335.3z
	 M157.8,269.3c-10.3,0-20.5,4.1-28.1,12.1c-6.1,6.4-9.1,15.1-8.3,23.9c2.6,17.2,17.6,29.6,35,28.8h0c1.3,0,2.7-0.1,4-0.2
	c18.8-1,33.4-17,32.6-35.8c-0.9-8.8-5.6-16.7-12.9-21.8C173.3,271.7,165.5,269.3,157.8,269.3z M156.8,328.7
	c-13.9,0-26.6-9.6-29.9-23.7c-0.7-7.3,1.8-14.5,6.9-19.7c5.5-5.8,12.8-9.4,20.8-10.1c1.4-0.1,2.6-0.2,3.8-0.2
	c6.7,0,13.1,2.1,18.6,5.9c6,4.1,9.9,10.7,10.6,17.9c-0.4,14-10.1,25.9-23.7,29.1C161.4,328.4,159.1,328.7,156.8,328.7z M158,275.9
	c-1,0-2.1,0.1-3.4,0.2c-7.7,0.7-14.8,4.2-20.1,9.8c-4.8,5.1-7.2,11.9-6.6,18.9c3.7,15.9,19.7,25.8,35.7,22.1
	c13.1-3.1,22.6-14.6,23-28.1c-0.8-6.9-4.5-13.1-10.2-17.1C170.9,277.8,164.6,275.9,158,275.9L158,275.9z"/>
<ellipse transform="matrix(0.9474 -0.3201 0.3201 0.9474 -87.0429 48.6329)" class="st1" cx="104.4" cy="289.1" rx="25.7" ry="33.2"/>
<path class="st0" d="M108.5,322.1c-4.7,0-9.5-1.5-14.1-4.6c-6.7-4.4-12-11.6-14.8-20.1s-3-17.4-0.4-25c2.6-7.6,7.8-13.1,14.4-15.3
	c13.7-4.6,29.7,5.9,35.6,23.5c2.9,8.5,3,17.4,0.4,25c-2.6,7.6-7.8,13.1-14.4,15.3C113,321.7,110.8,322.1,108.5,322.1z M100.3,257
	c-2.1,0-4.3,0.3-6.4,1c-6.4,2.1-11.3,7.4-13.8,14.7c-2.6,7.4-2.4,16,0.4,24.3c2.8,8.3,7.9,15.3,14.5,19.6c6.5,4.3,13.5,5.5,19.9,3.3
	c6.4-2.1,11.3-7.4,13.8-14.7c2.6-7.4,2.4-16-0.4-24.3C123.4,266.6,111.7,257,100.3,257z"/>
<path class="st0" d="M108.6,324.9c-15-1.4-27.7-11.9-31.6-26.5c-6.4-19,0.6-38.7,15.8-43.8l0,0c15.2-5.1,32.7,6.2,39.1,25.3
	c6.4,19.1-0.7,38.7-15.8,43.8C113.7,324.5,111.1,324.9,108.6,324.9z M94.8,260.7c-11.7,4-17,19.9-11.7,35.6
	c5.3,15.6,19.2,25.2,30.9,21.2s17-19.9,11.7-35.6C120.4,266.2,106.6,256.7,94.8,260.7z"/>
<path class="st0" d="M108.6,325.4C108.6,325.4,108.6,325.4,108.6,325.4L108.6,325.4c-15.3-1.4-28.1-12.2-32.1-26.9
	c-3.1-9.3-3.2-19-0.2-27.4c3-8.4,8.8-14.5,16.3-17c15.4-5.2,33.2,6.3,39.8,25.6c6.5,19.3-0.7,39.3-16.1,44.5
	C113.8,325,111.2,325.4,108.6,325.4z M108.6,324.4C108.6,324.4,108.6,324.4,108.6,324.4c2.5,0,5-0.4,7.3-1.2
	c14.9-5,21.8-24.4,15.5-43.2c-6.4-18.8-23.6-30-38.5-25c-7.2,2.4-12.7,8.2-15.7,16.4c-2.9,8.2-2.9,17.7,0.2,26.8
	C81.3,312.5,93.8,323,108.6,324.4z M108.5,318.8c-3.1,0-6.2-0.8-9.3-2.3c-7.3-3.6-13.5-11.1-16.5-20.1c-5.4-15.9,0-32.1,12-36.2l0,0
	c12-4,26.1,5.6,31.5,21.5c5.4,15.9,0,32.1-12,36.2C112.3,318.5,110.4,318.8,108.5,318.8z M95,261.1c-11.5,3.9-16.6,19.6-11.4,34.9
	c3,8.8,8.9,16.1,16,19.6c4.8,2.4,9.8,2.8,14.2,1.3c11.5-3.9,16.6-19.6,11.4-34.9C120,266.7,106.5,257.3,95,261.1L95,261.1z"/>
<ellipse transform="matrix(0.3937 -0.9193 0.9193 0.3937 -168.7816 221.1168)" class="st1" cx="83.2" cy="238.5" rx="33.2" ry="25.7"/>
<path class="st0" d="M78.2,271.2c-2.8,0-5.6-0.5-8.3-1.7c-6.5-2.8-11.1-8.6-13.2-16.4c-2-7.8-1.2-16.6,2.3-24.9
	c7.3-17.1,24.1-26.4,37.4-20.7c6.5,2.8,11.1,8.6,13.2,16.4c2,7.8,1.2,16.6-2.3,24.9C101.5,262.5,89.6,271.2,78.2,271.2z M88.2,206.8
	c-10.9,0-22.5,8.4-28.2,21.8c-3.4,8.1-4.3,16.7-2.3,24.2c2,7.5,6.4,13.1,12.6,15.8c12.8,5.5,29-3.6,36.1-20.2
	c3.4-8.1,4.3-16.7,2.3-24.2c-2-7.5-6.4-13.1-12.6-15.8C93.6,207.3,90.9,206.8,88.2,206.8z"/>
<path class="st0" d="M78.3,274c-3.2,0-6.4-0.6-9.4-1.9c-14.7-6.3-20.2-26.5-12.3-44.9s26.4-28.4,41-22.1l0,0
	c14.7,6.3,20.2,26.5,12.3,45c-3.5,8.5-9.7,15.6-17.6,20.2C88,272.6,83.2,273.9,78.3,274z M88.2,209.6c-11.7,1.2-21.7,9-25.6,20.1
	c-6.5,15.2-2.5,31.5,8.8,36.4c5.8,2.3,12.4,1.7,17.7-1.6c6.7-3.9,11.9-9.9,14.8-17.1c6.5-15.2,2.5-31.5-8.9-36.4
	C92.8,210,90.5,209.6,88.2,209.6L88.2,209.6z"/>
<path class="st0" d="M78.2,274.5c-3.3,0-6.5-0.7-9.6-2c-7.2-3.1-12.5-9.6-14.9-18.2c-2.4-8.6-1.5-18.3,2.4-27.4
	c8-18.7,26.7-28.8,41.7-22.4c14.9,6.4,20.6,26.9,12.6,45.6c-3.5,8.5-9.8,15.8-17.8,20.4C88.2,273,83.3,274.4,78.2,274.5L78.2,274.5
	C78.3,274.5,78.2,274.5,78.2,274.5z M88.3,203.6c-12.2,0-25,9.2-31.2,23.7c-3.8,8.8-4.6,18.3-2.3,26.7c2.3,8.3,7.4,14.6,14.3,17.6
	c2.9,1.2,6,1.8,9.2,1.9c4.8-0.1,9.6-1.4,13.8-3.8c7.8-4.5,14-11.6,17.4-20c7.8-18.2,2.4-38.1-12-44.3
	C94.5,204.2,91.4,203.6,88.3,203.6z M78.6,267.9c-2.5,0-5-0.5-7.4-1.4c-5.7-2.4-9.7-7.6-11.4-14.7c-1.7-7-0.9-14.9,2.3-22.4
	c4-11.2,14.2-19.2,26-20.4l0,0.1l0-0.1l0,0.1l0-0.1c0,0,0.1,0,0.1,0c2.4,0,4.7,0.5,7,1.4c5.7,2.4,9.7,7.6,11.5,14.7
	c1.7,7,0.9,14.9-2.3,22.4c-2.9,7.2-8.3,13.4-15,17.3C86.1,266.9,82.4,267.9,78.6,267.9z M88.2,210.1c-11.4,1.2-21.3,8.9-25.1,19.8
	c-3.1,7.3-3.9,15-2.3,21.8c1.6,6.7,5.5,11.7,10.8,14c5.6,2.2,12.1,1.6,17.2-1.6c6.5-3.8,11.7-9.8,14.6-16.8c3.1-7.3,3.9-15,2.3-21.8
	c-1.6-6.7-5.5-11.7-10.9-14C92.7,210.5,90.5,210,88.2,210.1z"/>
<ellipse class="st1" cx="147.5" cy="241.4" rx="38.3" ry="36.2"/>
<path class="st0" d="M147.5,278.1c-21.4,0-38.8-16.4-38.8-36.7s17.4-36.7,38.8-36.7s38.8,16.4,38.8,36.7S168.9,278.1,147.5,278.1z
	 M147.5,205.8c-20.9,0-37.8,16-37.8,35.7s17,35.7,37.8,35.7c20.9,0,37.8-16,37.8-35.7S168.4,205.8,147.5,205.8z"/>
<path class="st0" d="M147.5,280.9c-21.8-1.2-38.5-19.8-37.3-41.6c1.2-21.8,19.8-38.5,41.6-37.3c20.9,1.1,37.4,18.4,37.4,39.4
	C188.5,263.8,169.9,281.4,147.5,280.9z M147.5,208.5c-18.2,1.2-32,16.8-30.8,35c1.2,18.2,16.8,32,35,30.8
	c17.4-1.1,30.9-15.5,30.9-32.9C182,222.7,166.3,208,147.5,208.5z"/>
<path class="st0" d="M148.6,281.4c-0.3,0-0.7,0-1,0l0,0c-10.7-0.6-20.5-5.3-27.6-13.2s-10.7-18.2-10.2-28.9
	c1.2-22,20-38.9,42.1-37.8c21.2,1.1,37.8,18.7,37.8,39.9C189,263.7,170.7,281.4,148.6,281.4z M147.6,280.4
	c22,0.6,40.5-16.9,41.1-38.9c0-20.7-16.2-37.8-36.9-38.9c-21.5-1.2-39.9,15.4-41,36.8c-0.6,10.4,3,20.4,9.9,28.1
	C127.6,275.2,137.2,279.8,147.6,280.4z M149.6,274.9c-17.5,0-32.2-13.6-33.4-31.3c-1.2-18.4,12.8-34.4,31.3-35.5l0,0
	c19-0.6,35,14.4,35.6,33.4c0,17.6-13.8,32.3-31.3,33.4C151.1,274.9,150.3,274.9,149.6,274.9z M147.6,209
	c-17.9,1.2-31.5,16.6-30.3,34.5c1.1,17.9,16.6,31.5,34.5,30.3c17-1.1,30.4-15.3,30.4-32.4C181.5,223,166,208.5,147.6,209z"/>
<ellipse transform="matrix(0.9474 -0.3201 0.3201 0.9474 -119.9023 58.5386)" class="st1" cx="118.1" cy="394" rx="28.7" ry="33.2"/>
<path class="st0" d="M120.6,427.3c-4.9,0-9.9-1.4-14.5-4.1c-7.3-4.3-12.8-11.3-15.7-19.8c-2.9-8.5-2.7-17.5,0.5-25.3
	c3.2-7.8,9-13.5,16.4-16c15.3-5.2,32.5,5,38.5,22.6c2.9,8.5,2.7,17.5-0.5,25.3c-3.2,7.8-9,13.5-16.4,16
	C126.2,426.8,123.4,427.3,120.6,427.3z M115.5,361.7c-2.6,0-5.3,0.4-7.9,1.3c-7.1,2.4-12.8,7.9-15.8,15.4
	c-3.1,7.6-3.2,16.3-0.4,24.6c2.8,8.3,8.2,15.1,15.3,19.3c7,4.1,14.8,5.1,22,2.7c7.1-2.4,12.8-7.9,15.8-15.4
	c3.1-7.6,3.2-16.3,0.4-24.6C140.1,370.8,127.9,361.7,115.5,361.7z"/>
<path class="st0" d="M120.7,430c-15.3-0.8-28.5-11.1-32.9-25.8c-3.1-8.8-2.9-18.5,0.5-27.2c5.6-15.2,22.5-22.9,37.7-17.3
	c1.9,0.7,3.7,1.6,5.5,2.7c16.4,10.1,23.3,30.5,16.4,48.6c-3.2,8.2-9.8,14.7-18.1,17.6C126.9,429.5,123.8,430,120.7,430z
	 M115.6,364.4c-2.4,0-4.8,0.4-7.1,1.2c-6.5,2.3-11.7,7.4-14.2,13.9c-2.8,7.3-3,15.3-0.4,22.7c5.3,15.7,20.5,24.7,33.7,20.2
	c6.5-2.3,11.7-7.4,14.2-13.9c5.6-15-0.1-31.9-13.7-40.5C124.4,365.7,120,364.5,115.6,364.4L115.6,364.4z"/>
<path class="st0" d="M120.7,430.5C120.7,430.5,120.7,430.5,120.7,430.5L120.7,430.5c-15.6-0.8-29-11.3-33.4-26.2
	c-3.1-8.9-2.9-18.7,0.5-27.6c5.7-15.4,22.9-23.3,38.4-17.6c1.9,0.7,3.8,1.6,5.5,2.7c16.6,10.3,23.6,30.9,16.6,49.2
	c-3.2,8.4-9.9,14.9-18.4,17.9C127,430,123.9,430.5,120.7,430.5z M120.7,429.5C120.7,429.5,120.7,429.5,120.7,429.5
	c3,0,6-0.5,8.9-1.5c8.2-2.9,14.7-9.2,17.8-17.3c6.8-17.8,0-38-16.2-48c-1.7-1.1-3.5-2-5.4-2.7c-14.9-5.5-31.6,2.1-37.1,17
	c-3.4,8.6-3.6,18.2-0.5,26.9C92.6,418.6,105.6,428.8,120.7,429.5z M120.7,424c-3.7,0-7.5-0.9-11.1-2.7c-7.4-3.6-13.3-10.6-16.1-19.1
	c-2.6-7.5-2.5-15.6,0.4-23c2.5-6.6,7.8-11.8,14.5-14.2c2.3-0.8,4.7-1.2,7.2-1.2c0,0,0,0,0,0l0.5,0c4.4,0.1,8.6,1.4,12.4,3.6
	c13.7,8.6,19.6,25.9,13.9,41.1c-2.5,6.6-7.8,11.8-14.5,14.2C125.5,423.6,123.1,424,120.7,424z M115.1,364.9c-2.2,0-4.3,0.4-6.4,1.1
	c-6.4,2.3-11.5,7.2-13.9,13.6c-2.8,7.2-2.9,15.1-0.4,22.3c2.8,8.2,8.5,15,15.6,18.5c5.7,2.8,11.9,3.3,17.5,1.4
	c6.4-2.3,11.5-7.2,13.9-13.6c5.5-14.7-0.1-31.5-13.5-39.9c-3.7-2.2-8-3.4-12.4-3.5L115.1,364.9z"/>
<ellipse transform="matrix(0.9474 -0.3201 0.3201 0.9474 -102.3005 55.3155)" class="st1" cx="117.1" cy="338.8" rx="26" ry="30.1"/>
<path class="st0" d="M119.4,369c-4.5,0-9-1.3-13.2-3.7c-6.6-3.9-11.6-10.3-14.3-18s-2.5-15.9,0.4-22.9c2.9-7.1,8.2-12.3,14.9-14.5
	l0,0c6.7-2.3,14.1-1.4,20.7,2.5c6.6,3.9,11.6,10.3,14.3,18s2.5,15.9-0.4,22.9c-2.9,7.1-8.2,12.3-14.9,14.5
	C124.4,368.6,121.9,369,119.4,369z M114.8,309.6c-2.4,0-4.8,0.4-7.2,1.2l0,0c-6.4,2.2-11.5,7.1-14.3,14c-2.8,6.8-2.9,14.7-0.4,22.2
	c2.5,7.5,7.4,13.7,13.8,17.4c6.4,3.7,13.4,4.6,19.8,2.4c6.4-2.2,11.5-7.1,14.3-14c2.8-6.8,2.9-14.7,0.4-22.2
	c-2.5-7.5-7.4-13.7-13.8-17.4C123.4,310.8,119.1,309.6,114.8,309.6z"/>
<path class="st0" d="M119.4,371.8c-5.1,0-10.2-1.5-14.6-4.1c-15-9.3-21.3-27.9-15-44.4c5.2-13.9,20.7-21,34.6-15.8
	c1.7,0.6,3.4,1.5,5,2.5c15,9.3,21.3,27.9,15,44.4c-2.9,7.5-9,13.4-16.6,16.1C125.1,371.3,122.2,371.8,119.4,371.8z M114.8,312.4
	c-2.1,0-4.3,0.3-6.3,1c-5.8,2.1-10.5,6.6-12.7,12.4c-5,13.5,0.1,28.6,12.3,36.3c9.5,6.1,22.1,3.4,28.2-6.1c0.8-1.3,1.5-2.7,2-4.1
	c5.1-13.5-0.1-28.6-12.3-36.3C122.7,313.5,118.8,312.4,114.8,312.4z"/>
<path class="st0" d="M119.4,372.3C119.4,372.3,119.4,372.3,119.4,372.3L119.4,372.3c-5.3,0-10.4-1.5-14.9-4.2
	c-15.2-9.4-21.6-28.3-15.2-45c2.5-6.9,7.6-12.3,14.3-15.3c6.7-3,14.1-3.3,20.9-0.8c1.8,0.7,3.5,1.5,5.1,2.5
	c15.2,9.4,21.6,28.3,15.2,45c-2.9,7.7-9.1,13.7-16.9,16.4C125.2,371.8,122.3,372.3,119.4,372.3z M119.4,371.3
	C119.4,371.3,119.4,371.3,119.4,371.3c2.8,0,5.6-0.5,8.2-1.3c7.5-2.6,13.4-8.4,16.3-15.8c6.2-16.2,0-34.6-14.8-43.8
	c-1.5-1-3.2-1.8-4.9-2.4c-6.6-2.5-13.8-2.2-20.2,0.7c-6.4,2.9-11.3,8.2-13.8,14.8c-6.2,16.2,0,34.6,14.8,43.8
	C109.4,369.9,114.3,371.3,119.4,371.3z M119.1,365.8c-4,0-7.9-1.1-11.3-3.3c-12.3-7.7-17.5-23.2-12.4-36.8c2.3-5.9,7-10.6,13-12.7
	c2.1-0.7,4.2-1.1,6.4-1.1c0,0,0,0,0,0h0c4.1,0,8.1,1.2,11.5,3.3c12.3,7.7,17.6,23.2,12.5,36.9c-0.5,1.5-1.2,2.9-2.1,4.2
	c-3,4.7-7.7,7.9-13.1,9.1C122.1,365.6,120.6,365.8,119.1,365.8z M114.8,312.9c-2.1,0-4.1,0.3-6.1,1c-5.7,2-10.2,6.4-12.3,12.1
	c-4.9,13.2,0.1,28.2,12,35.6c4.5,2.9,9.8,3.9,15,2.7c5.2-1.1,9.6-4.2,12.5-8.7c0.8-1.3,1.5-2.6,2-4c5-13.2-0.1-28.2-12-35.7
	C122.5,314,118.7,312.9,114.8,312.9C114.8,312.9,114.8,312.9,114.8,312.9z"/>
<circle class="st1" cx="204.9" cy="332.6" r="32.6"/>
<path class="st0" d="M204.9,365.7c-18.3,0-33.1-14.9-33.1-33.1c0-18.3,14.9-33.1,33.1-33.1c18.3,0,33.1,14.9,33.1,33.1
	C238,350.8,223.1,365.7,204.9,365.7z M204.9,300.5c-17.7,0-32.1,14.4-32.1,32.1s14.4,32.1,32.1,32.1c17.7,0,32.1-14.4,32.1-32.1
	S222.6,300.5,204.9,300.5z"/>
<path class="st0" d="M204.9,368.4c-19.8,0-35.9-16-35.9-35.8c0-19.8,16-35.9,35.8-35.9c19.8,0,35.9,16,35.9,35.8c0,0,0,0,0,0.1
	C240.7,352.4,224.7,368.4,204.9,368.4z M204.9,303.2c-16.2,0-29.4,13.1-29.4,29.4s13.1,29.4,29.4,29.4s29.4-13.1,29.4-29.4l0,0
	C234.2,316.4,221.1,303.2,204.9,303.2L204.9,303.2z"/>
<path class="st0" d="M204.8,368.9c-9.7,0-18.8-3.8-25.7-10.6c-6.9-6.9-10.7-16-10.7-25.7c0-9.7,3.8-18.9,10.6-25.7
	c6.9-6.9,16-10.7,25.7-10.7c0,0,0,0,0,0c20,0,36.4,16.3,36.4,36.3C241.2,352.6,224.9,368.9,204.8,368.9L204.8,368.9
	C204.9,368.9,204.9,368.9,204.8,368.9z M204.9,297.2C204.8,297.2,204.8,297.2,204.9,297.2c-9.5,0-18.4,3.7-25,10.4
	c-6.7,6.7-10.3,15.6-10.3,25c0,9.4,3.7,18.3,10.4,25c6.7,6.7,15.6,10.3,25,10.3c0,0,0,0,0,0h0c19.5,0,35.3-15.9,35.3-35.3
	C240.2,313,224.3,297.2,204.9,297.2z M204.9,362.4c-16.5,0-29.9-13.4-29.9-29.9c0-16.3,13.1-29.6,29.4-29.9v0l0.5,0
	c16.4,0,29.8,13.4,29.9,29.9C234.7,349,221.3,362.4,204.9,362.4z M205.3,303.7l-0.4,0c-15.9,0-28.9,12.9-28.9,28.9
	c0,15.9,12.9,28.9,28.9,28.9c15.9,0,28.9-12.9,28.9-28.9C233.7,316.8,221,303.9,205.3,303.7z"/>
<ellipse transform="matrix(0.9474 -0.3201 0.3201 0.9474 -81.2751 92.4259)" class="st1" cx="240.5" cy="293.4" rx="28.8" ry="32.6"/>
<path class="st0" d="M242.7,326.2c-12.8,0-25.2-9.2-30-23.3c-5.8-17.3,1.9-35.6,17.2-40.7c15.3-5.2,32.5,4.7,38.4,22
	c5.8,17.3-1.9,35.6-17.2,40.7C248.3,325.7,245.5,326.2,242.7,326.2z M238.3,261.7c-2.7,0-5.4,0.4-8.1,1.3
	c-14.8,5-22.2,22.7-16.6,39.5s22.3,26.3,37.1,21.3c14.8-5,22.2-22.7,16.6-39.5C262.7,270.6,250.6,261.7,238.3,261.7z"/>
<path class="st0" d="M242.6,329c-5.5,0-11-1.5-15.7-4.3c-8-4.7-14-12.1-16.9-20.9c-6.9-17.5,1.6-37.2,19-44.3
	c8.3-2.8,17.5-1.7,25,2.8c16.4,9.8,23.2,30.1,16.1,47.8c-3.3,8.2-9.9,14.5-18.2,17.4C248.9,328.4,245.8,329,242.6,329z M238.3,264.4
	c-2.5,0-4.9,0.4-7.2,1.2c-14,5.9-20.6,21.9-14.8,36c2.4,7.3,7.3,13.5,13.9,17.4c10.9,6.8,25.2,3.4,32-7.5c0.8-1.3,1.5-2.6,2-4
	c2.9-7.1,3.1-15,0.5-22.2l0,0c-2.4-7.3-7.3-13.5-13.9-17.4C247,265.7,242.7,264.5,238.3,264.4z"/>
<path class="st0" d="M242.6,329.5L242.6,329.5c-5.6,0-11.1-1.6-16-4.4c-8.1-4.8-14.2-12.3-17.1-21.2c-7-17.6,1.7-37.8,19.2-44.9
	c8.5-2.8,17.8-1.8,25.5,2.8c16.6,10,23.5,30.4,16.4,48.4c-3.3,8.3-10.1,14.7-18.5,17.7C249,328.9,245.9,329.5,242.6,329.5z
	 M238.5,258.4c-3.1,0-6.3,0.5-9.3,1.5c-17,6.9-25.4,26.5-18.6,43.6c2.9,8.7,8.8,16,16.6,20.7c4.7,2.8,10,4.2,15.5,4.3
	c3.1,0,6.2-0.5,9.1-1.5c8.2-2.8,14.7-9.1,17.9-17.1c7-17.6,0.3-37.4-15.9-47.2C249.1,259.9,243.8,258.4,238.5,258.4z M242.4,323
	c-4.3,0-8.6-1.2-12.5-3.6c-6.7-3.9-11.7-10.2-14.1-17.6c-5.8-14.2,1-30.6,15.1-36.6c2.4-0.8,4.9-1.2,7.4-1.2h0
	c4.5,0,8.9,1.3,12.7,3.5c6.7,4,11.7,10.2,14.1,17.6c2.6,7.3,2.4,15.4-0.5,22.6c-0.5,1.4-1.2,2.8-2,4.1
	C258.1,319,250.3,323,242.4,323z M238.3,264.9c-2.4,0-4.8,0.4-7.1,1.2c-13.6,5.7-20.2,21.6-14.5,35.3c2.3,7.2,7.2,13.3,13.7,17.1
	c5.2,3.2,11.3,4.2,17.2,2.8c5.9-1.4,10.9-5,14.2-10.1c0.8-1.2,1.4-2.6,1.9-3.9c2.9-7,3-14.8,0.5-21.9c-2.3-7.2-7.2-13.3-13.7-17.1
	C246.8,266.1,242.6,265,238.3,264.9z"/>
<ellipse transform="matrix(0.9474 -0.3201 0.3201 0.9474 -75.6913 81.0307)" class="st1" cx="208.6" cy="270.7" rx="28.8" ry="32.6"/>
<path class="st0" d="M210.8,303.5c-12.8,0-25.2-9.2-30-23.3c-5.8-17.3,1.9-35.6,17.2-40.7c7.4-2.5,15.5-1.6,22.8,2.6
	c7.2,4.2,12.8,11,15.6,19.4c5.8,17.3-1.9,35.6-17.2,40.7C216.4,303,213.6,303.5,210.8,303.5z M206.5,239c-2.8,0-5.5,0.4-8.1,1.3
	c-14.8,5-22.2,22.7-16.6,39.5c5.7,16.8,22.3,26.3,37.1,21.3c14.8-5,22.2-22.7,16.6-39.5c-2.7-8.1-8.1-14.8-15.2-18.9
	C215.9,240.3,211.2,239,206.5,239z"/>
<path class="st0" d="M210.8,306.3c-15.1-0.6-28.2-10.8-32.6-25.2c-6.9-17.4,1.6-37.2,18.9-44.3c8.4-2.8,17.5-1.8,25,2.8
	c8,4.7,14,12.1,16.9,20.9c6.9,17.4-1.6,37.2-18.9,44.3C217.1,305.8,214,306.3,210.8,306.3z M206.5,241.7c-2.5,0-4.9,0.4-7.3,1.2
	c-16.1,3.1-26.6,18.6-23.6,34.7c3.1,16.1,18.6,26.6,34.7,23.6c16.1-3.1,26.6-18.6,23.6-34.7c-0.3-1.3-0.6-2.7-1-3.9
	c-2.4-7.3-7.3-13.5-13.9-17.4C215.2,243,210.9,241.8,206.5,241.7L206.5,241.7z"/>
<path class="st0" d="M210.8,306.8C210.8,306.8,210.8,306.8,210.8,306.8L210.8,306.8c-9.3-0.4-17.8-4.3-24.1-10.6
	c-5.8-4.4-10.1-10.8-11.6-18.5c-0.8-4.4-0.7-8.8,0.4-12.9c1.3-12.3,9.2-23.6,21.4-28.5c8.5-2.8,17.8-1.8,25.5,2.8
	c8.1,4.7,14.2,12.3,17.1,21.2c7,17.6-1.7,37.7-19.2,44.9C217.2,306.2,214.1,306.8,210.8,306.8z M210.8,305.8
	C210.8,305.8,210.8,305.8,210.8,305.8c3.1,0,6.2-0.5,9.1-1.5c17-6.9,25.4-26.5,18.6-43.6c-2.8-8.7-8.8-16.1-16.7-20.7
	c-7.4-4.5-16.4-5.5-24.6-2.7c-9.7,3.9-16.6,12-19.5,21.4c4.1-8.1,11.7-14.3,21.3-16.1c2.3-0.8,4.8-1.2,7.3-1.2c0,0,0,0,0,0h1.2l0,0
	c4.1,0.2,8,1.4,11.5,3.5c6.7,4,11.7,10.2,14.1,17.6c0.4,1.3,0.8,2.6,1.1,4c3.1,16.3-7.7,32.1-24,35.2c-6.4,1.2-12.8,0.3-18.3-2.3
	C197.5,303.2,204,305.5,210.8,305.8z M187.4,295.5c6.3,4.7,14.5,6.8,22.8,5.2c15.8-3,26.2-18.3,23.2-34.1c-0.2-1.3-0.6-2.6-1-3.9
	c-2.3-7.2-7.2-13.3-13.7-17.1c-3.7-2.2-7.9-3.4-12.2-3.4l-0.4,0c-2.3,0-4.5,0.4-6.7,1.2c-7.7,1.5-14.3,5.8-18.7,12.3
	c-1.9,2.8-3.3,5.9-4.2,9.2c-0.6,5.3,0.1,10.7,2.1,16C180.4,286.5,183.4,291.5,187.4,295.5z M175.7,273.4c0.1,1.4,0.2,2.7,0.5,4.1
	c0.9,4.6,2.8,8.8,5.5,12.2c-1.6-2.6-3-5.5-3.9-8.6C176.7,278.6,176,276,175.7,273.4z"/>
<circle class="st1" cx="109.2" cy="190.1" r="27.9"/>
<path class="st0" d="M109.2,218.5c-15.7,0-28.4-12.7-28.4-28.4s12.7-28.4,28.4-28.4s28.4,12.7,28.4,28.4S124.9,218.5,109.2,218.5z
	 M109.2,162.6c-15.1,0-27.4,12.3-27.4,27.4s12.3,27.4,27.4,27.4s27.4-12.3,27.4-27.4S124.3,162.6,109.2,162.6z"/>
<path class="st0" d="M109.2,221.2C92,221.2,78,207.3,78,190c0-17.2,14-31.2,31.2-31.2c17.2,0,31.2,14,31.2,31.2
	C140.4,207.3,126.4,221.2,109.2,221.2z M109.2,165.4c-13.6,0-24.6,11-24.6,24.6c0,13.6,11,24.6,24.6,24.6c13.6,0,24.6-11,24.6-24.6
	l0,0C133.8,176.4,122.8,165.4,109.2,165.4L109.2,165.4z"/>
<path class="st0" d="M109.2,221.7L109.2,221.7c-17.5,0-31.7-14.2-31.7-31.7c0-17.5,14.2-31.7,31.7-31.7c0,0,0,0,0,0
	c17.5,0,31.7,14.2,31.7,31.7C140.9,207.5,126.6,221.7,109.2,221.7z M109.2,159.4c-16.9,0-30.7,13.7-30.7,30.7
	c0,16.9,13.7,30.7,30.7,30.7c16.9,0,30.7-13.8,30.7-30.7C139.9,173.1,126.1,159.4,109.2,159.4C109.2,159.4,109.2,159.4,109.2,159.4z
	 M109.2,215.2c-13.9,0-25.1-11.3-25.1-25.1s11.3-25.1,25.1-25.1l0.5,0c13.6,0.3,24.6,11.5,24.6,25.1
	C134.3,203.9,123,215.2,109.2,215.2z M108.7,165.9c-13.1,0.3-23.6,11-23.6,24.1c0,13.3,10.8,24.1,24.1,24.1
	c13.3,0,24.1-10.8,24.1-24.1c0-13.3-10.9-24.1-24.1-24.1L108.7,165.9z"/>
<ellipse class="st1" cx="164.8" cy="179.9" rx="30.2" ry="28.3"/>
<path class="st0" d="M164.8,208.8c-16.9,0-30.7-12.9-30.7-28.8s13.8-28.8,30.7-28.8s30.7,12.9,30.7,28.8S181.7,208.8,164.8,208.8z
	 M164.8,152.1c-16.3,0-29.7,12.5-29.7,27.8c0,15.4,13.3,27.8,29.7,27.8c16.3,0,29.7-12.5,29.7-27.8
	C194.5,164.6,181.2,152.1,164.8,152.1z"/>
<path class="st0" d="M164.8,211.5c-17.5-1-30.8-15.9-29.8-33.4c1-17.5,15.9-30.8,33.4-29.8c16.8,0.9,29.9,14.8,29.9,31.6
	C197.7,197.8,182.8,212,164.8,211.5z M164.8,154.8c-13.9,1-24.3,13-23.3,26.8c1,13.9,13,24.3,26.8,23.3
	c13.2-0.9,23.4-11.9,23.4-25.1C191.2,165.6,179.2,154.4,164.8,154.8z"/>
<path class="st0" d="M165.7,212c-0.3,0-0.6,0-0.9,0l0,0c-8.6-0.5-16.5-4.3-22.2-10.7c-5.7-6.4-8.6-14.6-8.1-23.2
	c1-17.7,16.2-31.3,33.9-30.3c17,0.9,30.4,15,30.4,32.1C198.2,197.8,183.5,212,165.7,212z M164.8,211c17.6,0.4,32.4-13.5,32.9-31.1
	c0-16.5-12.9-30.2-29.4-31.1c-17.1-0.9-31.9,12.2-32.8,29.4c-0.5,8.3,2.3,16.3,7.9,22.5C148.9,206.9,156.5,210.6,164.8,211z
	 M166.5,205.6c-13.3,0-24.6-10.4-25.6-23.9c-1-14.1,9.7-26.4,23.8-27.4l0,0c14.5-0.5,26.9,11,27.4,25.6c0,13.4-10.5,24.7-23.9,25.6
	C167.7,205.5,167.1,205.6,166.5,205.6z M164.8,155.3c-13.6,0.9-23.8,12.7-22.9,26.3c0.5,6.6,3.4,12.6,8.4,16.9s11.3,6.5,17.9,6
	c12.9-0.9,22.9-11.7,22.9-24.6C190.7,165.9,178.9,154.9,164.8,155.3z"/>
<ellipse transform="matrix(0.7071 -0.7071 0.7071 0.7071 -60.7814 142.2747)" class="st1" cx="141.3" cy="144.5" rx="30.2" ry="28.3"/>
<path class="st0" d="M139.5,174.3c-7.3,0-14.5-2.7-19.9-8.1c-11.2-11.2-10.7-30.1,1.3-42.1l0,0c5.8-5.8,13.3-9.1,21.3-9.4
	c8-0.2,15.3,2.6,20.8,8.1c11.2,11.2,10.7,30.1-1.3,42.1C155.5,171.1,147.4,174.3,139.5,174.3z M121.7,124.8
	c-11.6,11.6-12.1,29.8-1.3,40.7c10.9,10.9,29.1,10.3,40.7-1.3c11.6-11.6,12.1-29.8,1.3-40.7c-5.3-5.3-12.4-8-20-7.8
	C134.6,116,127.3,119.2,121.7,124.8L121.7,124.8z"/>
<path class="st0" d="M139.5,177c-8.2,0.1-16-3.1-21.8-8.9c-12.3-13.8-11.1-35,2.8-47.3c12.7-11.3,31.8-11.3,44.5,0
	c6,6,9.2,14.3,8.9,22.8C173.1,162.2,158,176.8,139.5,177L139.5,177z M143.1,118.5c-7.4,0.1-14.4,3-19.5,8.3
	c-10.5,9.1-11.6,25-2.5,35.5s25,11.6,35.5,2.5c0.9-0.8,1.7-1.6,2.5-2.5c5-5,8-11.7,8.3-18.7c0.6-13.2-9.5-24.3-22.7-25
	C144.1,118.5,143.6,118.5,143.1,118.5z"/>
<path class="st0" d="M139.3,177.5c-8.2,0-16.1-3.3-21.9-9c-6.1-6.8-9.1-15.5-8.6-24.6c0.5-9.1,4.6-17.4,11.3-23.4
	c12.9-11.5,32.3-11.5,45.2,0c6.1,6.1,9.4,14.6,9.1,23.2c-0.8,18.7-16,33.5-34.6,33.8l0,0l-0.2,0
	C139.5,177.5,139.4,177.5,139.3,177.5z M142.7,112.9c-7.8,0-15.7,2.8-21.9,8.3c-6.6,5.9-10.5,13.9-11,22.7
	c-0.5,8.8,2.4,17.3,8.3,23.8c5.6,5.5,13.3,8.7,21.2,8.7c0,0,0,0,0,0l0,0l0.2,0c18.2-0.2,33.1-14.6,33.8-32.8
	c0.3-8.3-2.8-16.5-8.7-22.4C158.4,115.7,150.6,112.9,142.7,112.9z M140.1,171.4c-0.6,0-1.2,0-1.8-0.1c-6.8-0.5-13.1-3.6-17.6-8.8
	s-6.7-11.8-6.2-18.6c0.5-6.8,3.6-13.1,8.8-17.6c5.3-5.3,12.3-8.3,19.9-8.4c0.5,0,1,0,1.5,0c13.4,0.6,23.8,12.1,23.2,25.5
	c-0.3,7.2-3.2,14-8.4,19.1c-0.8,0.9-1.6,1.7-2.5,2.5C152.2,169.2,146.3,171.4,140.1,171.4z M143.5,119c-0.1,0-0.2,0-0.3,0h0
	c-7.3,0.1-14.1,2.9-19.2,8.1c-5,4.3-8,10.3-8.4,16.9c-0.5,6.6,1.7,12.9,6,17.9c8.9,10.3,24.5,11.3,34.8,2.4c0.9-0.8,1.7-1.6,2.4-2.4
	c5-4.9,7.9-11.5,8.1-18.4c0.6-12.9-9.4-23.8-22.2-24.5C144.2,119,143.9,119,143.5,119z"/>
<path class="st1" d="M276.5,80.8c9.9-21,17.1-39,41.9-39c46.2,0,82.9,49.5,82.9,49.5c-2.1,9.5-7.3,18.1-14.6,24.5
	c-11.2,8.3-23.3,15.3-36,20.9c53.4-6.2,61.2,12.6,66.8,16.8c4.6,3.4,25.3,43.7,25.3,43.7l-24.4,13.5c-5.6,3.1-9.2,8.8-9.7,15.1
	l-7.3,98l-105.9-71.4l-20.7-16.1c-11.6,9.8-19.7,23.2-23,38c-0.6,8-0.6,16.1,0,24.2c0,0-46.9-25.8-56.4-40.3
	c-11.4-17.5-10.9-84.3-10.9-84.3s29.8-14.3,36.3-22.8c2.6-3.4,4.5-14.5,1.1-17.3c-5.8-4.7-28.8,8.1-28.8,8.1s-11.5-20.7,3.5-35.7
	c20.9-20.9,47.2,0,47.2,0l43,29.1c0.4,0.3,1,0.2,1.3-0.2c0.2-0.2,0.2-0.5,0.1-0.7C288.1,134.5,267,100.9,276.5,80.8z"/>
<path class="st0" d="M401.6,324.7l-0.7-0.5l-105.9-71.4L274.6,237c-11.3,9.7-19.3,22.9-22.5,37.4c-0.6,7.9-0.6,16,0,24l0.1,0.9
	l-0.8-0.4c-1.9-1.1-47.1-26-56.6-40.4c-11.4-17.4-11-81.8-11-84.5l0-0.3l0.3-0.1c0.3-0.1,29.7-14.3,36.1-22.6
	c2.6-3.4,4.3-14.1,1.2-16.6c-2.2-1.8-7.8-1-16,2.3c-6.4,2.6-12.1,5.7-12.2,5.8l-0.4,0.2l-0.2-0.4C192.3,142,181,121,196,106
	c20.9-20.9,47.6-0.2,47.9,0l43,29.1c0.2,0.1,0.5,0.1,0.6-0.1c0.1-0.1,0.1-0.2,0.1-0.3c-0.6-0.9-5.5-9.1-9.3-19.3
	c-3.8-10-7.2-24.2-2.2-34.8l1.4-3c9.1-19.4,17-36.2,40.9-36.2c46,0,82.9,49.2,83.3,49.7l0.1,0.2l-0.1,0.2
	c-2.2,9.7-7.3,18.2-14.8,24.7c-10.4,7.7-21.5,14.3-33.3,19.7c43.4-4.3,55.5,8.5,61.4,14.7c1,1,1.8,1.9,2.6,2.5
	c4.6,3.4,24.6,42.2,25.5,43.9l0.2,0.4l-24.9,13.7c-5.5,3-9,8.5-9.4,14.7L401.6,324.7z M274.6,235.7l21,16.4l105.1,70.9l7.2-97.1
	c0.5-6.6,4.2-12.4,10-15.5l24-13.2c-2.2-4.4-20.7-40-24.9-43.1c-0.8-0.6-1.7-1.6-2.7-2.6c-5.9-6.3-18.2-19.3-63.7-14.1l-0.3-1
	c12.7-5.5,24.8-12.6,35.9-20.9c7.2-6.3,12.2-14.6,14.4-24c-2.5-3.3-38.3-49.1-82.3-49.1c-23.3,0-30.6,15.7-40,35.7l-1.4,3
	c-9.2,19.6,11.3,52.8,11.5,53.2l0.1,0.2c0.1,0.4,0,0.8-0.2,1.1c-0.5,0.7-1.4,0.8-2,0.4l-43-29.1c-0.3-0.2-26.2-20.4-46.6-0.1
	c-13.3,13.3-5.1,31.6-3.6,34.6c3.4-1.8,23.3-12.3,28.9-7.8c3.7,3,1.6,14.5-1.1,18c-6.2,8.1-32.9,21.2-36.1,22.8
	c0,5,0,67.1,10.9,83.7c8.6,13.2,49.1,36.2,55.4,39.7c-0.6-7.7-0.6-15.6,0.1-23.3c3.4-14.9,11.6-28.5,23.2-38.3L274.6,235.7z"/>
<path class="st0" d="M404.1,329.7l-110.6-74.5l-18.8-14.6c-9.9,9.2-16.9,21.2-19.9,34.4c-0.6,7.7-0.6,15.5,0.1,23.3l0.4,6l-5.2-2.9
	c-2-1.1-47.7-26.3-57.5-41.3c-11.8-18.1-11.5-83.3-11.5-86.1v-2.1l1.8-0.9c8.1-3.9,30.2-15.4,35.1-21.8c2.1-3.9,2.7-8.5,1.7-12.8
	c-2.1-1.6-14.3,2.4-25.1,8.4l-2.9,1.6l-1.6-2.8c-4.4-7.9-9.2-26.4,4-39.6c22.7-22.7,51.2-0.5,51.5-0.2l34.9,23.6
	c-5.8-11.8-14-32.9-6.9-47.9l1.4-3c9.1-19.5,17.7-37.8,43.4-37.8c47.3,0,84,48.7,85.5,50.8l0.8,1.1l-0.2,1.4
	c-2.3,10.2-7.8,19.5-15.7,26.4c-6.7,5.5-13.9,10.2-21.6,14c33.7-0.7,44.5,10.6,49.9,16.4c0.7,0.8,1.4,1.5,2.3,2.2
	c4.8,3.6,21.3,35.2,26.3,44.8l1.5,2.8l-27.2,15c-4.6,2.5-7.7,7.3-8.1,12.5L404.1,329.7z M274.6,232.2l22.7,17.7l101,68.1l6.9-92.4
	c0.5-7.5,4.8-14.2,11.4-17.8l21.7-11.9c-6.7-13.8-14.3-27.1-22.9-39.8c-1.1-0.9-2.1-1.9-3.1-2.9c-5.6-6-17.3-18.3-61.4-13.2
	l-2.7,0.3l-0.8-2.7c-0.8-2.7,1.2-3.7,4.5-5.1c11.7-4.9,22.6-11.4,32.6-19.1c6.4-5.6,11-13,13.3-21.2c-5.8-7.4-39.2-47-79.3-47
	c-21.5,0-28.2,14.3-37.5,34.1l-1.4,3c-8.6,18.2,11.2,50.2,11.4,50.5l0.4,1.1c0.5,2.3-1,4.5-3.3,5c-1.1,0.2-2.3,0-3.2-0.6L241.8,109
	c-1.2-0.9-24.5-18.9-43.1-0.4c-7.1,7.9-8.8,19.3-4.2,28.8c8.5-4.4,23.4-10.9,29.3-6.1c5.2,4.3,2.8,17.4-0.6,21.8
	c-6,7.9-28.6,19.4-35.6,22.8c0,19.7,1.8,67.2,10.5,80.4c6.6,10,34.8,27.5,50.1,36.3c-0.5-6.4-0.3-12.7,0.4-19.1
	c3.5-15.6,12-29.6,24.2-39.9L274.6,232.2z"/>
<path class="st0" d="M404.5,330.6l-0.7-0.5l-110.6-74.5l-18.5-14.4c-9.7,9.2-16.5,20.9-19.5,33.9c-0.6,7.6-0.6,15.4,0.1,23.1
	l0.5,6.9l-6-3.3c-0.5-0.3-47.7-26.1-57.7-41.5c-11.6-17.7-11.6-79.4-11.6-86.3v-2.4l2.1-1c8.1-3.9,30-15.3,34.9-21.7
	c2-3.7,2.6-8,1.6-12.2c-2.1-1.1-13.7,2.6-24.4,8.5l-3.3,1.8l-1.8-3.3c-4.4-8-9.3-26.8,4.1-40.2c11.9-11.9,25.4-11.4,34.6-8.8
	c10.1,2.8,17.5,8.5,17.5,8.5l33.3,22.5c-5.6-11.8-13-32.1-6.1-46.7l1.4-3c9.2-19.6,17.9-38.1,43.9-38.1c19.8,0,40.1,8.3,60.2,24.7
	c14.6,11.9,23.9,24,25.7,26.3l0.9,1.3l-0.3,1.6c-2.3,10.3-7.9,19.8-15.9,26.7c-6.1,5-12.8,9.4-19.8,13.1c0.2,0,0.5,0,0.7,0
	c31.8,0,42.3,11.2,47.4,16.6c0.7,0.8,1.4,1.5,2.2,2.2c4.9,3.7,21.4,35.4,26.4,45l1.7,3.2l-27.6,15.2c-4.5,2.5-7.4,7-7.8,12.1
	L404.5,330.6z M274.7,239.9l19.1,14.9l109.8,74l7.6-102.8c0.4-5.5,3.5-10.3,8.3-12.9l26.8-14.8l-1.2-2.4
	c-10.1-19.7-22.3-41.8-26.1-44.7c-0.9-0.7-1.6-1.5-2.3-2.3c-5.2-5.5-15.9-16.9-49.5-16.2l-0.2-0.9c7.6-3.8,14.9-8.5,21.5-14
	c7.8-6.7,13.3-16,15.6-26.1l0.2-1.1l-0.7-1c-1.7-2.3-11-14.3-25.5-26.1c-20-16.3-40-24.5-59.6-24.5c-25.4,0-33.9,18.2-43,37.6
	l-1.4,3c-7,14.9,1.3,36.2,6.9,47.5l0.8,1.7l-36.5-24.7c-0.1-0.1-7.3-5.7-17.2-8.4c-13.1-3.6-24.4-0.7-33.7,8.6
	c-13,13-8.2,31.2-3.9,39l1.3,2.4l2.4-1.3c10-5.6,23.2-10.3,25.7-8.4l0.1,0.1l0,0.2c1.1,4.4,0.5,9.1-1.7,13.1
	c-5.1,6.6-27.2,18.1-35.3,22l-1.5,0.8v1.7c0,6.9,0,68.3,11.4,85.8c9.9,15.2,56.9,40.9,57.4,41.2l4.4,2.4l-0.3-5
	c-0.7-7.7-0.7-15.6-0.1-23.3c3.1-13.4,10-25.4,20.1-34.8L274.7,239.9z M398.8,318.9l-0.7-0.5l-101-68.1l-22.4-17.5l-1.7,1.3
	c-12,10.1-20.6,24.2-24,39.6c-0.7,6.2-0.9,12.6-0.4,18.9l0.1,0.9l-0.8-0.5c-7.1-4.1-42.7-24.9-50.3-36.5
	C187.2,240.7,187,178.6,187,176v-0.3l0.3-0.1c6.8-3.4,29.5-14.9,35.4-22.7c1.7-2.2,3.1-6.6,3.4-10.7c0.4-4.8-0.6-8.6-2.7-10.4
	c-5.7-4.7-20.5,1.8-28.8,6.1l-0.5,0.2l-0.2-0.5c-4.7-9.8-3-21.3,4.3-29.4c7.8-7.8,17.6-10.3,28.5-7.2c8.1,2.2,14.1,6.7,15.2,7.6
	l43,29.1c0.8,0.5,1.8,0.7,2.8,0.5c2-0.4,3.3-2.4,2.9-4.4l-0.4-1c-0.2-0.2-20.1-32.3-11.3-50.9l1.4-3c9.4-20,16.1-34.4,38-34.4
	c17.1,0,34.9,7,52.8,20.8c14.3,11,24.2,22.9,26.9,26.3l0.2,0.2l-0.1,0.2c-2.3,8.3-6.9,15.7-13.4,21.4c-10.1,7.8-21.1,14.2-32.8,19.2
	c-3.4,1.6-4.8,2.3-4.2,4.5l0.7,2.3l2.3-0.3c44.4-5.1,56.2,7.4,61.8,13.4c0.9,1,1.9,2,3,2.9l0.1,0.1c8.6,12.7,16.3,26.1,23,39.9
	l0.2,0.4l-22.1,12.2c-6.4,3.5-10.6,10-11.1,17.4L398.8,318.9z M274.6,231.6l23,17.9l100.3,67.6l6.8-91.5c0.6-7.7,4.9-14.5,11.6-18.2
	l21.2-11.7c-6.6-13.6-14.2-26.8-22.7-39.3c-1.1-0.9-2.1-1.9-3.1-2.9c-5.5-5.9-17.1-18.1-61-13.1l-3.2,0.4l-0.9-3.1
	c-0.9-3.2,1.5-4.2,4.7-5.7c11.6-4.9,22.6-11.3,32.5-19c6.3-5.5,10.8-12.7,13-20.7c-2.9-3.6-12.6-15.3-26.6-26
	c-17.8-13.7-35.4-20.6-52.2-20.6c-21.2,0-27.8,14.2-37,33.8l-1.4,3c-8.5,17.9,11.1,49.7,11.3,50l0.5,1.1c0.6,2.6-1.1,5.1-3.6,5.7
	c-1.2,0.3-2.5,0-3.6-0.7l-43.1-29.2c-1.1-0.9-7-5.2-14.9-7.4c-10.7-3-20-0.6-27.5,7c-6.9,7.6-8.6,18.5-4.4,27.8
	c8.6-4.4,23.3-10.8,29.4-5.8c5.6,4.5,3,17.8-0.5,22.5c-5.9,7.6-26.6,18.4-35.5,22.8c0,22.3,2.2,67.3,10.4,79.8
	c7.2,11,40.5,30.7,49.1,35.7c-0.4-6.1-0.2-12.2,0.5-18.2c3.5-15.7,12.1-29.9,24.3-40.2L274.6,231.6z"/>
<path class="st1" d="M350.3,233.2l-36.8-63.5L288,134.5"/>
<polygon class="st0" points="349.8,233.4 313,170 287.6,134.8 288.5,134.2 313.9,169.5 350.7,232.9 "/>
<path class="st0" d="M350.1,233.3l-38.5-62.5l0.1,0.2l-26.3-34.6l5.3-3.8l24.5,35.9l0.1,0.1v0l35.2,64.4L350.1,233.3z"/>
<path class="st0" d="M349.9,234l-38.6-62.8l-26.6-35l6.1-4.4l24.9,36.7l35.3,64.7L349.9,234z M312.1,170.7l32.3,52.5l-29.7-54.4
	l-24.2-35.5l-4.5,3.2l25.9,34.1l0,0L312.1,170.7L312.1,170.7z"/>
<path class="st0" d="M329.6,62.2l6.1,30.7l-0.7-0.5l29.6-4.4l0,0l-29.3,6.1l0.7-0.5l-34.4,57.7l-0.4,0.7l-0.7,0.3l-33.6,17.9
	l0.4-0.3l-34.9,46.5l32.8-48l0.1-0.2l0.3-0.2l31.6-21.3l-1.1,1l38-55.3l0.3-0.4l0.4-0.1l29.7-3.9l0,0l-29.4,5.6l-0.6,0.1l-0.1-0.6
	L329.6,62.2z"/>
<path class="st0" d="M232.8,216.6l-0.8-0.6l33-48.3l0.3-0.2l30.9-20.8l37.6-54.7l0,0l0,0l-4.7-29.8l1-0.2l5.8,29.2l28.6-3.8l0,0.1
	l0.1,0l0.2,1l-28.6,5.9l-34.5,57.9l-0.8,0.4l-33.3,17.7L232.8,216.6z M265.7,168.5l-0.1,0.1l-20.1,29.5l21.2-28.2l-0.1-0.1l0.4-0.3
	l0.1,0.1l33.8-18l0.3-0.6l33.9-56.9l-1,0.2l-0.1-0.8l-36.6,53.3l0.2,0.2l-1.1,1l-0.2-0.2L265.7,168.5z M334.9,92.9l0,0.1l0.1,0
	L334.9,92.9z M336.2,92.7l0,0.1l3.2-0.6L336.2,92.7z M333.9,86.4l0.8,5l0.2,0L333.9,86.4z"/>
<path class="st0" d="M313.4,168.5l68.5-2.7h0.3l0.2,0.2l38,23.8l-0.1,0.2l-38.9-22.3l0.6,0.1l-68.5,3.2L313.4,168.5z"/>
<path class="st0" d="M420.5,190.7l-38.9-22.4l-68.6,3.2l-0.2-3.4l69.5-2.8l0.4,0.2l38.4,24.1L420.5,190.7z M382.1,167.5l22.2,12.7
	l-22.2-13.9h-0.2l-68,2.7l0.1,1.4l67.5-3.1l0.1-0.1l0.6,0.1L382.1,167.5z"/>
<path class="st0" d="M370.1,191.8l39.3,28.4l-1,1.3L370.1,191.8z"/>
<path class="st0" d="M408.5,222.2l-38.8-30l0.6-0.8l39.8,28.7L408.5,222.2z M393.6,209.4l14.7,11.4l0.4-0.5L393.6,209.4z"/>
<path class="st0" d="M331.7,244.8l0.8,32.1H331L331.7,244.8z"/>
<path class="st0" d="M333,277.5h-2.6l0.8-32.7h1L333,277.5z M331.5,276.5h0.5l-0.3-11.2L331.5,276.5z"/>
<path class="st0" d="M313.4,208.3l-2.9,17.4v0.1l-0.1,0.1L294.2,248l-1.3-1l16.8-21.7l-0.1,0.2L313.4,208.3z"/>
<path class="st0" d="M294.3,248.7l-2.1-1.6l17-21.9l3.8-17l1,0.2L311,226l-0.2,0.2L294.3,248.7z M293.6,246.9l0.5,0.4l14.2-19.4
	L293.6,246.9z"/>
<path class="st0" d="M274.7,183.8l1,52.5h-2.1L274.7,183.8z"/>
<path class="st0" d="M276.2,236.9h-3.1l1-53h1L276.2,236.9z M274.2,235.9h1l-0.5-26.4L274.2,235.9z"/>
<path class="st0" d="M202.8,214.1l50.2-27.3l0.5,0.9L202.8,214.1z"/>
<path class="st0" d="M203.1,214.5l-0.5-0.9l50.6-27.6l1,1.8L203.1,214.5z M252.8,187.5l-2.9,1.6L252.8,187.5L252.8,187.5z"/>
<path class="st0" d="M359,246.3l29.9,43.8l-0.6,0.4l-32.8-41.7L359,246.3z"/>
<path class="st0" d="M388.3,291.2l-33.4-42.5l4.2-3.1l30.5,44.7L388.3,291.2z M356.3,248.9l29.8,38L358.9,247L356.3,248.9z"/>
</svg>
