<?xml version="1.0" encoding="utf-8"?>
<!-- Generator: Adobe Illustrator 24.0.3, SVG Export Plug-In . SVG Version: 6.00 Build 0)  -->
<svg version="1.1" id="Layer_1" xmlns="http://www.w3.org/2000/svg" xmlns:xlink="http://www.w3.org/1999/xlink" x="0px" y="0px"
	 viewBox="0 0 334.7 57.7" style="enable-background:new 0 0 334.7 57.7;" xml:space="preserve">
<style type="text/css">
	.st0{fill:#5D5D5D;stroke:#FFF9ED;stroke-width:0.4;}
	.st1{fill:#5D5D5D;stroke:#FFF9ED;stroke-width:0.3998;stroke-miterlimit:3.9984;}
	.st2{enable-background:new    ;}
	.st3{fill:#FFF9ED;}
</style>
<g id="Group_68" transform="translate(-214.273 -4371.291)">
	<g id="Group_66" transform="translate(-836.464 3819.492)">
		<g id="Group_35" transform="translate(1051 552)">
			<g id="Layer_4" transform="translate(6.953 0)">
				<g id="Group_6">
					<path id="Path_261" class="st0" d="M1.5,2.5l0.9-0.8c0.4-0.3,0.9-0.2,1.1,0.2c0.3,0.3,0.4,0.8,0.3,1.2c-0.1,0.4-0.4,0.8-0.7,1
						C2.4,4.6,1.4,4.5,0.7,4C0,3.4-0.2,2.4,0.2,1.6c0.4-0.8,1.1-1.4,2-1.5C2.5,0,3,0,3.4,0c0.4,0.1,0.8,0.2,1.2,0.3
						c0.4,0.2,0.8,0.5,1,0.8C5.9,1.6,6,2,6,2.5c0.1,0.8,0.1,1.6,0.1,2.5l-0.6,0c0-0.8,0-1.6,0-2.4c0-0.4-0.1-0.7-0.3-1
						C5.1,1.2,4.8,0.9,4.5,0.8C3.8,0.5,3,0.4,2.2,0.5C1.4,0.6,0.8,1.1,0.5,1.7C0.1,2.4,0.3,3.3,0.9,3.8C1.5,4.3,2.3,4.4,3,4
						c0.3-0.2,0.6-0.5,0.7-0.9c0.1-0.4,0-0.8-0.2-1.1c-0.2-0.3-0.7-0.4-1-0.2L1.5,2.5z"/>
				</g>
				<g id="Group_7" transform="translate(2.506 1.341)">
					<path id="Path_262" class="st0" d="M7.8,2.3L8.2,3c0.1,0.2,0.3,0.4,0.6,0.5c0.5,0.2,1-0.3,1.3-0.7c0.3-0.4,0.4-1,0.3-1.5
						c-0.1-0.2-0.2-0.5-0.4-0.6C9.8,0.6,9.6,0.5,9.3,0.4C9,0.3,8.8,0.3,8.5,0.2c-0.3,0-0.5,0-0.7,0.1C7.3,0.5,6.8,0.8,6.3,1
						C5.5,1.6,4.7,2.4,3.9,3.1l0,0L0.5,8.5L0,8.2l3.6-5.3l0,0l0,0c0.9-0.7,1.6-1.4,2.6-2c0.5-0.3,1-0.5,1.5-0.7C8,0,8.3,0,8.6,0
						c0.3,0.1,0.5,0.1,0.8,0.2c0.3,0.1,0.5,0.2,0.8,0.3c0.2,0.2,0.4,0.4,0.4,0.7c0.1,0.6-0.1,1.1-0.4,1.6C9.9,3.3,9.4,3.8,8.8,3.6
						C8.5,3.5,8.3,3.3,8.2,3L7.8,2.3z"/>
				</g>
			</g>
			<g id="grapes" transform="translate(0 7.56)">
				<g id="Group_8" transform="translate(4.386 28.612)">
					
						<ellipse id="Ellipse_1" transform="matrix(0.1514 -0.9885 0.9885 0.1514 -0.1384 6.0219)" class="st0" cx="3.4" cy="3.1" rx="2.7" ry="3.1"/>
					<path id="Path_263" class="st0" d="M3.6,6.1C3.4,6.1,3.2,6,3,6C1.4,5.6,0.5,3.9,1,2.3s2.1-2.5,3.7-2C6.1,0.7,7,2.1,6.8,3.6l0,0
						C6.5,5.1,5.1,6.1,3.6,6.1z M3.3,0.7C2.1,0.6,1,1.5,0.7,2.7c0,1.5,1.3,2.8,2.8,2.8c1.2,0,2.3-0.8,2.6-1.9l0,0
						c0.1-1.4-1-2.6-2.4-2.7C3.6,0.7,3.5,0.7,3.3,0.7z"/>
				</g>
				<g id="Group_9" transform="translate(7.581 24.448)">
					
						<ellipse id="Ellipse_2" transform="matrix(0.9222 -0.3868 0.3868 0.9222 -1.1072 1.7765)" class="st0" cx="3.9" cy="3.6" rx="3.1" ry="2.7"/>
					<path id="Path_264" class="st0" d="M3.6,6.7C2.4,6.7,1.3,6,0.7,4.9C0.4,4.2,0.5,3.3,0.9,2.6c0.4-0.8,1.1-1.4,1.9-1.7
						C4.3,0.1,6.2,0.8,7,2.3l0,0c0.6,1.7-0.3,3.5-2,4C4.5,6.6,4.1,6.7,3.6,6.7z M4.2,1.2c-0.4,0-0.8,0.1-1.2,0.2
						C2.3,1.7,1.7,2.2,1.4,2.9C1.1,3.4,1.1,4.1,1.3,4.7C2.1,6,3.9,6.4,5.2,5.6c1-0.6,1.5-1.9,1.2-3l0,0C6,1.7,5.1,1.2,4.2,1.2z"/>
				</g>
				<g id="Group_10" transform="translate(6.375 19.625)">
					
						<ellipse id="Ellipse_3" transform="matrix(0.9222 -0.3868 0.3868 0.9222 -1.1072 1.7765)" class="st0" cx="3.9" cy="3.6" rx="3.1" ry="2.7"/>
					<path id="Path_265" class="st0" d="M3.6,6.7C2.4,6.7,1.3,6,0.7,4.9C0.4,4.2,0.5,3.3,0.9,2.6c0.4-0.8,1.1-1.4,1.9-1.7
						C4.3,0.1,6.2,0.8,7,2.3l0,0c0.6,1.7-0.3,3.5-2,4C4.5,6.6,4.1,6.7,3.6,6.7z M4.2,1.2c-0.4,0-0.8,0.1-1.2,0.2
						C2.3,1.7,1.7,2.2,1.4,2.9C1.1,3.4,1.1,4.1,1.3,4.7C2.1,6,3.9,6.4,5.2,5.6c1-0.6,1.5-1.9,1.2-3l0,0C6,1.7,5.1,1.2,4.2,1.2z"/>
				</g>
				<g id="Group_11" transform="translate(6.858 15.32)">
					
						<ellipse id="Ellipse_4" transform="matrix(0.995 -9.996231e-02 9.996231e-02 0.995 -0.2871 0.352)" class="st0" cx="3.4" cy="3" rx="3.1" ry="2.7"/>
					<path id="Path_266" class="st0" d="M3.3,6.1C1.7,6.2,0.3,5,0,3.4c-0.1-0.8,0.2-1.6,0.8-2.2C2-0.2,4-0.4,5.5,0.7
						c0.7,0.5,1.1,1.2,1.2,2C6.8,4.5,5.4,6,3.7,6.1C3.5,6.1,3.4,6.1,3.3,6.1z M3.4,0.6c-0.1,0-0.2,0-0.3,0C2.4,0.7,1.7,1,1.2,1.5
						C0.8,2,0.6,2.7,0.6,3.3C1,4.8,2.5,5.7,4,5.4C5.2,5.1,6.1,4,6.1,2.8c-0.1-0.7-0.4-1.2-1-1.6C4.7,0.8,4.1,0.6,3.4,0.6L3.4,0.6z"
						/>
				</g>
				<g id="Group_12" transform="translate(2.117 13.515)">
					
						<ellipse id="Ellipse_5" transform="matrix(0.9474 -0.3201 0.3201 0.9474 -1.0042 1.2283)" class="st1" cx="3.2" cy="3.7" rx="2.4" ry="3.1"/>
					<path id="Path_267" class="st0" d="M3.6,7C2.2,6.9,1.1,5.9,0.7,4.5C0.1,2.8,0.8,0.9,2.2,0.5l0,0c1.4-0.5,3,0.6,3.6,2.3
						S5.7,6.4,4.3,6.9C4.1,6.9,3.9,7,3.6,7z M2.3,1C1.3,1.4,0.8,2.9,1.3,4.3s1.8,2.3,2.9,2S5.7,4.5,5.2,3S3.4,0.7,2.3,1L2.3,1z"/>
				</g>
				<g id="Group_13" transform="translate(0 8.752)">
					
						<ellipse id="Ellipse_6" transform="matrix(0.3937 -0.9193 0.9193 0.3937 -1.3964 5.3984)" class="st0" cx="3.4" cy="3.8" rx="3.1" ry="2.4"/>
					<path id="Path_268" class="st0" d="M2.9,7C2.6,7,2.3,7,2.1,6.9C0.7,6.3,0.2,4.4,0.9,2.7s2.4-2.6,3.8-2l0,0
						c1.4,0.6,1.9,2.4,1.1,4.2C5.5,5.6,5,6.3,4.2,6.7C3.8,6.9,3.4,7,2.9,7z M3.9,1.1c-1.1,0.1-2,0.8-2.4,1.9
						C0.9,4.3,1.3,5.9,2.3,6.3c0.5,0.2,1.1,0.2,1.6-0.2C4.6,5.8,5,5.2,5.3,4.6c0.6-1.4,0.2-2.9-0.8-3.4C4.3,1.1,4.1,1.1,3.9,1.1
						L3.9,1.1z"/>
				</g>
				<g id="Group_14" transform="translate(5.492 9.138)">
					<ellipse id="Ellipse_7" class="st0" cx="3.8" cy="3.6" rx="3.5" ry="3.3"/>
					<path id="Path_269" class="st0" d="M3.8,7.3c-2-0.1-3.6-1.8-3.4-3.8c0.1-2,1.8-3.6,3.8-3.4c1.9,0.1,3.5,1.7,3.5,3.6
						C7.6,5.7,5.9,7.3,3.8,7.3z M3.8,0.6C2.2,0.7,0.9,2.2,1,3.8c0.1,1.7,1.6,3,3.2,2.8c1.6-0.1,2.9-1.4,2.9-3C7,1.9,5.6,0.6,3.8,0.6
						L3.8,0.6z"/>
				</g>
				<g id="Group_15" transform="translate(3.117 23.121)">
					
						<ellipse id="Ellipse_8" transform="matrix(0.9474 -0.3201 0.3201 0.9474 -1.0191 1.3182)" class="st1" cx="3.5" cy="3.8" rx="2.7" ry="3.1"/>
					<path id="Path_270" class="st0" d="M3.7,7.1c-1.4-0.1-2.6-1-3-2.4C0.4,3.9,0.4,3,0.7,2.2c0.5-1.4,2.1-2.1,3.5-1.6
						c0.2,0.1,0.3,0.1,0.5,0.3c1.5,0.9,2.2,2.8,1.5,4.5C6,6.1,5.3,6.7,4.6,7C4.3,7,4,7.1,3.7,7.1z M3.3,1C3,1,2.8,1.1,2.6,1.1
						C2,1.3,1.5,1.8,1.3,2.4C1,3.1,1,3.8,1.3,4.5C1.6,5.9,3,6.7,4.4,6.4C5,6.2,5.5,5.7,5.7,5.1c0.5-1.4,0-3-1.3-3.7
						C4.1,1.2,3.7,1,3.3,1L3.3,1z"/>
				</g>
				<g id="Group_16" transform="translate(3.355 18.378)">
					
						<ellipse id="Ellipse_9" transform="matrix(0.9474 -0.3201 0.3201 0.9474 -0.9227 1.1937)" class="st1" cx="3.2" cy="3.4" rx="2.4" ry="2.8"/>
					<path id="Path_271" class="st0" d="M3.4,6.5C2.9,6.5,2.4,6.3,2,6.1C0.7,5.2,0.1,3.5,0.7,2C1.1,0.7,2.6,0,3.8,0.5
						C4,0.6,4.2,0.6,4.3,0.7c1.4,0.9,2,2.6,1.4,4.1C5.4,5.5,4.9,6.1,4.2,6.3C3.9,6.4,3.6,6.5,3.4,6.5z M3,1C2.8,1,2.6,1,2.4,1.1
						c-0.5,0.2-1,0.6-1.2,1.1c-0.5,1.2,0,2.6,1.1,3.4c0.9,0.6,2,0.3,2.6-0.6C5,4.9,5.1,4.7,5.1,4.6C5.6,3.4,5.1,2,4,1.3
						C3.7,1.1,3.3,1,3,1L3,1z"/>
				</g>
				<g id="Group_17" transform="translate(11.319 17.889)">
					<circle id="Ellipse_10" class="st0" cx="3.3" cy="3.3" r="3"/>
					<path id="Path_272" class="st0" d="M3.3,6.6C1.5,6.6,0,5.1,0,3.3C0,1.5,1.5,0,3.3,0c1.8,0,3.3,1.5,3.3,3.3
						C6.6,5.1,5.1,6.6,3.3,6.6z M3.3,0.6c-1.5,0-2.7,1.2-2.7,2.7C0.6,4.8,1.8,6,3.3,6C4.8,6,6,4.8,6,3.3c0,0,0,0,0,0
						C6,1.8,4.8,0.6,3.3,0.6z"/>
				</g>
				<g id="Group_18" transform="translate(14.44 13.879)">
					
						<ellipse id="Ellipse_11" transform="matrix(0.9474 -0.3201 0.3201 0.9474 -1.0034 1.3122)" class="st1" cx="3.5" cy="3.7" rx="2.7" ry="3"/>
					<path id="Path_273" class="st0" d="M3.7,7c-0.5,0-1-0.1-1.5-0.4C1.5,6.2,0.9,5.5,0.7,4.7C0,3,0.8,1.2,2.4,0.6
						C3.2,0.3,4,0.4,4.7,0.8c1.5,0.9,2.1,2.8,1.5,4.4C5.9,6,5.3,6.6,4.6,6.9C4.3,6.9,4,7,3.7,7z M3.3,1c-0.2,0-0.5,0-0.7,0.1
						c-1.3,0.5-1.9,2-1.4,3.3c0.2,0.7,0.7,1.2,1.3,1.6c1,0.6,2.3,0.3,3-0.7C5.6,5.3,5.6,5.1,5.7,5c0.3-0.7,0.3-1.4,0-2.1l0,0
						C5.5,2.3,5.1,1.7,4.4,1.3C4.1,1.1,3.7,1,3.3,1L3.3,1z"/>
				</g>
				<g id="Group_19" transform="translate(11.494 11.783)">
					
						<ellipse id="Ellipse_12" transform="matrix(0.9474 -0.3201 0.3201 0.9474 -1.0034 1.3122)" class="st1" cx="3.5" cy="3.7" rx="2.7" ry="3"/>
					<path id="Path_274" class="st0" d="M3.7,7c-1.4-0.1-2.6-1-3-2.3C0,3,0.8,1.2,2.4,0.6C3.2,0.3,4,0.4,4.7,0.8
						C5.5,1.3,6,1.9,6.3,2.8c0.6,1.6-0.1,3.4-1.8,4.1C4.3,6.9,4,7,3.7,7z M3.3,1c-0.2,0-0.5,0-0.7,0.1C1.1,1.4,0.2,2.8,0.4,4.3
						c0.3,1.5,1.7,2.5,3.2,2.2c1.5-0.3,2.5-1.7,2.2-3.2c0-0.1-0.1-0.2-0.1-0.4C5.5,2.3,5.1,1.7,4.4,1.3C4.1,1.1,3.7,1,3.3,1L3.3,1z"
						/>
				</g>
				<g id="Group_20" transform="translate(2.912 5.152)">
					<circle id="Ellipse_13" class="st0" cx="2.9" cy="2.9" r="2.6"/>
					<path id="Path_275" class="st0" d="M2.9,5.8C1.3,5.8,0,4.5,0,2.9S1.3,0,2.9,0c1.6,0,2.9,1.3,2.9,2.9C5.8,4.5,4.5,5.8,2.9,5.8z
						 M2.9,0.6c-1.3,0-2.3,1-2.3,2.3s1,2.3,2.3,2.3c1.3,0,2.3-1,2.3-2.3C5.2,1.6,4.1,0.6,2.9,0.6z"/>
				</g>
				<g id="Group_21" transform="translate(7.847 4.174)">
					<ellipse id="Ellipse_14" class="st0" cx="3.1" cy="2.9" rx="2.8" ry="2.6"/>
					<path id="Path_276" class="st0" d="M3.1,5.8C1.5,5.8,0.2,4.4,0.3,2.8C0.4,1.1,1.8-0.1,3.4,0C5,0.1,6.2,1.4,6.2,2.9
						C6.1,4.6,4.7,5.9,3.1,5.8z M3.1,0.6C1.8,0.7,0.8,1.8,0.9,3.1C1,4.4,2.1,5.3,3.4,5.2c1.2-0.1,2.2-1.1,2.2-2.3
						C5.5,1.6,4.4,0.6,3.1,0.6z"/>
				</g>
				<g id="Group_22" transform="translate(4.943 0)">
					
						<ellipse id="Ellipse_15" transform="matrix(0.7071 -0.7071 0.7071 0.7071 -1.5834 3.8232)" class="st0" cx="3.8" cy="3.8" rx="2.8" ry="2.6"/>
					<path id="Path_277" class="st0" d="M3.7,6.8c-0.8,0-1.5-0.3-2-0.8c-1.1-1.3-1-3.2,0.3-4.4c1.2-1,2.9-1,4.1,0
						C6.6,2.2,6.9,3,6.8,3.7C6.8,5.5,5.4,6.8,3.7,6.8L3.7,6.8z M4,1.4c-0.7,0-1.3,0.3-1.8,0.8C1.2,3,1.1,4.5,2,5.5s2.3,1.1,3.3,0.2
						c0.1-0.1,0.2-0.1,0.2-0.2C5.9,5,6.2,4.4,6.2,3.7c0.1-1.2-0.9-2.2-2.1-2.3C4.1,1.4,4,1.4,4,1.4L4,1.4z"/>
				</g>
			</g>
			<g id="Layer_3" transform="translate(12.43 1.595)">
				<g id="Group_23">
					<path id="Path_278" class="st0" d="M8.8,3.9c0.9-1.9,1.6-3.6,3.9-3.6c4.3,0,7.7,4.6,7.7,4.6c-0.2,0.9-0.7,1.7-1.4,2.3
						c-1,0.8-2.1,1.4-3.3,1.9c4.9-0.6,5.7,1.2,6.2,1.6c0.9,1.3,1.7,2.6,2.3,4l-2.3,1.2c-0.5,0.3-0.9,0.8-0.9,1.4l-0.7,9.1l-9.8-6.6
						l-1.9-1.5c-1.1,0.9-1.8,2.1-2.1,3.5c-0.1,0.7-0.1,1.5,0,2.2c0,0-4.3-2.4-5.2-3.7c-1.1-1.6-1-7.8-1-7.8c1.2-0.5,2.3-1.3,3.4-2.1
						c0.2-0.3,0.4-1.3,0.1-1.6C3.2,8.4,1.1,9.6,1.1,9.6C0.5,8.5,0.6,7.2,1.4,6.3c1.9-1.9,4.4,0,4.4,0l4,2.7c0,0,0.1,0,0.1,0
						c0,0,0,0,0-0.1C9.9,8.9,8,5.8,8.8,3.9z"/>
					<path id="Path_279" class="st0" d="M20.6,26.9L10.4,20l-1.7-1.3c-0.9,0.9-1.6,2-1.8,3.2c-0.1,0.7-0.1,1.4,0,2.2l0,0.6l-0.5-0.3
						c-0.2-0.1-4.4-2.4-5.3-3.8C0,18.8,0,12.8,0,12.5v-0.2l0.2-0.1c1.2-0.5,2.3-1.2,3.2-2C3.6,9.9,3.7,9.4,3.6,9
						c-0.8,0-1.6,0.3-2.3,0.8L1,10L0.8,9.7C0.2,8.5,0.3,7.1,1.2,6C3.3,4,5.9,6,6,6l3.2,2.2c-0.5-1.1-1.3-3-0.6-4.4l0.1-0.3
						c0.8-1.8,1.6-3.5,4-3.5c4.4,0,7.8,4.5,7.9,4.7l0.1,0.1l0,0.1c-0.2,0.9-0.7,1.8-1.5,2.4c-0.6,0.5-1.3,0.9-2,1.3
						c3.1-0.1,4.1,1,4.6,1.5c0.1,0.1,0.1,0.1,0.2,0.2c0.9,1.3,1.7,2.7,2.4,4.1l0.1,0.3l-2.5,1.4c-0.4,0.2-0.7,0.7-0.7,1.2L20.6,26.9
						z M8.7,17.9l2.1,1.6l9.3,6.3l0.6-8.5c0.1-0.7,0.4-1.3,1.1-1.6l2-1.1c-0.6-1.3-1.3-2.5-2.1-3.7c-0.1-0.1-0.2-0.2-0.3-0.3
						c-0.5-0.6-1.6-1.7-5.7-1.2l-0.3,0l-0.1-0.2c-0.1-0.3,0.1-0.3,0.4-0.5c1.1-0.5,2.1-1,3-1.8c0.6-0.5,1-1.2,1.2-2
						c-0.5-0.7-3.6-4.3-7.3-4.3c-2,0-2.6,1.3-3.5,3.2L9.1,4c-0.8,1.7,1,4.6,1.1,4.7l0,0.1c0,0.2-0.1,0.4-0.3,0.5
						c-0.1,0-0.2,0-0.3-0.1l-4-2.7c-0.1-0.1-2.3-1.7-4,0C1,7.2,0.8,8.3,1.2,9.1c0.8-0.4,2.2-1,2.7-0.6c0.5,0.4,0.3,1.6-0.1,2
						c-1,0.9-2.1,1.6-3.3,2.1c0,1.8,0.2,6.2,1,7.4c0.6,0.9,3.2,2.5,4.6,3.4c0-0.6,0-1.2,0-1.8C6.5,20.3,7.3,19,8.5,18L8.7,17.9z"/>
				</g>
				<g id="Group_26" transform="translate(9.65 8.685)">
					<g id="Group_24" transform="translate(0.245 0.176)">
						<path id="Path_280" class="st0" d="M5.8,9.1L2.4,3.3L0,0"/>
					</g>
					<g id="Group_25">
						<path id="Path_281" class="st0" d="M6,9.3L2.4,3.5l0,0L0,0.3L0.5,0l2.3,3.3l0,0l0,0L6,9.3L6,9.3z"/>
					</g>
				</g>
				<g id="Group_27" transform="translate(4.755 2.177)">
					<path id="Path_282" class="st0" d="M9,0l0.6,2.8l-0.1,0l2.7-0.4l0,0L9.5,2.9l0.1,0L6.4,8.2l0,0.1l-0.1,0L3.2,10l0,0L0,14.3
						l3-4.4l0,0l0,0l2.9-2L5.9,7.9l3.5-5.1l0,0l0,0l2.7-0.4l0,0L9.5,2.9l-0.1,0l0-0.1L9,0z"/>
				</g>
				<g id="Group_28" transform="translate(12.238 11.756)">
					<path id="Path_283" class="st0" d="M0,0.3L6.3,0h0l0,0l3.5,2.2l0,0L6.3,0.2l0.1,0L0,0.5L0,0.3z"/>
				</g>
				<g id="Group_29" transform="translate(17.475 14.159)">
					<path id="Path_284" class="st0" d="M0,0l3.6,2.6L3.5,2.7L0,0z"/>
				</g>
				<g id="Group_30" transform="translate(13.861 19.062)">
					<path id="Path_285" class="st0" d="M0.1,0l0.1,3H0L0.1,0z"/>
				</g>
				<g id="Group_31" transform="translate(10.344 15.686)">
					<path id="Path_286" class="st0" d="M1.9,0L1.6,1.6v0l0,0l-1.5,2L0,3.6l1.6-2l0,0L1.9,0z"/>
				</g>
				<g id="Group_32" transform="translate(8.569 13.424)">
					<path id="Path_287" class="st0" d="M0.1,0l0.1,4.9H0L0.1,0z"/>
				</g>
				<g id="Group_33" transform="translate(2.019 13.695)">
					<path id="Path_288" class="st0" d="M0,2.5L4.6,0l0,0.1L0,2.5z"/>
				</g>
				<g id="Group_34" transform="translate(16.142 19.195)">
					<path id="Path_289" class="st0" d="M0.3,0l2.8,4.1L3,4.1L0,0.2L0.3,0z"/>
				</g>
			</g>
		</g>
	</g>
	<g id="Group_67" transform="translate(-270 3465.294)">
		<g class="st2">
			<path class="st3" d="M550.5,925.1c0-0.2,0.1-0.4,0.2-0.5c0.7-0.9,1.6-1.6,2.6-2.1c1-0.5,2.1-0.7,3.2-0.8c0.8,0,1.6,0.3,2.3,0.7
				c1.5,1,2.3,2.4,2.8,4.1c0.3,0.9,0.4,1.8,0.4,2.7c0,0.5,0,1.1,0,1.7c0,1-0.2,2-0.5,3c-0.3,0.9-0.6,1.8-0.9,2.7
				c-0.4,1.1-1,2.1-1.6,3.1c-1.2,1.9-2.8,3.5-4.6,4.9c-0.4,0.3-0.8,0.4-1.2,0.6c-0.7,0.4-1.5,0.5-2.2,0.7c-1.2,0.1-2.4,0.1-3.5-0.6
				c-1.4-0.9-2.6-2-3.4-3.4c-0.4-0.7-0.8-1.3-1.2-2c-0.5-0.9-0.9-1.8-1.1-2.8c-0.2-1-0.4-2.1-0.5-3.2c-0.1-1.1,0-2.1,0.4-3.2
				c0.3-0.9,0.5-1.8,0.7-2.7c0.4-1.3,1.1-2.5,2-3.5c0.9-1.2,1.9-2.3,3-3.2c0.1-0.3-0.1-0.4-0.3-0.4c-0.6-0.1-1.2-0.2-1.8-0.3
				c-0.8,0-1.6,0-2.4,0c-0.9,0-1.8,0.1-2.7,0.2c-0.8,0.1-1.7,0.2-2.5,0.5c-0.5,0.2-1,0.4-1.5,0.5c-0.7,0.2-1.4,0.5-2,1.1
				c-0.5,0.4-1.1,0.9-1.6,1.4c-0.5,0.5-0.8,1.2-1.1,1.9c-0.1,0.4-0.2,0.9-0.3,1.3c-0.2,1.3,0.2,2.4,1.3,3.2c0.1,0.1,0.3,0.2,0.5,0.3
				c0,0,0.1,0,0.1,0c0,0,0.1-0.1,0.2-0.1c0.4-1,1-1.8,1.6-2.7c0.5-0.7,1.2-1.1,1.9-1.4c0.8-0.3,1.8,0,2.3,0.7
				c0.2,0.2,0.2,0.4,0.2,0.6c0,0.4-0.1,0.7-0.2,1c-0.5,1.1-1.2,2-2.3,2.6c-0.8,0.4-1.6,0.5-2.5,0.4c-0.1,0-0.3,0-0.4,0
				c-0.2,0.1-0.2,0.2-0.2,0.4c0,0.4,0.2,0.7,0.4,1c0.6,1,1.5,1.7,2.5,2.3c0.3,0.2,0.5,0.2,0.9,0.1s0.6-0.2,0.9-0.3
				c0.2-0.1,0.3-0.2,0.5-0.4c0,0.2,0.2,0.3,0.1,0.4c-0.6,0.7-1.8,1-2.6,0.6c0,0-0.1,0-0.2-0.1c-0.8-0.6-1.6-1.2-2.2-2
				c-0.5-0.6-0.8-1.2-0.8-2c0-0.2-0.1-0.3-0.1-0.5c-0.2-0.2-0.4-0.3-0.6-0.4c-0.3-0.2-0.6-0.5-0.8-0.7c-0.9-0.9-1.1-2-0.8-3.3
				c0-0.2,0.1-0.4,0.1-0.5c0.4-1.4,1-2.6,2.2-3.5c0.9-0.7,1.9-1.3,3-1.8c1.6-0.6,3.2-0.9,5-1.1c0.2,0,0.5,0,0.7,0c0.3,0,0.6,0,0.9,0
				c1.6-0.3,3.2,0,4.8,0.2c0.3,0.1,0.5,0.1,0.8,0.2c1.2-1,2.5-1.6,3.9-2.3c0.5-0.2,1-0.4,1.5-0.5c0.9-0.2,1.8,0,2.7,0.3
				c0.1,0,0.2,0.1,0.3,0.2c0.5,0.4,0.6,0.9,0.2,1.4c-0.4,0.5-0.9,0.8-1.4,1c-1.2,0.3-2.3,0.7-3.5,0.8c-0.4,0-0.7,0.2-1,0.5
				c-0.2,0.2-0.5,0.5-0.7,0.7c-0.8,1.2-1.6,2.4-2.3,3.6c-0.4,0.7-0.6,1.3-0.9,2c-0.3,0.8-0.6,1.5-0.8,2.3c-0.3,1-0.5,2-0.5,3
				c0,0.4,0,0.7-0.1,1.1c-0.1,0.9-0.1,1.8,0,2.8c0,0.2,0.1,0.5,0.1,0.7c0.2,1.3,0.6,2.5,1.4,3.6c0.5,0.7,1,1.4,1.6,2
				c0.4,0.4,0.8,0.6,1.3,0.8c0.2,0.1,0.4,0.1,0.5,0.2c0.6,0.3,1.2,0.2,1.8,0c0.9-0.3,1.8-0.7,2.5-1.4c1.2-1.1,2.3-2.3,3.2-3.6
				c0.5-0.6,0.9-1.3,1.2-2c0.2-0.3,0.3-0.6,0.4-1c0.3-0.8,0.5-1.6,0.8-2.4c0.7-1.9,0.9-3.9,0.8-5.9c0-1-0.2-2-0.6-2.9
				c-0.2-0.3-0.3-0.7-0.5-1c-0.5-1.1-1.5-1.8-2.6-2.4c-0.5-0.3-1.1-0.4-1.7-0.2c-0.6,0.1-1.2,0.2-1.8,0.4c-0.6,0.2-1.1,0.5-1.6,0.9
				c-0.7,0.5-1.3,1.1-2,2C550.5,925.2,550.5,925.2,550.5,925.1z M534.8,931.8c2.1-0.2,3.1-1.1,3.9-3c0,0,0-0.1,0-0.2
				c0.1-0.5-0.1-0.8-0.5-1c-0.5-0.3-1.1-0.3-1.6,0c-0.5,0.2-0.9,0.4-1.2,0.8c-0.6,0.7-1.1,1.4-1.5,2.3c-0.1,0.2-0.2,0.5-0.2,0.8
				C534.5,931.8,534.6,931.8,534.8,931.8z M542.8,929.8c-0.1,0.2-0.2,0.4-0.2,0.5c0,0.1,0,0.2,0.2,0.1c0.1-0.2,0.2-0.5,0.2-0.7
				c0,0,0-0.1,0-0.1s0,0,0,0.1C542.9,929.8,542.9,929.8,542.8,929.8z M543.2,930.7c0,0.1,0,0.2,0,0.2c0,0,0.1,0,0.1-0.1
				S543.3,930.7,543.2,930.7C543.3,930.6,543.2,930.7,543.2,930.7z M543.2,931.8L543.2,931.8L543.2,931.8L543.2,931.8z M544.3,930
				L544.3,930c0,0.3-0.1,0.5-0.2,0.8c-0.1,0.3-0.1,0.5-0.1,0.8c0,0.1,0,0.2,0.2,0.2c0.1-0.6,0.3-1.2,0.4-1.9c0,0,0-0.1,0-0.1
				C544.5,929.9,544.4,930,544.3,930L544.3,930z M544.7,926.1L544.7,926.1C544.7,926.1,544.7,926.2,544.7,926.1
				C544.7,926.2,544.7,926.2,544.7,926.1L544.7,926.1z M544.9,931.6C544.9,931.5,544.9,931.5,544.9,931.6c-0.1-0.1-0.1,0-0.1,0
				c0,0,0,0.1,0,0.2C544.9,931.7,544.9,931.6,544.9,931.6z M544.9,929.1C544.9,929.1,544.9,929.1,544.9,929.1c0,0,0.1,0,0.1-0.1
				l-0.1,0L544.9,929.1C545,929,544.9,929,544.9,929.1z M545,925.6L545,925.6L545,925.6L545,925.6z M545,930.8L545,930.8L545,930.8
				L545,930.8z M545.3,925L545.3,925L545.3,925L545.3,925L545.3,925z M545.3,941.4L545.3,941.4L545.3,941.4
				C545.3,941.4,545.4,941.2,545.3,941.4z M546.3,927c0.1-0.2,0.2-0.4,0.1-0.6c0.1,0,0.1,0,0.2,0c0,0,0,0,0-0.1c0,0-0.1,0.1-0.2,0.1
				C546.3,926.6,546.3,926.9,546.3,927c-0.2,0-0.2,0.3-0.3,0.4h0v0C546.1,927.4,546.2,927.2,546.3,927z M546.5,925.4L546.5,925.4
				c-0.1,0.2-0.2,0.3-0.3,0.4v0.1v0C546.3,925.7,546.4,925.6,546.5,925.4L546.5,925.4z M547.4,924.1L547.4,924.1
				C547.4,924.1,547.3,924.1,547.4,924.1C547.3,924.2,547.3,924.2,547.4,924.1C547.4,924.1,547.4,924.1,547.4,924.1z M552.8,921
				c0.9-0.2,1.8-0.4,2.7-0.7c0.4-0.1,0.7-0.3,0.9-0.5c0.1,0,0.2-0.2,0.2-0.2c0.1-0.2,0.1-0.4,0-0.5c-0.1-0.1-0.2-0.2-0.4-0.2
				c-0.1,0-0.2,0-0.3,0c-0.3,0.1-0.7,0.2-0.9,0.4c-0.7,0.4-1.4,0.8-2.2,1.2c-0.2,0.1-0.4,0.2-0.4,0.5C552.6,921,552.7,921,552.8,921
				z"/>
			<path class="st3" d="M570.3,944.5c0,0-0.3,0.2-0.3,0.2c0,0.2,0,0.5-0.1,0.7c-0.2,1.6-1.3,2.5-2.7,2.9c-0.5,0.2-1.1,0.3-1.7,0.1
				s-1.2-0.9-1.1-1.5c0-0.2,0.1-0.5,0.3-0.6c0.7-0.9,1.6-1.1,2.4-1.2c0-0.2,0-0.4,0-0.6c-0.1-0.6-1.3-7.4-1.5-8
				c-0.2,0.1-0.3,0.2-0.4,0.4c-1.1,1.6-1.5,2.1-2.6,3.8c-0.4,0-0.5,0-0.5,0c0.9-1.5,2-3,3.1-4.4c0.3-0.4,0.5-0.8,0.5-1.4
				c0-0.7,0.1-1.4,0.5-2c0.7-1.1,1.4-2,2.6-2.5c0.5-0.2,1.2,0,1.7,0.3c0.4,0.3,0.5,0.6,0.3,1c-0.2,0.4-0.4,0.7-0.8,0.9
				c-0.2,0.1-0.5,0.2-0.8,0.4c-0.3,1.6-0.5,3.3-0.1,5c0.4,1.8,0.7,3.6,0.9,5.5c0,0.3,0.1,0.5,0.2,0.9c0.4,0,0.7-0.2,1-0.4
				c3.8-2.7,4.4-4.1,4.8-4.5c0.3-0.3,0.4,0,0.4,0.4C575.9,940,573.4,942.8,570.3,944.5z M567,945.7c-0.9,0-1.6,0.4-2,1.2
				c0.3,0.8,0.3,0.8,1,0.9C566.9,947.4,567,946.6,567,945.7z M567.1,939.2H567c0,0.2,0,0.3,0,0.5l0.1,0V939.2z M569.2,932
				c0.7-0.3,0.7-0.3,1-0.8c-0.1-0.3-0.3-0.3-0.5-0.2C569.4,931.2,569.2,931.5,569.2,932z"/>
			<path class="st3" d="M586.2,939.1c-0.3,0.4-0.5,0.9-0.8,1.3c-0.9,1.3-2,2.4-3.1,3.5c-0.2,0.2-0.4,0.4-0.5,0.5
				c-0.7,0.7-1.4,1.1-2.4,1c-0.8-0.1-1.4-0.4-2.1-0.7c0,0-0.1-0.1-0.1-0.1c-0.7-0.9-1.6-1.7-1.8-3c-0.2-1.1-0.3-2.2-0.2-3.2
				c0.1-1.1,0.4-2.2,0.6-3.2c0.6-2.5,0.9-3.2,1.8-5.6c0.5-1.4,1-2.9,1.5-4.3c0.1-0.4,0.2-0.7,0.4-1.1c-0.3-0.2-0.5-0.1-0.8,0
				c-0.8,0.1-1.6,0.1-2.4,0c-1-0.2-1.9-0.5-2.5-1.5c0-0.1-0.1-0.2-0.2-0.3c-0.2,0.1-0.4,0.2-0.5,0.2c-1.8,0.9-4.1-0.4-4.3-2.4
				c0-0.6,0.3-1,0.7-1.4c0.2-0.2,0.5-0.1,0.8,0.4c-0.1,0-0.1,0.1-0.2,0.1c-0.5,0.1-0.7,0.2-0.7,0.7c-0.1,0.5,0,1.1,0.4,1.5
				c0.7,0.7,1.6,1.1,2.5,0.9c0.3,0,0.6-0.1,0.9-0.4c-0.1-0.2-0.2-0.4-0.2-0.6c-0.3-0.8-0.1-1.5,0.5-2.1c0.1-0.2,0.3-0.2,0.4-0.4
				c0.4-0.2,0.7-0.3,1,0c0.4,0.2,0.5,0.5,0.5,1c-0.1,0.6-0.4,1.2-0.8,1.7c-0.2,0.2-0.4,0.3-0.5,0.5c0.3,0.6,0.7,0.9,1.2,1.2
				c0.8,0.4,1.7,0.5,2.6,0.5c0.7,0,1.3-0.1,1.9-0.2c0.3-0.5,0.6-1,0.9-1.5c0.6-0.9,1.2-1.8,2.2-2.5c0.6-0.4,1.3-0.7,2-1.1
				c0.2-0.1,0.4-0.2,0.6,0.2c-0.6,1.2-1.5,2.4-1.8,3.9c0.2,0,0.3,0,0.5,0c0.6-0.2,1.3-0.4,1.9-0.6c0.8-0.3,1.7-0.3,2.5-0.2
				c0.6,0,1,0.4,1.4,0.9c-0.1,0.1-0.1,0.3-0.2,0.4c-0.1,0-0.2,0-0.2,0c-1-1-2.2-0.9-3.4-0.6c-1,0.2-1.9,0.6-3,0.9
				c-0.1,0.3-0.2,0.6-0.3,0.9c-0.4,1.5-0.8,3-1.2,4.5c-0.5,1.8-1,3.5-1.6,5.3c-0.1,0.4-0.3,0.7-0.4,1.1c-0.5,1.3-0.4,0.9-0.8,2.3
				c-0.2,0.6-0.3,1.2-0.4,1.8c-0.2,0.9-0.3,1.8-0.4,2.6c0,0.4,0,0.8,0.1,1.2c0.2,1,1,1.6,2,1.6c0.2,0,0.4,0,0.7,0
				c0.3-0.3,0.7-0.6,1.1-1c0.5-0.5,0.9-1,1.4-1.4c0.9-0.9,1.7-2,2.4-3.1c0.2-0.4,0.4-0.7,0.7-1c0.2-0.3,0.4-0.6,0.6-0.9
				c0.1,0,0.2,0,0.2,0.1c0,0,0,0.1,0,0.2c0,0.2-0.1,0.4-0.2,0.5c0,0-0.1,0.1-0.1,0.2c-0.1,0.1-0.2,0.2-0.2,0.3
				C586.6,938.6,586.4,938.8,586.2,939.1z M573.8,921.5c0.3,0,0.5-0.2,0.6-0.4c0.2-0.4,0.3-0.8,0.4-1.2c0.1-0.4,0.1-0.5-0.4-0.7
				C573.3,919.8,573.1,920.5,573.8,921.5z M577,936.1L577,936.1c0,0.1,0,0.2,0,0.2c0,0,0,0,0,0V936.1z M578.1,930.9L578.1,930.9
				L578.1,930.9L578.1,930.9z M578.3,930.4C578.3,930.4,578.3,930.4,578.3,930.4C578.3,930.4,578.3,930.4,578.3,930.4
				c0.1-0.1,0-0.1,0-0.1C578.3,930.3,578.3,930.4,578.3,930.4z M578.8,932c0.3-0.9,0.5-1.8,0.8-2.7
				C579.1,930.2,578.7,931.4,578.8,932z"/>
			<path class="st3" d="M600,939.3c-0.1,0.3-0.4,0.5-0.5,0.8c-0.4,0.7-1,1.5-1.5,2.1c0,0-0.2,0.2-0.2,0.2c-0.7,1-1.8,1.6-2.8,2.1
				c-0.4,0.2-0.2,0.2-0.6,0.3c-0.3,0.1-0.6,0.2-0.9,0.3c-0.3,0.1-0.4,0.2-0.7,0.2c-0.6,0.1-1.2,0-1.8,0c-0.7,0-1.3-0.1-2-0.3
				c-0.8-0.2-1.6-0.6-2.3-1.1c-0.6-0.5-1.1-1.3-1.3-2.1c-0.2-0.5-0.2-1.1-0.3-1.6c-0.3-2.7,1.9-5.7,3.8-7.4c0.5-0.4,1.1-0.7,1.7-1
				c0.7-0.4,1.4-0.5,2.1-0.5c0.4-0.1,0.8,0.1,1.2,0.2c0.4,0.2,0.8,0.3,1.1,0.6c0.5,0.3,0.9,1,1,1.6c0.1,0.7-0.3,1.3-0.7,1.8
				c-0.6,0.7-1.2,1.4-2,1.8c-0.3,0.2-0.6,0.3-0.9,0.4c-0.6,0.2-1.2,0.2-1.9,0.3c-0.3,0-0.5,0-0.8,0c-0.2,0-0.4,0-0.5,0
				c0,0.4-0.2,0.7-0.2,1.1c-0.4,1.9-0.2,4.3,1.9,5.1c0.2,0.1,0.4,0.1,0.6,0.2c0.3,0.1,0.5,0.1,0.8,0.1c0.7,0,1,0,1.6-0.3
				c0.5-0.3,1-0.3,1.5-0.6c0.6-0.4,0.7-0.5,0.9-0.8c0.2-0.2,0.5-0.5,0.7-0.8c1.1-1.3,1.2-1.6,2.2-2.9c0.1-0.1,0.2-0.2,0.3-0.2
				c0.1,0,0.2,0.1,0.2,0.2C600.1,939.1,600.1,939.2,600,939.3z M586.4,941.2c0-0.1,0-0.2,0-0.4s-0.1-0.2-0.2-0.3c0,0,0,0-0.1,0
				C586.2,940.8,586.3,941,586.4,941.2C586.3,941.3,586.4,941.3,586.4,941.2z M588.9,934.7L588.9,934.7L588.9,934.7L588.9,934.7z
				 M589.3,934.4c0,0,0.1,0,0.1,0l0.2-0.4c0,0-0.1,0-0.1,0C589.4,934.1,589.3,934.3,589.3,934.4z M589.9,937.1c1.3,0.4,3,0,4.1-0.8
				c0.8-0.5,1.3-1.4,1.5-2.3c0-0.5-0.2-1-0.6-1.3c-0.1-0.1-0.3-0.2-0.4-0.3c-0.4-0.2-0.8-0.4-1.2-0.2c-0.5,0.2-0.9,0.6-1.2,1
				c-0.5,0.5-0.9,1.2-1.2,1.8C590.3,935.7,590,936.3,589.9,937.1z"/>
			<path class="st3" d="M614.1,939.7c0,0.1-0.2,0.2-0.2,0.3c-0.1,0.2-0.2,0.3-0.3,0.5c-0.9,1.3-1.8,2.6-3,3.6
				c-0.2,0.2-0.3,0.4-0.5,0.5c-0.5,0.5-1.1,0.9-1.8,1c-0.2,0-0.4,0.2-0.6,0.2c-0.4,0.2-0.7,0.2-1.1,0.2c-0.2,0-0.4,0-0.6,0
				c-0.4,0-0.7-0.2-1-0.5c-0.7-0.8-0.9-1.7-0.5-2.7c0.3-1.1,0.7-2.1,1.1-3.1c0.6-1.5,1.2-2.9,1.8-4.4c0.2-0.4,0.2-0.8,0-1.2
				c-0.6,0.1-1.1,0.4-1.6,0.6c-0.5,0.2-0.9,0.4-1.4,0.5c-0.2,0-0.4,0-0.5,0c-0.2,0-0.4-0.1-0.6-0.2c-0.2,0.4-0.3,0.7-0.5,1
				c-0.1,0.2-0.2,0.4-0.4,0.7c-0.7,1.2-1.6,2.5-2.5,3.6c0,0-0.1,0.1-0.2,0.2c0,0-0.1,0.1-0.2,0.2c-0.1,0-0.2,0.1-0.2,0.2
				c-0.1,0-0.2,0-0.3,0c0,0,0-0.1,0-0.1s0,0,0-0.1c0.1,0,0.1-0.1,0.2-0.2c0.5-0.5,0.9-1.2,1.4-1.8s0.9-1.3,1.3-2
				c0.3-0.5,0.5-1,0.7-1.5c0-0.1,0-0.2-0.1-0.2c-0.7-0.4-1.1-1-1.5-1.6c-0.2-0.4-0.5-0.7-0.7-1.1c-0.2-0.4-0.4-0.9-0.3-1.3
				c0.1-0.7,0.3-1.4,0.8-2c0.2-0.2,0.5-0.5,0.8-0.6c1.1-0.6,2.2-0.1,2.5,1.1c0.2,0.9,0.2,1.8,0.1,2.6c-0.1,0.7-0.4,1.4-0.5,2
				c0,0.2-0.1,0.4-0.1,0.5c0.4,0.2,0.7,0.1,1,0c0.7-0.2,1.3-0.4,1.8-0.7c0.4-0.2,0.7-0.4,1.1-0.4c0.3,0,0.6,0,0.9,0
				c0.4-0.1,0.7,0.1,1,0.3c0.8,0.6,1.2,1.3,1.1,2.3c-0.2,0.9-0.5,1.7-0.9,2.6c-0.5,1.2-1.1,2.4-1.6,3.6c-0.3,0.7-0.4,1.5-0.4,2.3
				c0.2,0.2,0.3,0.3,0.4,0.4c0.3,0.3,0.7,0.2,1,0.1c0.2-0.1,0.3-0.2,0.4-0.3c1.3-1.1,2.5-2.3,3.4-3.7c0.3-0.5,0.6-0.9,0.9-1.3
				c0,0,0.1-0.1,0.1-0.1c0-0.1,0.2,0,0.2,0c0.1,0.1,0.1,0.2,0.1,0.2C614.1,939.6,614.1,939.6,614.1,939.7z M603.6,932.1
				c0.2-0.9,0.2-1.8,0-2.8c-0.1-0.6-0.7-1.1-1.3-0.9c-0.6,0.2-1.1,0.5-1.4,1.2c-0.1,0.3-0.2,0.6-0.3,0.9c-0.1,0.5,0,0.9,0.2,1.3
				c0.4,0.6,0.7,1.2,1.1,1.8c0.2,0.3,0.5,0.5,0.9,0.7C603.4,933.5,603.5,932.8,603.6,932.1z M606.2,941.3c-0.3,0-0.2,0.3-0.3,0.4
				c0,0,0,0,0,0c0,0,0,0,0,0C606.2,941.7,606.1,941.4,606.2,941.3z M606.4,940.8c-0.2,0.1-0.2,0.3-0.1,0.5
				C606.3,941.1,606.3,941,606.4,940.8z M606.2,939.6C606.2,939.6,606.2,939.6,606.2,939.6C606.2,939.6,606.2,939.6,606.2,939.6z
				 M606.8,938.5c-0.1,0.1-0.2,0.1-0.2,0.2C606.7,938.7,606.8,938.7,606.8,938.5z M606.6,938.9C606.6,938.9,606.6,938.9,606.6,938.9
				c0-0.1,0-0.2,0-0.2C606.5,938.8,606.5,938.8,606.6,938.9C606.5,938.9,606.6,938.9,606.6,938.9z M606.9,938.1c0,0.1,0,0.3-0.1,0.4
				C607,938.4,606.9,938.2,606.9,938.1z M607.3,937.5c-0.1,0.2-0.2,0.4-0.4,0.6C607.3,938,607.3,937.8,607.3,937.5z M607.4,937.1
				c-0.1,0.1-0.1,0.2-0.1,0.3C607.3,937.3,607.3,937.3,607.4,937.1z"/>
			<path class="st3" d="M618.3,943.8c-0.2,0.2-0.5,0.3-0.7,0.5c-0.5,0.5-1.1,0.7-1.8,0.7c-1.2,0.2-2.1-0.3-2.7-1.2
				c-0.2-0.2-0.2-0.6-0.2-0.9c0-0.5,0.1-1.1,0.1-1.6c0.1-0.5,0.3-1.1,0.4-1.6c0.1-0.5,0.3-1.1,0.4-1.6c0.4-1,0.7-2,1-3
				c0.1-0.4,0.2-0.8,0.3-1.2c0.1-0.4,0.2-0.8,0.4-1.2c0.9-0.2,1.7-0.7,2.6-0.5c0.3,0.4,0.4,0.7,0.3,1.1c-0.1,0.6-0.2,1.2-0.4,1.8
				c-0.5,1.7-1.1,3.4-1.6,5.1c-0.2,0.9-0.4,1.8-0.5,2.6c0,0.3,0,0.6,0.1,0.8c0.2,0.6,0.5,0.7,1,0.4c0.5-0.3,0.9-0.6,1.3-0.9
				c1.1-0.8,2.1-1.6,2.9-2.6c0.6-0.7,1.2-1.3,1.7-2.1c0.1-0.2,0.2-0.3,0.4-0.3c0.1,0.1,0,0.2,0,0.4c0,0.1,0,0.2,0,0.3
				c0,0.2-0.2,0.3-0.3,0.4c-0.2,0.2-0.4,0.4-0.5,0.7c-0.4,0.4-0.7,0.8-1.1,1.2C620.4,942.2,619.4,943.1,618.3,943.8z M613.2,940.4
				v-0.3h0.1L613.2,940.4L613.2,940.4z M615.5,938c-0.1,0.3-0.4,0.6-0.2,0.9C615.4,938.6,615.4,938.3,615.5,938z M615.4,940.5
				L615.4,940.5C615.4,940.5,615.4,940.5,615.4,940.5L615.4,940.5C615.4,940.5,615.4,940.5,615.4,940.5z M616.6,928.5
				c0.2-0.5,0.5-0.9,1-1.1c0.2-0.1,0.5-0.2,0.7-0.1c0.2,0.1,0.3,0.2,0.4,0.4c0.1,0.3,0.2,0.6,0.1,0.9c-0.1,0.5-0.4,0.9-0.7,1.1
				c-0.4,0.3-0.7,0.7-1.3,0.5C616.3,929.7,616.3,929.1,616.6,928.5z M616.5,938L616.5,938c0-0.1,0-0.1,0-0.1
				C616.5,937.9,616.5,937.9,616.5,938C616.5,937.9,616.5,938,616.5,938z M617.1,928.9L617.1,928.9L617.1,928.9L617.1,928.9z"/>
			<path class="st3" d="M640,939.3c0,0.1,0,0.2,0,0.3c0,0.2-0.2,0.3-0.3,0.4c-0.2,0.2-0.4,0.4-0.5,0.7c-0.4,0.4-0.7,0.8-1.1,1.2
				c-0.9,1-1.9,1.8-2.9,2.5c-0.2,0.2-0.5,0.3-0.7,0.5c-0.5,0.5-1.1,0.7-1.8,0.7c-0.9,0.1-1.6-0.2-2.3-0.7c0,0,0,0,0,0
				c-0.5-0.4-0.8-1.1-0.9-1.7l-0.1,0.1c-0.5,0.4-1.1,0.9-1.7,1.1c-0.7,0.4-1.5,0.5-2.3,0.6c-2,0.2-3.8-1.4-4.1-3.3
				c-0.1-0.5-0.1-1.1-0.1-1.6c0-2.8,2.3-5.7,4.2-7.5c0.5-0.4,1.1-0.7,1.7-0.9c0.6-0.4,1.2-0.5,1.9-0.5c1.1-0.2,2.1,0.5,2.5,1.6
				c0.1,0.2,0.1,0.5,0.1,0.8c0,0.2-0.1,0.5-0.3,0.6c-0.2,0.1-0.5,0-0.7-0.2c-0.1-0.1-0.1-0.3-0.2-0.4v-0.5c0.1-0.9-0.6-1.3-1.3-0.9
				c-0.5,0.2-0.9,0.6-1.2,1c-1.4,1.7-2.4,3.7-3,5.8c-0.4,1.4-0.7,3.7,0.3,4.7c0.7,0.7,2.3,0.2,2.9-0.3c0.9-0.6,1.5-1.5,1.9-2.5v0
				h0.1v-0.3c0.2-0.8,0.3-1.9,0.5-2.6c0.3-1.1,0.8-2,1.1-3.1c0.1-0.3,0.2-1.3,0.5-1.5c0,0,0-0.1,0.1-0.2c0.9-0.2,1.7-0.7,2.6-0.5
				c0.3,0.4,0.4,0.7,0.3,1.1c-0.1,0.6-0.2,1.2-0.4,1.8c-0.5,1.7-1.1,3.4-1.6,5.1c-0.2,0.9-0.4,1.8-0.5,2.6c0,0.3,0,0.6,0.1,0.8
				c0.2,0.6,0.5,0.7,1,0.4c0.5-0.3,0.9-0.6,1.3-0.9c1.1-0.8,2.1-1.6,2.9-2.6c0.6-0.7,1.2-1.3,1.7-2.1c0.1-0.2,0.2-0.3,0.4-0.3
				C640.2,939.1,640.1,939.2,640,939.3z M622.2,940.8c0-0.1,0-0.2-0.1-0.3c0,0,0,0-0.1,0l0.1,0.7c0,0,0,0,0.1,0V940.8z M625.1,934.7
				L625.1,934.7L625.1,934.7L625.1,934.7z M625.5,934.4C625.5,934.4,625.6,934.4,625.5,934.4l0.3-0.4c0,0-0.1,0-0.1,0
				C625.6,934.1,625.5,934.2,625.5,934.4z M630.5,942.9C630.5,942.9,630.6,943,630.5,942.9c0.1,0,0.2,0,0.2-0.1
				C630.7,942.8,630.6,942.9,630.5,942.9z M631.4,942.4C631.4,942.5,631.3,942.5,631.4,942.4c-0.1,0.2,0,0.3,0,0.6
				c0.1-0.3,0.1-0.4,0.1-0.4C631.4,942.6,631.4,942.5,631.4,942.4z M631.7,942.8h-0.1c0,0,0,0.1,0,0.1
				C631.7,942.9,631.7,942.9,631.7,942.8C631.8,942.9,631.7,942.8,631.7,942.8z M632,938.6c0,0,0.1,0,0.1,0l-0.2-0.3
				C632,938.5,632,938.6,632,938.6z M632.2,939.6c0.1-0.3,0.1-0.6,0.2-0.9C632.3,938.9,632.1,939.2,632.2,939.6z M632.3,941.2
				L632.3,941.2C632.3,941.1,632.3,941.1,632.3,941.2L632.3,941.2C632.3,941.1,632.3,941.1,632.3,941.2z M633,936v0.4
				C633.3,936.2,633.3,936.2,633,936z M633.4,938.6L633.4,938.6c0-0.1,0-0.1,0-0.1C633.4,938.5,633.4,938.5,633.4,938.6
				C633.3,938.5,633.4,938.6,633.4,938.6z"/>
			<path class="st3" d="M659.5,943.4c0.6,0.4,1.2,0.6,1.8,0.9c1.2,0.7,2.6,1,4,1.2c0.9,0.2,1.8,0.4,2.7,0.5c1.1,0.2,2.2-0.1,2.9-1.1
				c0.3,0,0.5-0.1,0.8-0.2c0,0.1,0.1,0.1,0.1,0.2c-0.2,0.6-0.4,1.2-1,1.6c-0.9,0.4-1.8,0.8-2.7,1c-1.5,0.3-3,0.4-4.6,0
				c-0.7-0.2-1.5-0.4-2.2-0.5c-1.5-0.4-2.8-1.1-4.1-1.9c-0.5-0.4-1-0.6-1.5-0.8c-0.5,0.3-1,0.6-1.5,0.9c-0.7,0.4-1.4,0.4-2.2,0.5
				c-0.4-0.1-0.9-0.1-1.3-0.5c-0.3-0.4-0.7-0.6-0.9-1.1c-0.2-0.3-0.2-0.6,0-0.9c0.2-0.4,0.5-0.7,0.9-1c0.9-0.7,1.8-1.1,2.9-1.1
				c0.2,0,0.4,0,0.5,0c0.3-0.4,0.4-0.8,0.5-1.2c0.7-2.2,1.4-5.3,2.1-7.5c0.2-0.5,0.4-1.1,0.6-1.7c0.8-2.3,1.6-4.5,2.5-6.8
				c0.2-0.5,0.5-1.1,0.7-1.6c0.2-0.4,0.4-0.7,0.6-1.2c-0.2,0-0.4-0.1-0.5-0.2c-0.6-0.1-1.3-0.2-1.9-0.2c-0.9-0.1-1.9-0.2-2.8-0.3
				c-0.4-0.1-0.9-0.2-1.3-0.2c-0.5,0-1,0-1.5,0c-1,0.2-1.8,0.6-2.7,1.1c-1.1,0.7-1.7,1.8-1.9,3c-0.2,1,0,1.9,0.8,2.7
				c0.3,0.2,0.5,0.5,0.8,0.8c0.1-0.2,0.2-0.3,0.3-0.4c0.6-1.2,1.6-2,2.8-2.7c0.5-0.3,1-0.5,1.6-0.5c0.4,0,0.7,0.2,1,0.5
				c0.7,1,0.6,1.9-0.4,2.9c-0.5,0.5-1.2,0.8-1.8,1.1c0,0-0.1,0-0.1,0c-1.5,0.4-1.2,0.5-2.8-0.1c0,0-0.1,0-0.2,0
				c-0.2,0.7-0.3,1.4,0.2,2c0.7,1.1,1.8,1.7,3.1,1.5c0.4,0,0.7-0.2,1.1-0.3c0,0.1,0.1,0.3,0,0.4c-0.2,0.2-0.5,0.4-0.9,0.4
				c-0.5,0-1,0-1.5,0c-0.5-0.1-1-0.3-1.4-0.7c-0.2-0.2-0.4-0.4-0.6-0.6c-0.5-0.5-0.7-1.1-0.7-1.8c0-0.4,0-0.8,0.1-1.1
				c-0.5-0.5-0.9-1.1-1.4-1.6c-0.3-0.3-0.4-0.7-0.5-1.1c-0.1-0.7-0.1-1.4,0.2-2.1c0.5-1.4,1.4-2.6,2.8-3.2c0.7-0.3,1.4-0.6,2.1-0.8
				c0.5-0.1,1.1-0.1,1.6,0c0.7,0.1,1.3,0.2,2,0.2c0.7,0.1,1.4,0.2,2.1,0.3c0.9,0.1,1.8,0.2,2.7,0.2c0.1-0.2,0.2-0.4,0.3-0.5
				c0.9-1.4,2.2-2.4,3.7-3c0.7-0.3,1.3-0.2,2,0.2c0.4,0.7,0.2,1.3-0.3,1.9c-0.5,0.5-1,0.9-1.6,1.2s-1.1,0.7-1.3,1.3
				c-0.3,0.7-0.5,1.4-0.7,2.1c-0.2,0.4-0.3,0.8-0.5,1.1c-0.5,0.7-0.7,1.6-1,2.4c-0.6,2.1-1.2,4.2-2,6.3c-0.4,1-0.6,2.1-0.9,3.1
				c-0.5,1.5-1,3.9-1.8,5.3C658.1,942.6,658.8,943,659.5,943.4z M652.8,942.8c-0.4,0-0.7-0.1-1.1-0.1c-0.9-0.1-1.2,0.2-1.5,1
				c0.2,0.8,0.8,1.1,1.6,1.1c0.8-0.6,1.1-1,1.4-1.9C653.1,942.9,653,942.8,652.8,942.8z M652.8,928.8c0.3-0.1,0.6-0.2,0.9-0.3
				c0.7-0.3,1.4-0.7,1.9-1.3c0.4-0.6,0.2-1.3-0.2-1.8c-0.3-0.4-0.7-0.5-1.4-0.2c-0.1,0-0.2,0.1-0.3,0.1c-0.4,0.3-0.8,0.5-1.2,0.8
				c-0.7,0.5-1.3,1.2-1.7,2.1C651.4,928.8,652,929,652.8,928.8z M655.1,942.8L655.1,942.8L655.1,942.8
				C655,942.8,655.1,942.8,655.1,942.8L655.1,942.8z M655.5,940.8C655.5,940.8,655.5,940.8,655.5,940.8c0-0.1,0-0.2,0-0.2
				c0.1,0,0.2,0,0.3-0.2v0l0,0c-0.1,0.1-0.2,0.1-0.2,0.2C655.4,940.7,655.4,940.8,655.5,940.8z M656,942.4c0,0,0.1,0,0.1,0
				c0-0.1,0-0.2,0-0.2c0.2,0,0.2-0.2,0.2-0.3c0.2,0,0.2-0.2,0.1-0.4c0,0,0.1,0,0.1,0c0,0,0,0-0.1,0c0,0.1-0.1,0.2-0.1,0.4
				c-0.1,0.1-0.1,0.2-0.2,0.3C656.1,942.2,656,942.3,656,942.4z M656.7,937.7C656.7,937.8,656.7,937.7,656.7,937.7
				c0.2,0,0.3-0.2,0.3-0.3c0.3-0.6,0.5-1.2,0.7-1.8c0-0.1,0-0.2,0.1-0.5c-0.2,0.2-0.2,0.3-0.3,0.4
				C657.2,936.2,656.9,936.9,656.7,937.7C656.7,937.7,656.6,937.8,656.7,937.7z M657.1,935.6C657.1,935.6,657.1,935.7,657.1,935.6
				C657.1,935.7,657.1,935.7,657.1,935.6C657.1,935.7,657.1,935.6,657.1,935.6C657.1,935.6,657.1,935.6,657.1,935.6z M657.5,934.8
				L657.5,934.8c0.2-0.3,0.4-0.7,0.5-1.1C657.7,934,657.4,934.3,657.5,934.8L657.5,934.8z M658,934.5C658,934.4,658,934.4,658,934.5
				c0,0-0.1,0-0.1,0c0,0,0,0.1,0,0.2c0,0,0-0.1,0-0.2C657.9,934.5,657.9,934.5,658,934.5z M659.2,930.3L659.2,930.3c0,0,0,0.1,0,0.2
				c0,0-0.1,0-0.2,0c-0.3,0.7-0.6,1.3-0.7,2.1c0,0.1-0.1,0.1-0.1,0.2s0,0,0,0c0-0.1,0-0.1,0-0.2c0,0,0.2,0,0.2-0.1
				c0.2-0.7,0.5-1.3,0.7-2C659.1,930.4,659.2,930.4,659.2,930.3z M658.5,945.1C658.5,945.1,658.5,945.1,658.5,945.1
				C658.5,945.1,658.5,945.1,658.5,945.1C658.5,945.1,658.5,945.1,658.5,945.1z M658.8,932.2L658.8,932.2L658.8,932.2L658.8,932.2z
				 M659,931.8C659,931.8,659,931.8,659,931.8C659,931.8,659,931.8,659,931.8C659,931.8,659,931.8,659,931.8
				C659,931.8,659,931.8,659,931.8z M659.1,927.9C659.1,927.8,659.1,927.9,659.1,927.9C659.1,927.9,659.1,927.9,659.1,927.9
				C659.1,927.9,659.1,927.9,659.1,927.9C659.1,927.9,659.1,927.8,659.1,927.9z M659.1,931.3C659.1,931.3,659.1,931.4,659.1,931.3
				C659.2,931.3,659.2,931.3,659.1,931.3C659.2,931.3,659.2,931.3,659.1,931.3L659.1,931.3z M659.9,932c0,0,0-0.1,0-0.1
				c0-0.1,0.1-0.2,0.2-0.2c0,0-0.1,0-0.1,0c0,0.1,0,0.2,0,0.2C660,932,660,932,659.9,932z M660.6,927.9L660.6,927.9
				C660.6,927.9,660.6,927.9,660.6,927.9c0.5-0.6,0.7-1.2,0.7-1.8C660.8,926.7,660.6,927.2,660.6,927.9
				C660.6,927.9,660.6,927.9,660.6,927.9z M661.8,921.3C661.8,921.3,661.8,921.3,661.8,921.3C661.8,921.3,661.8,921.3,661.8,921.3
				C661.8,921.3,661.8,921.3,661.8,921.3z M661.9,946C661.8,945.9,661.8,945.9,661.9,946C661.8,946,661.8,946,661.9,946
				C661.8,946,661.8,946,661.9,946L661.9,946z M662.2,921.8L662.2,921.8c0.3-0.1,0.4-0.4,0.4-0.7
				C662.2,921.1,662.2,921.5,662.2,921.8L662.2,921.8z M666.9,918.8c0.1-0.2,0.2-0.4,0.3-0.6c0.1-0.2,0-0.4-0.2-0.4
				c-0.7,0.5-1.1,1-1.8,2C666.1,919.7,666.5,919.3,666.9,918.8z M669.5,946.5C669.5,946.5,669.5,946.5,669.5,946.5
				c-0.1,0-0.1,0.1-0.1,0.1c0,0-0.1,0-0.1,0s-0.1,0-0.1,0.1c0,0,0,0,0.1,0c0,0,0.1,0,0.1-0.1C669.5,946.5,669.5,946.5,669.5,946.5z"
				/>
			<path class="st3" d="M687.3,939.3c0,0.1,0,0.2,0,0.3c0,0.2-0.2,0.3-0.3,0.4c-0.2,0.2-0.4,0.4-0.5,0.7c-0.4,0.4-0.7,0.8-1.1,1.2
				c-0.9,1-1.9,1.8-2.9,2.5c-0.2,0.2-0.5,0.3-0.7,0.5c-0.5,0.5-1.1,0.7-1.8,0.7c-0.9,0.1-1.6-0.2-2.3-0.7c0,0,0,0,0,0
				c-0.5-0.4-0.8-1.1-0.9-1.7l-0.1,0.1c-0.5,0.4-1.1,0.9-1.7,1.1c-0.7,0.4-1.5,0.5-2.3,0.6c-2,0.2-3.8-1.4-4.1-3.3
				c-0.1-0.5-0.1-1.1-0.1-1.6c0-2.8,2.3-5.7,4.2-7.5c0.5-0.4,1.1-0.7,1.7-0.9c0.6-0.4,1.2-0.5,1.9-0.5c1.1-0.2,2.1,0.5,2.5,1.6
				c0.1,0.2,0.1,0.5,0.1,0.8c0,0.2-0.1,0.5-0.3,0.6c-0.2,0.1-0.5,0-0.7-0.2c-0.1-0.1-0.1-0.3-0.2-0.4v-0.5c0.1-0.9-0.6-1.3-1.3-0.9
				c-0.5,0.2-0.9,0.6-1.2,1c-1.4,1.7-2.4,3.7-3,5.8c-0.4,1.4-0.7,3.7,0.3,4.7c0.7,0.7,2.3,0.2,2.9-0.3c0.9-0.6,1.5-1.5,1.9-2.5v0
				h0.1v-0.3c0.2-0.8,0.3-1.9,0.5-2.6c0.3-1.1,0.8-2,1.1-3.1c0.1-0.3,0.2-1.3,0.5-1.5c0,0,0-0.1,0.1-0.2c0.9-0.2,1.7-0.7,2.6-0.5
				c0.3,0.4,0.4,0.7,0.3,1.1c-0.1,0.6-0.2,1.2-0.4,1.8c-0.5,1.7-1.1,3.4-1.6,5.1c-0.2,0.9-0.4,1.8-0.5,2.6c0,0.3,0,0.6,0.1,0.8
				c0.2,0.6,0.5,0.7,1,0.4c0.5-0.3,0.9-0.6,1.3-0.9c1.1-0.8,2.1-1.6,2.9-2.6c0.6-0.7,1.2-1.3,1.7-2.1c0.1-0.2,0.2-0.3,0.4-0.3
				C687.4,939.1,687.4,939.2,687.3,939.3z M669.5,940.8c0-0.1,0-0.2-0.1-0.3c0,0,0,0-0.1,0l0.1,0.7c0,0,0,0,0.1,0V940.8z
				 M672.4,934.7L672.4,934.7L672.4,934.7L672.4,934.7z M672.8,934.4C672.8,934.4,672.8,934.4,672.8,934.4l0.3-0.4c0,0-0.1,0-0.1,0
				C672.9,934.1,672.8,934.2,672.8,934.4z M677.8,942.9C677.8,942.9,677.8,943,677.8,942.9c0.1,0,0.2,0,0.2-0.1
				C677.9,942.8,677.9,942.9,677.8,942.9z M678.6,942.4C678.6,942.5,678.6,942.5,678.6,942.4c-0.1,0.2,0,0.3,0,0.6
				c0.1-0.3,0.1-0.4,0.1-0.4C678.7,942.6,678.7,942.5,678.6,942.4z M679,942.8h-0.1c0,0,0,0.1,0,0.1C679,942.9,679,942.9,679,942.8
				C679,942.9,679,942.8,679,942.8z M679.3,938.6c0,0,0.1,0,0.1,0l-0.2-0.3C679.2,938.5,679.3,938.6,679.3,938.6z M679.5,939.6
				c0.1-0.3,0.1-0.6,0.2-0.9C679.6,938.9,679.3,939.2,679.5,939.6z M679.6,941.2L679.6,941.2C679.6,941.1,679.6,941.1,679.6,941.2
				L679.6,941.2C679.6,941.1,679.6,941.1,679.6,941.2z M680.3,936v0.4C680.5,936.2,680.5,936.2,680.3,936z M680.6,938.6L680.6,938.6
				c0-0.1,0-0.1,0-0.1C680.7,938.5,680.6,938.5,680.6,938.6C680.6,938.5,680.6,938.6,680.6,938.6z"/>
			<path class="st3" d="M707.9,924.9c-1.4,0-2.8-0.2-4.3-0.4c-0.8,0-1.7,0-2.5,0c-0.2,0-0.4,0.1-0.6,0.2c-1,0.4-2,0.8-2.8,1.5
				c-0.9,0.6-1.8,1.8-1.9,3c-0.1,1.5,0.2,2.9,1.3,4.1c0.2,0.2,0.5,0.4,0.9,0.4c0.2-0.2,0.2-0.4,0.2-0.6c0.2-1,0.6-1.9,1.1-2.7
				c0.2-0.2,0.3-0.4,0.5-0.5c0.4-0.3,0.9-0.4,1.3-0.1c0.1,0.1,0.3,0.3,0.4,0.4c0.1,0.3,0.2,0.6,0.2,0.9c-0.1,0.7-0.3,1.3-0.7,1.9
				c-0.4,0.6-1,1-1.6,1.2c-0.2,0.1-0.4,0.1-0.5,0.3c0,0.1,0,0.2,0,0.3c0,0.7,0.4,1.3,0.7,1.8c0.5,0.7,1.2,1,2,1c0.3,0,0.7-0.2,1,0
				c0,0,0.1,0,0,0.1c0,0.1,0,0.2-0.1,0.2c0,0-0.1,0.1-0.2,0.1c-0.2,0-0.3,0-0.4,0c-0.7,0.2-1.4,0-2-0.4c-0.3-0.2-0.5-0.4-0.7-0.7
				c-0.4-0.5-0.7-1.1-0.8-1.8c0-0.2-0.1-0.4-0.2-0.7c-0.2-0.1-0.3-0.1-0.4-0.2c-0.8-0.3-1.4-0.9-1.8-1.6c-0.4-0.7-0.7-1.6-0.7-2.4
				c0-0.4,0-0.7,0-1.1c0.1-0.6,0.3-1.1,0.6-1.6c0.7-0.9,1.4-1.7,2.4-2.2c0.6-0.4,1.2-0.7,1.9-0.9c0.4-0.1,0.7-0.2,1.1-0.2
				c1.4,0,2.8,0,4.2,0.2c1.1,0.2,2.2,0.2,3.3,0.1c0.2-0.3,0.3-0.5,0.4-0.7c0.5-1.2,1.3-2.1,2.2-3c0.6-0.6,1.4-0.9,2.3-1.1
				c0.2-0.1,0.5,0,0.7,0.1c0.2,0.1,0.5,0.3,0.7,0.4c0.2,0.6,0,1.1-0.3,1.5c-0.4,0.7-0.9,1.2-1.6,1.6c-0.2,0.1-0.4,0.2-0.6,0.3
				c-0.1,0.2-0.2,0.4-0.2,0.6c-0.2,0.7-0.5,1.4-0.7,2.1c-0.2,0.7-0.4,1.5-0.5,2.3s-0.4,1.5-0.4,2.3c-0.2,1.4-0.4,2.8-0.4,4.2
				c0,1.7,0,3.3,0,5c0,0.8,0.1,1.5,0.3,2.2c0.2,0.7,0.4,1.3,0.7,2c0.2,0.7,0.6,1.3,1.2,1.8c0.6,0,1.1-0.4,1.5-0.8
				c1.1-1.2,2.1-2.3,3.1-3.4c0.2-0.2,0.3-0.4,0.4-0.5c1.1-1.8,2.2-3.5,3-5.4c0.3-0.7,0.7-1.4,1-2.1c0.3-0.5,0.5-1.1,0.7-1.7
				c0.7-1.8,1.3-3.7,2-5.5c0.2-0.4,0.2-0.8,0.3-1.2c0.4-1.1,0.7-2.1,1.1-3.2c0.3-0.9,0.5-1.8,0.6-2.8c0-0.5,0.2-1,0.2-1.5
				c0-0.1,0.1-0.2,0.1-0.3c0,0,0.2-0.1,0.2-0.1s0.2,0.1,0.2,0.1c0,0.2,0,0.4,0,0.5c-0.2,0.6-0.2,1.2-0.3,1.9
				c-0.1,0.7-0.4,1.5-0.5,2.2c-0.3,1.1-0.7,2.1-1,3.2c-0.5,1.7-1.1,3.4-1.7,5c-0.3,0.7-0.5,1.5-0.8,2.2c-0.4,0.9-0.8,1.8-1.2,2.7
				c-0.1,0.3-0.3,0.5-0.4,0.8c-0.8,1.9-1.9,3.7-3,5.5c-0.5,0.8-1.2,1.4-1.8,2.1c-0.5,0.6-1.1,1.1-1.6,1.7c-0.6,0.6-1.2,1.1-2,1.2
				c-0.2,0-0.3,0.1-0.4,0.2c-0.4,0.2-0.7,0.1-1.1-0.2c-0.3-0.2-0.5-0.4-0.7-0.6c-0.9-0.9-1.4-2-1.9-3.1c-0.1-0.2-0.1-0.4-0.2-0.5
				c-0.6-1.1-0.8-2.3-1.1-3.5c-0.2-0.5-0.2-1.1-0.4-1.6c-0.2-0.7-0.2-1.4-0.2-2.1c0-0.6,0-1.1,0-1.7c-0.1-1.6,0.2-3.1,0.6-4.6
				c0.4-1.1,0.6-2.3,1-3.4c0.1-0.1,0.1-0.3,0.1-0.5C708.2,924.9,708.1,924.9,707.9,924.9z M699,933.6c1.2-0.4,2.2-2,1.9-3.2
				c-0.1-0.4-0.5-0.5-0.9-0.4c-0.1,0.1-0.2,0.2-0.3,0.3c-0.6,0.9-1.1,1.8-1.1,2.8c0,0.2,0,0.3,0,0.4
				C698.8,933.6,698.9,933.6,699,933.6z M708.2,939.4c0.1,0.1,0.2,0.2,0.3,0.2c0,0,0.2-0.2,0.2-0.2c0-0.6,0-1.2-0.1-1.8
				c-0.1,0-0.2,0-0.2,0.1c-0.2-0.2,0-0.5-0.3-0.8c-0.1,0.4,0,0.9-0.2,1.2c-0.1,0.4,0,0.8,0.2,1.1
				C708.1,939.2,708.1,939.3,708.2,939.4z M708.1,932.8c0,0,0,0.1,0,0.2c0,0,0,0,0.1,0.1c0,0,0.1-0.1,0.1-0.1
				C708.2,932.8,708.1,932.7,708.1,932.8z M708.3,931.8c0,0,0,0.1,0,0.1c0,0,0,0,0.1-0.1C708.3,931.8,708.3,931.7,708.3,931.8z
				 M708.3,940.3c0,0,0,0.1,0,0.2C708.3,940.5,708.3,940.4,708.3,940.3C708.4,940.3,708.3,940.3,708.3,940.3z M709.5,928.2
				c0-0.3,0-0.5,0.1-0.8c0.1-0.4,0.3-0.8,0.5-1.2c0.1-0.3,0.1-0.5-0.1-0.7l0.1,0l0,0c-0.2,0.2-0.3,0.5-0.4,0.7
				c-0.2,0.2-0.4,0.5-0.4,0.8v0c-0.2,0.2-0.3,0.5-0.4,0.7c-0.1,0.1-0.2,0.2-0.3,0.3c0.2-0.5,0.2-1,0.5-1.4c0-0.1,0-0.2,0-0.2
				c0,0.1,0,0.2,0,0.2c-0.2,0-0.3,0-0.4,0.2c-0.3,0.4-0.1,0.7-0.2,1.2c0.1,0.2,0.2,0.5,0.2,0.8c0.4,0.1,0.5,0.1,0.5-0.1
				C709.4,928.5,709.3,928.2,709.5,928.2c0,0.1,0,0.3,0,0.5c0.1-0.2,0.2-0.2,0.3-0.4c0-0.2,0-0.3,0-0.4h0c0,0.2,0,0.3,0,0.4
				C709.8,928.3,709.7,928.3,709.5,928.2z M708.8,932.5c0,0.5-0.1,1.1-0.2,1.6c0,0.2,0,0.3,0.2,0.4c0.4-0.9,0.3-1.8,0.5-2.7
				C709,932,708.8,932.2,708.8,932.5z M708.9,939.2c-0.1,0.2,0,0.5,0,0.8c0,0.1,0.1,0.2,0.2,0.3c0.2-1.1,0.3-2.3,0.2-3.2
				C709.1,937.8,709.1,938.5,708.9,939.2z M709.7,938.1c0-0.3,0-0.5,0-0.6c0-0.2,0.1-0.4,0.2-0.5c0-0.1,0-0.1,0-0.2
				c0,0.1,0,0.1,0,0.2C709.6,937.3,709.6,937.6,709.7,938.1z M711,926.8c-0.1,0-0.2,0-0.2,0.1c-0.2,0.6-0.5,1.2-0.5,1.8
				c0,0.2,0,0.3,0,0.5c0.2-0.3,0.3-0.4,0.3-0.6C710.7,928,710.8,927.4,711,926.8c0.2-0.5,0.4-0.9,0.4-1.4c0-0.1,0.1-0.2,0.2-0.2
				c0,0,0-0.1-0.1-0.2c0,0,0,0,0,0.1c0,0.1,0,0.2,0,0.3C710.9,925.8,710.8,926.2,711,926.8z M710.7,922.7L710.7,922.7
				c-0.1,0-0.1,0-0.1,0l0,0.1l0,0C710.6,922.7,710.6,922.7,710.7,922.7z M713.4,922.4c0.5-0.4,1-0.9,1.2-1.6c0,0,0-0.1,0-0.1
				c0,0-0.1-0.1-0.1-0.2c-0.2,0-0.4,0-0.5,0.1c-0.4,0.5-0.7,1.1-0.9,1.8C713.3,922.4,713.3,922.4,713.4,922.4z"/>
			<path class="st3" d="M729.1,943.8c-0.2,0.2-0.5,0.3-0.7,0.5c-0.5,0.5-1.1,0.7-1.8,0.7c-1.2,0.2-2.1-0.3-2.7-1.2
				c-0.2-0.2-0.2-0.6-0.2-0.9c0-0.5,0.1-1.1,0.1-1.6c0.1-0.5,0.3-1.1,0.4-1.6c0.1-0.5,0.3-1.1,0.4-1.6c0.4-1,0.7-2,1-3
				c0.1-0.4,0.2-0.8,0.3-1.2c0.1-0.4,0.2-0.8,0.4-1.2c0.9-0.2,1.7-0.7,2.6-0.5c0.3,0.4,0.4,0.7,0.3,1.1c-0.1,0.6-0.2,1.2-0.4,1.8
				c-0.5,1.7-1.1,3.4-1.6,5.1c-0.2,0.9-0.4,1.8-0.5,2.6c0,0.3,0,0.6,0.1,0.8c0.2,0.6,0.5,0.7,1,0.4c0.5-0.3,0.9-0.6,1.3-0.9
				c1.1-0.8,2.1-1.6,2.9-2.6c0.6-0.7,1.2-1.3,1.7-2.1c0.1-0.2,0.2-0.3,0.4-0.3c0.1,0.1,0,0.2,0,0.4c0,0.1,0,0.2,0,0.3
				c0,0.2-0.2,0.3-0.3,0.4c-0.2,0.2-0.4,0.4-0.5,0.7c-0.4,0.4-0.7,0.8-1.1,1.2C731.1,942.2,730.1,943.1,729.1,943.8z M723.9,940.4
				v-0.3h0.1L723.9,940.4L723.9,940.4z M726.3,938c-0.1,0.3-0.4,0.6-0.2,0.9C726.2,938.6,726.2,938.3,726.3,938z M726.2,940.5
				L726.2,940.5C726.2,940.5,726.2,940.5,726.2,940.5L726.2,940.5C726.2,940.5,726.2,940.5,726.2,940.5z M727.4,928.5
				c0.2-0.5,0.5-0.9,1-1.1c0.2-0.1,0.5-0.2,0.7-0.1c0.2,0.1,0.3,0.2,0.4,0.4c0.1,0.3,0.2,0.6,0.1,0.9c-0.1,0.5-0.4,0.9-0.7,1.1
				c-0.4,0.3-0.7,0.7-1.3,0.5C727.1,929.7,727.1,929.1,727.4,928.5z M727.3,938L727.3,938c0-0.1,0-0.1,0-0.1
				C727.3,937.9,727.3,937.9,727.3,938C727.2,937.9,727.3,938,727.3,938z M727.9,928.9L727.9,928.9L727.9,928.9L727.9,928.9z"/>
			<path class="st3" d="M749.7,938.6c-0.4,0.7-0.9,1.5-1.4,2.2c0,0.1-0.1,0.2-0.2,0.2c-0.4,0.5-0.9,1-1.3,1.6
				c-0.6,0.9-1.3,1.6-2,2.4c-0.6,0.7-1.2,1.3-1.8,1.9c-0.2,0.2-0.4,0.4-0.4,0.7c-0.4,2.1-1.4,4-2.3,5.9c-0.6,1.3-1.4,2.5-2.2,3.6
				c-0.5,0.7-1.1,1.3-1.8,1.9c-1.1,0.8-2.3,1.2-3.6,1.1c-1.1-0.1-2-0.8-1.8-2.1c0-0.4,0.2-0.8,0.4-1.2c0.5-0.9,1.1-1.6,1.9-2.2
				c1.4-1.2,2.8-2.3,4.1-3.5c0.4-0.3,0.5-0.7,0.7-1.1c0.4-1.2,0.7-2.4,1.1-3.6c0.4-1,0.6-2.1,1.1-3.1c0.1-0.2,0.2-0.4,0.3-0.6
				c-0.5,0.4-1.1,0.9-1.7,1.1c-0.7,0.4-1.5,0.5-2.3,0.6c-2,0.2-3.8-1.4-4.1-3.3c-0.1-0.5-0.1-1.1-0.1-1.6c0-2.8,2.3-5.7,4.2-7.5
				c0.5-0.4,1.1-0.7,1.7-0.9c0.6-0.4,1.2-0.5,1.9-0.5c1.1-0.2,2.1,0.5,2.5,1.6c0.1,0.2,0.1,0.5,0.1,0.8c0,0.2-0.1,0.5-0.3,0.6
				c-0.2,0.1-0.5,0-0.7-0.2c-0.1-0.1-0.1-0.3-0.2-0.4v-0.5c0.1-0.9-0.6-1.3-1.3-0.9c-0.5,0.2-0.9,0.6-1.2,1c-1.4,1.7-2.4,3.7-3,5.8
				c-0.4,1.4-0.7,3.7,0.3,4.7c0.7,0.7,2.3,0.2,2.9-0.3c0.7-0.5,1.3-1.2,1.7-2c0.1-0.2,0.2-0.4,0.2-0.7c0-0.2,0.1-0.5,0.2-0.7
				c0.1-0.7,0.2-1.4,0.4-2c0.3-1.1,0.8-2,1.1-3.1c0.1-0.3,0.3-1.3,0.6-1.5c0,0,0-0.1,0-0.2c0,0,0.7-0.2,0.7-0.2
				c0.3-0.1,0.6-0.2,0.9-0.2c0.5-0.1,1.1,0,1.7-0.1c0.1,0.4,0,0.7-0.1,1.1c-0.2,0.8-0.4,1.5-0.7,2.3c-0.4,1.1-0.7,2.1-1.1,3.2
				c-0.1,0.3-0.2,0.6-0.2,0.9c-0.1,0.9-0.3,1.8-0.6,2.7c-0.1,0.3-0.2,0.6-0.3,0.9c-0.2,0.8-0.5,1.8-0.6,2.7c0.1-0.1,0.3-0.2,0.4-0.3
				c0.9-1,1.7-1.9,2.5-2.9c0.5-0.6,1.1-1.3,1.6-2c0.4-0.4,0.5-0.9,0.7-1.3c0.3-0.4,0.7-0.7,0.9-1.1c0-0.1,0.1-0.2,0.1-0.2
				c0.1,0,0.2-0.1,0.2,0C749.8,938.2,749.7,938.4,749.7,938.6z M737.3,952.1c0,0-0.1-0.1-0.1-0.1c-0.2,0.1-0.3,0.2-0.4,0.3
				c-1.2,1-2.4,2-3.6,3.1c-0.5,0.5-1,1.1-1.4,1.8c-0.4,0.5-0.4,1.1-0.3,1.6c0.2,0.2,0.5,0.4,0.8,0.3c0.4-0.1,0.8-0.2,1.1-0.5
				c0.5-0.5,1.1-1,1.5-1.6c0.8-1.1,1.4-2.3,1.8-3.5C737,953.1,737.1,952.6,737.3,952.1z M733.3,940.2c0-0.1,0-0.2-0.1-0.3
				c0,0,0,0-0.1,0l0.1,0.7c0,0,0,0,0.1,0V940.2z M736.2,934.1L736.2,934.1L736.2,934.1L736.2,934.1z M736.6,933.7
				C736.6,933.7,736.7,933.7,736.6,933.7l0.3-0.4c0,0-0.1,0-0.1,0C736.7,933.5,736.6,933.6,736.6,933.7z M739.3,951.5
				c-0.1,0-0.2,0.1,0,0.2C739.2,951.6,739.2,951.6,739.3,951.5z M739.3,951.3c0,0,0,0.1-0.1,0.2
				C739.4,951.5,739.4,951.5,739.3,951.3z M739.7,950.3c0-0.1,0.1-0.2,0.1-0.3l-0.1,0c-0.1,0.2-0.2,0.3-0.2,0.5c0,0,0,0.1,0.1,0.1
				C739.6,950.4,739.7,950.4,739.7,950.3z M740.5,949.9c0-0.3,0.4-0.5,0.2-1c-0.4,0.3-0.4,0.8-0.6,1.2c-0.2,0.4-0.4,0.7-0.4,1.3
				c0.3-0.5,0.5-0.7,0.6-1.1l0,0.1c0,0,0.1-0.1,0.1-0.1C740.7,950.2,740.6,950.1,740.5,949.9z M740.4,948.3L740.4,948.3L740.4,948.3
				L740.4,948.3z M741.1,946.3c-0.2,0-0.2,0-0.2,0.4C741,946.5,741,946.4,741.1,946.3z M740.9,947C740.9,947,740.9,947,740.9,947
				C740.9,947,740.9,947,740.9,947L740.9,947C740.9,947,740.9,947,740.9,947z M741.2,945.8c-0.3,0.1-0.2,0.3-0.1,0.5
				C741.1,946.1,741.1,946,741.2,945.8z M741.2,945.8c0.1-0.1,0.2-0.2,0.2-0.4C741.1,945.4,741.1,945.6,741.2,945.8z M741.4,947.4
				c-0.1,0-0.1,0.1-0.2,0.1l0,0C741.3,947.5,741.3,947.4,741.4,947.4z M741.3,945.2C741.3,945.2,741.3,945.2,741.3,945.2
				c0,0.1,0,0.2,0,0.2C741.4,945.3,741.4,945.3,741.3,945.2z M742,946.2c-0.1,0.2-0.2,0.5-0.3,0.7c0,0.1,0,0.1,0,0.2
				c0,0,0-0.1,0-0.2C742,946.8,742,946.5,742,946.2z M743,937.7c0,0.2,0.1,0.3,0.1,0.3c0,0,0.1,0,0.1,0L743,937.7z M743.3,938.9
				c0-0.3,0.1-0.6,0.2-0.9C743.4,938.3,743.1,938.6,743.3,938.9z M744.1,935.8c0.2-0.2,0.2-0.2,0-0.4V935.8z M744.5,938L744.5,938
				c0-0.1,0-0.1,0-0.1C744.5,937.9,744.5,937.9,744.5,938C744.5,937.9,744.5,938,744.5,938z"/>
			<path class="st3" d="M767.1,939.6c-0.2,0.2-0.4,0.5-0.6,0.7c-0.5,0.5-1,1.1-1.5,1.6c-0.6,0.6-1.2,1.2-1.8,1.8
				c-0.5,0.4-1.1,0.8-1.7,1.1c-0.5,0.2-1.1,0.6-1.7,0.7c-0.2,0-0.4,0-0.6-0.1c-0.3,0-0.5-0.1-0.8-0.1c-1-0.1-1.8-1.1-2.2-2
				c-0.2-0.6-0.3-1.2,0-1.8c0.5-1.1,0.8-2.3,1.4-3.5c0.6-1.1,1.2-2.3,1.8-3.4c0.2-0.5,0.4-0.9,0.3-1.5c-0.1-0.4-0.2-0.6-0.5-0.8
				c-0.1,0-0.2,0-0.2,0c-0.3,0-0.7,0-0.9,0.2c-0.4,0.3-0.8,0.7-1.1,1.1c-0.9,1.2-1.7,2.4-2.3,3.8c-0.1,0.3-0.2,0.5-0.4,0.8
				c-0.9,1.2-1.4,2.6-2.1,3.9c-0.1,0.2-0.2,0.5-0.3,0.8c-0.2,0.5-0.3,1.1-0.7,1.6c0,0.1,0,0.2-0.1,0.2c-0.2,0.5-0.3,0.6-0.8,0.5
				c-0.6-0.1-1.1-0.4-1.6-0.8c-0.4-0.4-0.6-0.9-0.4-1.5c0.4-0.9,0.5-1.8,0.9-2.7c0,0,0-0.1,0-0.1c0.4-1,0.7-2,1-3
				c0.3-0.9,0.5-1.9,0.8-2.8c0.2-0.5,0.4-1.1,0.6-1.6c0.2-0.4,0.5-0.7,0.9-0.9c0.3-0.1,0.5-0.2,0.8-0.4c0.5-0.2,1,0.2,0.9,0.7
				c0,0.3-0.1,0.5-0.2,0.8c-0.4,1.5-0.9,3-1.2,4.5c-0.2,0.9-0.5,1.7-0.7,2.6c0,0,0,0.1,0.1,0.2c0.4-0.6,0.7-1.2,1-1.7
				c0.5-1,1.1-2,1.6-2.9c0.7-1,1.2-2.1,2.1-3c0.3-0.3,0.6-0.6,1-0.8c0.5-0.4,1.2-0.3,1.7-0.2c1.1,0.3,1.9,0.9,2.4,2
				c0.2,0.5,0.2,1,0,1.5c-0.3,0.9-0.6,1.7-0.9,2.6c-0.4,1-0.8,2-1.1,3c-0.3,0.9-0.5,1.8-0.5,2.7c0,0.6,0,1.2,0.7,1.1
				c0.4,0,0.7-0.1,1.1-0.3c1.1-0.7,2.1-1.4,3-2.4c0.2-0.3,0.5-0.6,0.8-0.9c0.3-0.4,0.6-0.7,0.9-1.1c0.3-0.4,0.5-0.8,0.7-1.2
				c0.1-0.1,0.2-0.2,0.3-0.2c0.1,0,0.1,0.1,0.2,0.2c0,0.1,0,0.2,0,0.2c0,0.1,0,0.2,0,0.2C767.3,939.3,767.2,939.5,767.1,939.6z
				 M751.2,938.2c-0.5,0.5-0.6,0.9-0.5,1.6C750.8,939.2,751,938.7,751.2,938.2z M751,937.6L751,937.6L751,937.6L751,937.6z
				 M751.7,939.1c0,0.2-0.1,0.3-0.2,0.4c0,0,0,0,0,0v0C751.7,939.5,751.7,939.3,751.7,939.1z M751.9,938.9
				C751.9,938.9,751.9,938.9,751.9,938.9c-0.1,0-0.1,0-0.2,0.1C751.8,939,751.9,939,751.9,938.9z M757.9,939.1
				c0.1-0.3,0.2-0.6,0.4-0.9C758,938.4,757.7,938.7,757.9,939.1z M758.1,940.3C758.1,940.3,758.1,940.3,758.1,940.3
				c0,0-0.1,0.1-0.1,0.2l0,0C758,940.4,758.1,940.3,758.1,940.3z M759.5,937.6C759.5,937.7,759.5,937.7,759.5,937.6
				c0.2-0.7,0.7-1.4,0.8-2.4c-0.4,0.4-0.5,0.8-0.6,1.2c-0.2,0.5-0.4,1.1-0.7,1.4c0-0.1,0-0.1,0-0.2h0c0,0.1,0,0.1,0,0.2
				c0,0,0,0.1,0,0.2c0,0.1-0.1,0.2-0.2,0.2c0,0.1-0.1,0.2-0.2,0.4c-0.2,0.3-0.3,0.5-0.4,0.8v0.4h0.1c0-0.1,0-0.3-0.1-0.4
				c0.1,0,0.2,0.1,0.2,0c0.1-0.2,0.4-0.2,0.4-0.5c0.1-0.1,0.2-0.2,0.3-0.4C759.3,938.2,759.4,938,759.5,937.6z M759.7,938
				c0.1-0.2,0.1-0.4,0.2-0.5c-0.2,0.1-0.3,0.1-0.4,0.2C759.6,937.7,759.6,937.8,759.7,938z"/>
			<path class="st3" d="M780.6,939.3c-0.1,0.3-0.4,0.5-0.5,0.8c-0.4,0.7-1,1.5-1.5,2.1c0,0-0.2,0.2-0.2,0.2c-0.7,1-1.8,1.6-2.8,2.1
				c-0.4,0.2-0.2,0.2-0.6,0.3c-0.3,0.1-0.6,0.2-0.9,0.3c-0.3,0.1-0.4,0.2-0.7,0.2c-0.6,0.1-1.2,0-1.8,0c-0.7,0-1.3-0.1-2-0.3
				c-0.8-0.2-1.6-0.6-2.3-1.1c-0.6-0.5-1.1-1.3-1.3-2.1c-0.2-0.5-0.2-1.1-0.3-1.6c-0.3-2.7,1.9-5.7,3.8-7.4c0.5-0.4,1.1-0.7,1.7-1
				c0.7-0.4,1.4-0.5,2.1-0.5c0.4-0.1,0.8,0.1,1.2,0.2c0.4,0.2,0.8,0.3,1.1,0.6c0.5,0.3,0.9,1,1,1.6c0.1,0.7-0.3,1.3-0.7,1.8
				c-0.6,0.7-1.2,1.4-2,1.8c-0.3,0.2-0.6,0.3-0.9,0.4c-0.6,0.2-1.2,0.2-1.9,0.3c-0.3,0-0.5,0-0.8,0c-0.2,0-0.4,0-0.5,0
				c0,0.4-0.2,0.7-0.2,1.1c-0.4,1.9-0.2,4.3,1.9,5.1c0.2,0.1,0.4,0.1,0.6,0.2c0.3,0.1,0.5,0.1,0.8,0.1c0.7,0,1,0,1.6-0.3
				c0.5-0.3,1-0.3,1.5-0.6c0.6-0.4,0.7-0.5,0.9-0.8c0.2-0.2,0.5-0.5,0.7-0.8c1.1-1.3,1.2-1.6,2.2-2.9c0.1-0.1,0.2-0.2,0.3-0.2
				c0.1,0,0.2,0.1,0.2,0.2C780.7,939.1,780.7,939.2,780.6,939.3z M767,941.2c0-0.1,0-0.2,0-0.4s-0.1-0.2-0.2-0.3c0,0,0,0-0.1,0
				C766.8,940.8,766.9,941,767,941.2C767,941.3,767,941.3,767,941.2z M769.5,934.7L769.5,934.7L769.5,934.7L769.5,934.7z
				 M769.9,934.4c0,0,0.1,0,0.1,0l0.2-0.4c0,0-0.1,0-0.1,0C770,934.1,769.9,934.3,769.9,934.4z M770.5,937.1c1.3,0.4,3,0,4.1-0.8
				c0.8-0.5,1.3-1.4,1.5-2.3c0-0.5-0.2-1-0.6-1.3c-0.1-0.1-0.3-0.2-0.4-0.3c-0.4-0.2-0.8-0.4-1.2-0.2c-0.5,0.2-0.9,0.6-1.2,1
				c-0.5,0.5-0.9,1.2-1.2,1.8C770.9,935.7,770.6,936.3,770.5,937.1z"/>
			<path class="st3" d="M790.7,939.1c-0.3,0.4-0.5,0.9-0.8,1.3c-0.9,1.3-2,2.4-3.1,3.5c-0.2,0.2-0.4,0.4-0.5,0.5
				c-0.7,0.7-1.4,1.1-2.4,1c-0.8-0.1-1.4-0.4-2.1-0.7c0,0-0.1-0.1-0.1-0.1c-0.7-0.9-1.6-1.7-1.8-3c-0.2-1.1-0.3-2.2-0.2-3.2
				c0.1-1.1,0.4-2.2,0.6-3.2c0.6-2.5,0.9-3.2,1.8-5.6c0.5-1.4,1-2.9,1.5-4.3c0.1-0.4,0.2-0.7,0.4-1.1c-0.3-0.2-0.5-0.1-0.8,0
				c-0.8,0.1-1.6,0.1-2.4,0c-1-0.2-2-0.5-2.5-1.5c0-0.1-0.1-0.2-0.2-0.3c-0.2,0.1-0.4,0.2-0.5,0.2c-1.8,0.9-4.1-0.4-4.3-2.4
				c0-0.6,0.3-1,0.7-1.4c0.2-0.2,0.5-0.1,0.8,0.4c-0.1,0-0.1,0.1-0.2,0.1c-0.5,0.1-0.7,0.2-0.7,0.7c-0.1,0.5,0,1.1,0.4,1.5
				c0.7,0.7,1.6,1.1,2.5,0.9c0.3,0,0.6-0.1,0.9-0.4c-0.1-0.2-0.2-0.4-0.2-0.6c-0.3-0.8-0.1-1.5,0.5-2.1c0.1-0.2,0.3-0.2,0.4-0.4
				c0.4-0.2,0.7-0.3,1,0c0.4,0.2,0.5,0.5,0.5,1c-0.1,0.6-0.4,1.2-0.8,1.7c-0.2,0.2-0.4,0.3-0.5,0.5c0.3,0.6,0.7,0.9,1.2,1.2
				c0.8,0.4,1.7,0.5,2.6,0.5c0.7,0,1.3-0.1,1.9-0.2c0.3-0.5,0.6-1,0.9-1.5c0.6-0.9,1.2-1.8,2.2-2.5c0.6-0.4,1.3-0.7,2-1.1
				c0.2-0.1,0.4-0.2,0.6,0.2c-0.6,1.2-1.5,2.4-1.8,3.9c0.2,0,0.3,0,0.5,0c0.6-0.2,1.3-0.4,1.9-0.6c0.8-0.3,1.7-0.3,2.5-0.2
				c0.6,0,1,0.4,1.4,0.9c-0.1,0.1-0.1,0.3-0.2,0.4c-0.1,0-0.2,0-0.2,0c-1-1-2.2-0.9-3.4-0.6c-1,0.2-2,0.6-3,0.9
				c-0.1,0.3-0.2,0.6-0.3,0.9c-0.4,1.5-0.8,3-1.2,4.5c-0.5,1.8-1,3.5-1.6,5.3c-0.1,0.4-0.3,0.7-0.4,1.1c-0.5,1.3-0.4,0.9-0.8,2.3
				c-0.2,0.6-0.3,1.2-0.4,1.8c-0.2,0.9-0.3,1.8-0.4,2.6c0,0.4,0,0.8,0.1,1.2c0.2,1,1,1.6,2,1.6c0.2,0,0.4,0,0.7,0
				c0.3-0.3,0.7-0.6,1.1-1c0.5-0.5,0.9-1,1.4-1.4c0.9-0.9,1.7-2,2.4-3.1c0.2-0.4,0.4-0.7,0.7-1c0.2-0.3,0.4-0.6,0.6-0.9
				c0.1,0,0.2,0,0.2,0.1c0,0,0,0.1,0,0.2c0,0.2-0.1,0.4-0.2,0.5c0,0-0.1,0.1-0.1,0.2c-0.1,0.1-0.2,0.2-0.2,0.3
				C791.1,938.6,790.9,938.8,790.7,939.1z M778.3,921.5c0.3,0,0.5-0.2,0.6-0.4c0.2-0.4,0.3-0.8,0.4-1.2c0.1-0.4,0.1-0.5-0.4-0.7
				C777.8,919.8,777.6,920.5,778.3,921.5z M781.5,936.1L781.5,936.1c0,0.1,0,0.2,0,0.2c0,0,0,0,0,0V936.1z M782.6,930.9L782.6,930.9
				L782.6,930.9L782.6,930.9z M782.8,930.4C782.8,930.4,782.8,930.4,782.8,930.4C782.8,930.4,782.8,930.4,782.8,930.4
				c0.1-0.1,0-0.1,0-0.1C782.8,930.3,782.8,930.4,782.8,930.4z M783.3,932c0.3-0.9,0.5-1.8,0.8-2.7
				C783.6,930.2,783.2,931.4,783.3,932z"/>
			<path class="st3" d="M801.4,939.1c-0.3,0.4-0.5,0.9-0.8,1.3c-0.9,1.3-2,2.4-3.1,3.5c-0.2,0.2-0.4,0.4-0.5,0.5
				c-0.7,0.7-1.4,1.1-2.4,1c-0.8-0.1-1.4-0.4-2.1-0.7c0,0-0.1-0.1-0.1-0.1c-0.7-0.9-1.6-1.7-1.8-3c-0.2-1.1-0.3-2.2-0.2-3.2
				c0.1-1.1,0.4-2.2,0.6-3.2c0.6-2.5,0.9-3.2,1.8-5.6c0.5-1.4,1-2.9,1.5-4.3c0.1-0.4,0.2-0.7,0.4-1.1c-0.3-0.2-0.5-0.1-0.8,0
				c-0.8,0.1-1.6,0.1-2.4,0c-1-0.2-2-0.5-2.5-1.5c0-0.1-0.1-0.2-0.2-0.3c-0.2,0.1-0.4,0.2-0.5,0.2c-1.8,0.9-4.1-0.4-4.3-2.4
				c0-0.6,0.3-1,0.7-1.4c0.2-0.2,0.5-0.1,0.8,0.4c-0.1,0-0.1,0.1-0.2,0.1c-0.5,0.1-0.7,0.2-0.7,0.7c-0.1,0.5,0,1.1,0.4,1.5
				c0.7,0.7,1.6,1.1,2.5,0.9c0.3,0,0.6-0.1,0.9-0.4c-0.1-0.2-0.2-0.4-0.2-0.6c-0.3-0.8-0.1-1.5,0.5-2.1c0.1-0.2,0.3-0.2,0.4-0.4
				c0.4-0.2,0.7-0.3,1,0c0.4,0.2,0.5,0.5,0.5,1c-0.1,0.6-0.4,1.2-0.8,1.7c-0.2,0.2-0.4,0.3-0.5,0.5c0.3,0.6,0.7,0.9,1.2,1.2
				c0.8,0.4,1.7,0.5,2.6,0.5c0.7,0,1.3-0.1,1.9-0.2c0.3-0.5,0.6-1,0.9-1.5c0.6-0.9,1.2-1.8,2.2-2.5c0.6-0.4,1.3-0.7,2-1.1
				c0.2-0.1,0.4-0.2,0.6,0.2c-0.6,1.2-1.5,2.4-1.8,3.9c0.2,0,0.3,0,0.5,0c0.6-0.2,1.3-0.4,1.9-0.6c0.8-0.3,1.7-0.3,2.5-0.2
				c0.6,0,1,0.4,1.4,0.9c-0.1,0.1-0.1,0.3-0.2,0.4c-0.1,0-0.2,0-0.2,0c-1-1-2.2-0.9-3.4-0.6c-1,0.2-2,0.6-3,0.9
				c-0.1,0.3-0.2,0.6-0.3,0.9c-0.4,1.5-0.8,3-1.2,4.5c-0.5,1.8-1,3.5-1.6,5.3c-0.1,0.4-0.3,0.7-0.4,1.1c-0.5,1.3-0.4,0.9-0.8,2.3
				c-0.2,0.6-0.3,1.2-0.4,1.8c-0.2,0.9-0.3,1.8-0.4,2.6c0,0.4,0,0.8,0.1,1.2c0.2,1,1,1.6,2,1.6c0.2,0,0.4,0,0.7,0
				c0.3-0.3,0.7-0.6,1.1-1c0.5-0.5,0.9-1,1.4-1.4c0.9-0.9,1.7-2,2.4-3.1c0.2-0.4,0.4-0.7,0.7-1c0.2-0.3,0.4-0.6,0.6-0.9
				c0.1,0,0.2,0,0.2,0.1c0,0,0,0.1,0,0.2c0,0.2-0.1,0.4-0.2,0.5c0,0-0.1,0.1-0.1,0.2c-0.1,0.1-0.2,0.2-0.2,0.3
				C801.7,938.6,801.5,938.8,801.4,939.1z M788.9,921.5c0.3,0,0.5-0.2,0.6-0.4c0.2-0.4,0.3-0.8,0.4-1.2c0.1-0.4,0.1-0.5-0.4-0.7
				C788.4,919.8,788.2,920.5,788.9,921.5z M792.1,936.1L792.1,936.1c0,0.1,0,0.2,0,0.2c0,0,0,0,0,0V936.1z M793.2,930.9L793.2,930.9
				L793.2,930.9L793.2,930.9z M793.4,930.4C793.4,930.4,793.4,930.4,793.4,930.4C793.4,930.4,793.4,930.4,793.4,930.4
				c0.1-0.1,0-0.1,0-0.1C793.4,930.3,793.4,930.4,793.4,930.4z M793.9,932c0.3-0.9,0.5-1.8,0.8-2.7
				C794.2,930.2,793.8,931.4,793.9,932z"/>
			<path class="st3" d="M818.7,939.3c0,0.1,0,0.2,0,0.3c0,0.2-0.2,0.3-0.3,0.4c-0.2,0.2-0.4,0.4-0.5,0.7c-0.4,0.4-0.7,0.8-1.1,1.2
				c-0.9,1-1.9,1.8-2.9,2.5c-0.2,0.2-0.5,0.3-0.7,0.5c-0.5,0.5-1.1,0.7-1.8,0.7c-0.9,0.1-1.6-0.2-2.3-0.7c0,0,0,0,0,0
				c-0.5-0.4-0.8-1.1-0.9-1.7l-0.1,0.1c-0.5,0.4-1.1,0.9-1.7,1.1c-0.7,0.4-1.5,0.5-2.3,0.6c-2,0.2-3.8-1.4-4.1-3.3
				c-0.1-0.5-0.1-1.1-0.1-1.6c0-2.8,2.3-5.7,4.2-7.5c0.5-0.4,1.1-0.7,1.7-0.9c0.6-0.4,1.2-0.5,1.9-0.5c1.1-0.2,2.1,0.5,2.5,1.6
				c0.1,0.2,0.1,0.5,0.1,0.8c0,0.2-0.1,0.5-0.3,0.6c-0.2,0.1-0.5,0-0.7-0.2c-0.1-0.1-0.1-0.3-0.2-0.4v-0.5c0.1-0.9-0.6-1.3-1.3-0.9
				c-0.5,0.2-0.9,0.6-1.2,1c-1.4,1.7-2.4,3.7-3,5.8c-0.4,1.4-0.7,3.7,0.3,4.7c0.7,0.7,2.3,0.2,2.9-0.3c0.9-0.6,1.5-1.5,1.9-2.5v0
				h0.1v-0.3c0.2-0.8,0.3-1.9,0.5-2.6c0.3-1.1,0.8-2,1.1-3.1c0.1-0.3,0.2-1.3,0.5-1.5c0,0,0-0.1,0.1-0.2c0.9-0.2,1.7-0.7,2.6-0.5
				c0.3,0.4,0.4,0.7,0.3,1.1c-0.1,0.6-0.2,1.2-0.4,1.8c-0.5,1.7-1.1,3.4-1.6,5.1c-0.2,0.9-0.4,1.8-0.5,2.6c0,0.3,0,0.6,0.1,0.8
				c0.2,0.6,0.5,0.7,1,0.4c0.5-0.3,0.9-0.6,1.3-0.9c1.1-0.8,2.1-1.6,2.9-2.6c0.6-0.7,1.2-1.3,1.7-2.1c0.1-0.2,0.2-0.3,0.4-0.3
				C818.8,939.1,818.7,939.2,818.7,939.3z M800.9,940.8c0-0.1,0-0.2-0.1-0.3c0,0,0,0-0.1,0l0.1,0.7c0,0,0,0,0.1,0V940.8z
				 M803.8,934.7L803.8,934.7L803.8,934.7L803.8,934.7z M804.2,934.4C804.2,934.4,804.2,934.4,804.2,934.4l0.3-0.4c0,0-0.1,0-0.1,0
				C804.3,934.1,804.2,934.2,804.2,934.4z M809.2,942.9C809.2,942.9,809.2,943,809.2,942.9c0.1,0,0.2,0,0.2-0.1
				C809.3,942.8,809.3,942.9,809.2,942.9z M810,942.4C810,942.5,810,942.5,810,942.4c-0.1,0.2,0,0.3,0,0.6c0.1-0.3,0.1-0.4,0.1-0.4
				C810.1,942.6,810,942.5,810,942.4z M810.4,942.8h-0.1c0,0,0,0.1,0,0.1C810.4,942.9,810.4,942.9,810.4,942.8
				C810.4,942.9,810.4,942.8,810.4,942.8z M810.7,938.6c0,0,0.1,0,0.1,0l-0.2-0.3C810.6,938.5,810.7,938.6,810.7,938.6z
				 M810.9,939.6c0.1-0.3,0.1-0.6,0.2-0.9C810.9,938.9,810.7,939.2,810.9,939.6z M810.9,941.2L810.9,941.2
				C811,941.1,811,941.1,810.9,941.2L810.9,941.2C810.9,941.1,810.9,941.1,810.9,941.2z M811.7,936v0.4
				C811.9,936.2,811.9,936.2,811.7,936z M812,938.6L812,938.6c0-0.1,0-0.1,0-0.1C812.1,938.5,812,938.5,812,938.6
				C812,938.5,812,938.6,812,938.6z"/>
		</g>
		<g class="st2">
			<path class="st3" d="M638.4,958.5c0-0.5,0.1-0.9,0.2-1.3c0.1-0.4,0.3-0.8,0.6-1.1c0.3-0.3,0.6-0.5,1-0.7c0.4-0.2,0.8-0.3,1.3-0.3
				c0.4,0,0.7,0,1,0.1c0.3,0.1,0.5,0.2,0.7,0.4c0.2,0.1,0.3,0.3,0.5,0.5s0.2,0.3,0.3,0.5c0.1,0.2,0.1,0.3,0.1,0.4c0,0.1,0,0.2,0,0.2
				h-0.4c0-0.3-0.1-0.5-0.3-0.7c-0.1-0.2-0.3-0.4-0.5-0.5c-0.2-0.1-0.4-0.3-0.7-0.3c-0.2-0.1-0.5-0.1-0.8-0.1
				c-0.4,0-0.8,0.1-1.1,0.2s-0.6,0.4-0.8,0.7c-0.2,0.3-0.4,0.6-0.5,1s-0.2,0.8-0.2,1.2s0.1,0.8,0.2,1.2s0.3,0.7,0.5,1
				c0.2,0.3,0.5,0.5,0.8,0.7s0.7,0.2,1.1,0.2c0.3,0,0.6-0.1,0.9-0.2c0.3-0.1,0.5-0.3,0.7-0.5c0.2-0.2,0.4-0.5,0.5-0.7
				c0.1-0.3,0.2-0.6,0.2-0.9h0.4c0,0.4-0.1,0.7-0.3,1.1c-0.2,0.3-0.3,0.6-0.6,0.8c-0.2,0.2-0.5,0.4-0.8,0.6s-0.6,0.2-1,0.2
				c-0.5,0-0.9-0.1-1.3-0.3c-0.4-0.2-0.7-0.4-1-0.7c-0.3-0.3-0.5-0.7-0.6-1.1C638.5,959.4,638.4,959,638.4,958.5z"/>
			<path class="st3" d="M645.8,955.3v3.9c0,0.1,0,0.3,0,0.4s0,0.3,0.1,0.5c0,0.2,0.1,0.4,0.2,0.5s0.2,0.3,0.4,0.5
				c0.1,0.1,0.3,0.2,0.6,0.3c0.2,0.1,0.5,0.1,0.8,0.1c0.4,0,0.7-0.1,1-0.2c0.3-0.1,0.5-0.3,0.6-0.5c0.2-0.2,0.3-0.5,0.4-0.8
				c0.1-0.3,0.1-0.6,0.1-1v-3.9h0.4v3.9c0,0.4,0,0.7-0.1,1.1s-0.2,0.6-0.4,0.9c-0.2,0.2-0.4,0.4-0.8,0.6c-0.3,0.1-0.7,0.2-1.2,0.2
				c-0.4,0-0.7,0-1-0.1s-0.5-0.2-0.7-0.4c-0.2-0.2-0.3-0.3-0.4-0.5c-0.1-0.2-0.2-0.4-0.2-0.6c-0.1-0.2-0.1-0.4-0.1-0.6
				c0-0.2,0-0.4,0-0.5v-3.9H645.8z"/>
			<path class="st3" d="M651.7,958.5c0-0.5,0.1-0.9,0.2-1.3c0.1-0.4,0.3-0.8,0.6-1.1c0.3-0.3,0.6-0.5,1-0.7c0.4-0.2,0.8-0.3,1.3-0.3
				c0.4,0,0.7,0,1,0.1c0.3,0.1,0.5,0.2,0.7,0.4c0.2,0.1,0.3,0.3,0.5,0.5s0.2,0.3,0.3,0.5c0.1,0.2,0.1,0.3,0.1,0.4s0,0.2,0,0.2h-0.4
				c0-0.3-0.1-0.5-0.3-0.7s-0.3-0.4-0.5-0.5c-0.2-0.1-0.4-0.3-0.7-0.3s-0.5-0.1-0.8-0.1c-0.4,0-0.8,0.1-1.1,0.2s-0.6,0.4-0.8,0.7
				c-0.2,0.3-0.4,0.6-0.5,1s-0.2,0.8-0.2,1.2s0.1,0.8,0.2,1.2s0.3,0.7,0.5,1c0.2,0.3,0.5,0.5,0.8,0.7s0.7,0.2,1.1,0.2
				c0.3,0,0.6-0.1,0.9-0.2c0.3-0.1,0.5-0.3,0.7-0.5s0.4-0.5,0.5-0.7c0.1-0.3,0.2-0.6,0.2-0.9h0.4c0,0.4-0.1,0.7-0.3,1.1
				c-0.2,0.3-0.3,0.6-0.6,0.8s-0.5,0.4-0.8,0.6c-0.3,0.1-0.6,0.2-1,0.2c-0.5,0-0.9-0.1-1.3-0.3c-0.4-0.2-0.7-0.4-1-0.7
				c-0.3-0.3-0.5-0.7-0.6-1.1C651.7,959.4,651.7,959,651.7,958.5z"/>
			<path class="st3" d="M658.7,955.3h0.4v6.4h-0.4V955.3z"/>
			<path class="st3" d="M660.7,955.3h0.5l4.1,5.9h0v-5.9h0.4v6.4h-0.5l-4.1-5.9h0v5.9h-0.4V955.3z"/>
			<path class="st3" d="M669.1,955.3h0.4l2.5,6.4h-0.4l-0.8-2.1h-3.1l-0.8,2.1h-0.4L669.1,955.3z M670.8,959.3l-1.4-3.6h0l-1.4,3.6
				H670.8z"/>
			<path class="st3" d="M676,955.3h0.4v6.1h3.6v0.3h-4V955.3z"/>
			<path class="st3" d="M682.8,955.3h0.4l2.5,6.4h-0.4l-0.8-2.1h-3.1l-0.8,2.1h-0.4L682.8,955.3z M684.4,959.3l-1.4-3.6h0l-1.4,3.6
				H684.4z"/>
			<path class="st3" d="M686.7,955.3h2.7c0.3,0,0.5,0,0.8,0.1c0.2,0.1,0.5,0.2,0.6,0.3c0.2,0.1,0.3,0.3,0.4,0.5
				c0.1,0.2,0.2,0.5,0.2,0.8c0,0.4-0.1,0.8-0.4,1.1s-0.6,0.5-1,0.6v0c0.3,0,0.5,0.1,0.7,0.2s0.3,0.3,0.4,0.4s0.1,0.4,0.2,0.6
				c0,0.2,0,0.4,0,0.6c0,0.1,0,0.2,0,0.4c0,0.1,0,0.2,0,0.3c0,0.1,0,0.2,0.1,0.3c0,0.1,0.1,0.2,0.1,0.2h-0.4
				c-0.1-0.2-0.1-0.3-0.1-0.5s0-0.4,0-0.6c0-0.2,0-0.4,0-0.6c0-0.2-0.1-0.4-0.2-0.6c-0.1-0.2-0.2-0.3-0.5-0.4
				c-0.2-0.1-0.5-0.2-0.9-0.2h-2.3v2.9h-0.4V955.3z M689.4,958.4c0.2,0,0.5,0,0.7-0.1c0.2-0.1,0.4-0.1,0.5-0.3
				c0.1-0.1,0.3-0.3,0.3-0.5c0.1-0.2,0.1-0.4,0.1-0.7c0-0.2,0-0.4-0.1-0.6s-0.2-0.3-0.4-0.4c-0.1-0.1-0.3-0.2-0.5-0.2
				c-0.2,0-0.4-0.1-0.6-0.1h-2.3v2.8H689.4z"/>
			<path class="st3" d="M692.8,955.3h0.4v6.4h-0.4V955.3z"/>
			<path class="st3" d="M696.7,955.3h0.4l2.5,6.4h-0.4l-0.8-2.1h-3.1l-0.8,2.1h-0.4L696.7,955.3z M698.3,959.3l-1.4-3.6h0l-1.4,3.6
				H698.3z"/>
			<path class="st3" d="M700.6,955.3h0.5l4.1,5.9h0v-5.9h0.4v6.4h-0.5l-4.1-5.9h0v5.9h-0.4V955.3z"/>
			<path class="st3" d="M709.1,955.3h0.4l2.5,6.4h-0.4l-0.8-2.1h-3.1l-0.8,2.1h-0.4L709.1,955.3z M710.7,959.3l-1.4-3.6h0l-1.4,3.6
				H710.7z"/>
		</g>
	</g>
</g>
</svg>
