<svg xmlns="http://www.w3.org/2000/svg" width="334.727" height="57.709" viewBox="0 0 334.727 57.709">
  <g id="Group_68" data-name="Group 68" transform="translate(-214.273 -4371.291)">
    <g id="Group_66" data-name="Group 66" transform="translate(-836.464 3819.492)">
      <g id="Group_35" data-name="Group 35" transform="translate(1051 552)">
        <g id="Layer_4" data-name="Layer 4" transform="translate(6.953 0)">
          <g id="Group_6" data-name="Group 6">
            <path id="Path_261" data-name="Path 261" d="M102.176,58.665l.907-.809a.8.8,0,0,1,1.113.2,1.34,1.34,0,0,1,.253,1.185,1.852,1.852,0,0,1-.743.986,1.988,1.988,0,0,1-2.374-.094,2.015,2.015,0,0,1-.529-2.359,2.724,2.724,0,0,1,1.955-1.542,3.236,3.236,0,0,1,1.283-.041,9.088,9.088,0,0,1,1.212.3,2.24,2.24,0,0,1,1.03.843,2.48,2.48,0,0,1,.385,1.271,24.294,24.294,0,0,1,.1,2.456l-.6-.014a23.6,23.6,0,0,0-.027-2.392,2.012,2.012,0,0,0-.257-1.035,1.815,1.815,0,0,0-.787-.705,4.219,4.219,0,0,0-2.258-.317,2.382,2.382,0,0,0-1.758,1.293,1.747,1.747,0,0,0,.4,2.067,1.8,1.8,0,0,0,2.145.141,1.732,1.732,0,0,0,.717-.892,1.249,1.249,0,0,0-.2-1.108.747.747,0,0,0-1.032-.213Z" transform="translate(-100.629 -56.144)" fill="#5d5d5d" stroke="#fff9ed" stroke-width="0.4"/>
          </g>
          <g id="Group_7" data-name="Group 7" transform="translate(2.506 1.341)">
            <path id="Path_262" data-name="Path 262" d="M110.5,59.557l.428.7a.978.978,0,0,0,.586.514c.546.176,1.019-.268,1.3-.7a2.154,2.154,0,0,0,.328-1.512,1.017,1.017,0,0,0-.4-.619,2.329,2.329,0,0,0-.732-.265c-.26-.068-.525-.135-.784-.176a3.287,3.287,0,0,0-.748.082,10.718,10.718,0,0,0-1.437.717c-.877.593-1.645,1.393-2.47,2.076l.034-.04-3.387,5.42-.506-.328,3.554-5.312.019-.029.016-.012c.871-.676,1.647-1.445,2.59-2.04a10.971,10.971,0,0,1,1.5-.692,3.3,3.3,0,0,1,.869-.069c.277.054.539.13.8.207a2.477,2.477,0,0,1,.783.317,1.185,1.185,0,0,1,.446.732,2.279,2.279,0,0,1-.393,1.6c-.3.434-.822.891-1.4.689a1.018,1.018,0,0,1-.592-.549Z" transform="translate(-102.707 -57.257)" fill="#5d5d5d" stroke="#fff9ed" stroke-width="0.4"/>
          </g>
        </g>
        <g id="grapes" transform="translate(0 7.56)">
          <g id="Group_8" data-name="Group 8" transform="translate(4.386 28.612)">
            <ellipse id="Ellipse_1" data-name="Ellipse 1" cx="2.658" cy="3.071" rx="2.658" ry="3.071" transform="translate(0 5.254) rotate(-81.292)" fill="#5d5d5d" stroke="#fff9ed" stroke-width="0.4"/>
            <path id="Path_263" data-name="Path 263" d="M102.059,92.184a3.835,3.835,0,0,1-.581-.045,2.985,2.985,0,1,1,3.781-2.415h0A3.106,3.106,0,0,1,102.059,92.184Zm-.269-5.337a2.5,2.5,0,0,0-2.6,1.947,2.806,2.806,0,0,0,5.476.839h0a2.594,2.594,0,0,0-2.383-2.749A3.237,3.237,0,0,0,101.79,86.847Z" transform="translate(-98.487 -86.122)" fill="#5d5d5d" stroke="#fff9ed" stroke-width="0.4"/>
          </g>
          <g id="Group_9" data-name="Group 9" transform="translate(7.581 24.448)">
            <ellipse id="Ellipse_2" data-name="Ellipse 2" cx="3.071" cy="2.658" rx="3.071" ry="2.658" transform="translate(0 2.376) rotate(-22.757)" fill="#5d5d5d" stroke="#fff9ed" stroke-width="0.4"/>
            <path id="Path_264" data-name="Path 264" d="M104.614,89.247a2.961,2.961,0,0,1-2.807-1.719,2.775,2.775,0,0,1,.11-2.332,3.613,3.613,0,0,1,1.856-1.7,3.19,3.19,0,0,1,4.255,1.424h0a3.19,3.19,0,0,1-1.965,4.033A3.757,3.757,0,0,1,104.614,89.247Zm.61-5.447a3.158,3.158,0,0,0-1.218.25,3,3,0,0,0-1.548,1.414,2.178,2.178,0,0,0-.1,1.83,2.807,2.807,0,0,0,5.109-2.144h0A2.361,2.361,0,0,0,105.224,83.8Z" transform="translate(-101.057 -82.584)" fill="#5d5d5d" stroke="#fff9ed" stroke-width="0.4"/>
          </g>
          <g id="Group_10" data-name="Group 10" transform="translate(6.375 19.625)">
            <ellipse id="Ellipse_3" data-name="Ellipse 3" cx="3.071" cy="2.658" rx="3.071" ry="2.658" transform="translate(0 2.376) rotate(-22.757)" fill="#5d5d5d" stroke="#fff9ed" stroke-width="0.4"/>
            <path id="Path_265" data-name="Path 265" d="M103.614,85.247a2.961,2.961,0,0,1-2.807-1.719,2.771,2.771,0,0,1,.111-2.332,3.606,3.606,0,0,1,1.855-1.7,3.191,3.191,0,0,1,4.255,1.424h0a3.19,3.19,0,0,1-1.965,4.033A3.757,3.757,0,0,1,103.614,85.247Zm.61-5.447a3.158,3.158,0,0,0-1.218.25,3,3,0,0,0-1.548,1.414,2.178,2.178,0,0,0-.1,1.83,2.807,2.807,0,0,0,5.109-2.144h0A2.361,2.361,0,0,0,104.224,79.8Z" transform="translate(-100.057 -78.584)" fill="#5d5d5d" stroke="#fff9ed" stroke-width="0.4"/>
          </g>
          <g id="Group_11" data-name="Group 11" transform="translate(6.858 15.32)">
            <ellipse id="Ellipse_4" data-name="Ellipse 4" cx="3.071" cy="2.736" rx="3.071" ry="2.736" transform="translate(0.04 0.626) rotate(-5.737)" fill="#5d5d5d" stroke="#fff9ed" stroke-width="0.4"/>
            <path id="Path_266" data-name="Path 266" d="M103.847,81.2a3.179,3.179,0,0,1-3.282-2.706,2.874,2.874,0,0,1,.779-2.249,3.642,3.642,0,0,1,4.72-.474,2.874,2.874,0,0,1,1.212,2.049,3.22,3.22,0,0,1-3.051,3.359A3.653,3.653,0,0,1,103.847,81.2Zm.148-5.482c-.106,0-.212.006-.318.016a2.953,2.953,0,0,0-1.89.919,2.276,2.276,0,0,0-.622,1.782,2.792,2.792,0,0,0,5.509-.555,2.279,2.279,0,0,0-.965-1.622A2.91,2.91,0,0,0,103.995,75.722Z" transform="translate(-100.55 -75.119)" fill="#5d5d5d" stroke="#fff9ed" stroke-width="0.4"/>
          </g>
          <g id="Group_12" data-name="Group 12" transform="translate(2.117 13.515)">
            <ellipse id="Ellipse_5" data-name="Ellipse 5" cx="2.377" cy="3.071" rx="2.377" ry="3.071" transform="matrix(0.947, -0.32, 0.32, 0.947, 0, 1.521)" fill="#5d5d5d" stroke="#fff9ed" stroke-width="0.4"/>
            <path id="Path_267" data-name="Path 267" d="M100.157,80.539a3.34,3.34,0,0,1-2.923-2.451c-.6-1.76.059-3.579,1.458-4.052h0c1.4-.473,3.022.576,3.617,2.338s-.06,3.579-1.459,4.052A2.18,2.18,0,0,1,100.157,80.539Zm-1.272-5.933c-1.084.367-1.569,1.842-1.08,3.288s1.771,2.327,2.853,1.959,1.569-1.841,1.08-3.287-1.767-2.322-2.853-1.961Z" transform="translate(-96.537 -73.561)" fill="#5d5d5d" stroke="#fff9ed" stroke-width="0.4"/>
          </g>
          <g id="Group_13" data-name="Group 13" transform="translate(0 8.752)">
            <ellipse id="Ellipse_6" data-name="Ellipse 6" cx="3.071" cy="2.377" rx="3.071" ry="2.377" transform="translate(0 5.645) rotate(-66.817)" fill="#5d5d5d" stroke="#fff9ed" stroke-width="0.4"/>
            <path id="Path_268" data-name="Path 268" d="M97.7,76.625a2.209,2.209,0,0,1-.871-.177C95.47,75.867,94.96,74,95.692,72.294s2.438-2.625,3.79-2.046h0c1.358.582,1.868,2.447,1.136,4.155a3.859,3.859,0,0,1-1.625,1.867A2.671,2.671,0,0,1,97.7,76.625Zm.914-5.951a2.811,2.811,0,0,0-2.365,1.857c-.6,1.4-.234,2.912.818,3.362a1.829,1.829,0,0,0,1.634-.151,3.246,3.246,0,0,0,1.365-1.577c.6-1.4.234-2.912-.819-3.363A1.6,1.6,0,0,0,98.611,70.674Z" transform="translate(-94.761 -69.59)" fill="#5d5d5d" stroke="#fff9ed" stroke-width="0.4"/>
          </g>
          <g id="Group_14" data-name="Group 14" transform="translate(5.492 9.138)">
            <ellipse id="Ellipse_7" data-name="Ellipse 7" cx="3.543" cy="3.343" rx="3.543" ry="3.343" transform="translate(0.302 0.301)" fill="#5d5d5d" stroke="#fff9ed" stroke-width="0.4"/>
            <path id="Path_269" data-name="Path 269" d="M103.261,77.281a3.649,3.649,0,1,1,3.845-3.644A3.752,3.752,0,0,1,103.261,77.281Zm0-6.685a3.047,3.047,0,1,0,3.242,3.041A3.149,3.149,0,0,0,103.261,70.6Z" transform="translate(-99.417 -69.993)" fill="#5d5d5d" stroke="#fff9ed" stroke-width="0.4"/>
          </g>
          <g id="Group_15" data-name="Group 15" transform="translate(3.117 23.121)">
            <ellipse id="Ellipse_8" data-name="Ellipse 8" cx="2.658" cy="3.071" rx="2.658" ry="3.071" transform="matrix(0.947, -0.32, 0.32, 0.947, 0, 1.701)" fill="#5d5d5d" stroke="#fff9ed" stroke-width="0.4"/>
            <path id="Path_270" data-name="Path 270" d="M101.1,88.609a3.35,3.35,0,0,1-3.043-2.386,3.615,3.615,0,0,1,.049-2.517,2.712,2.712,0,0,1,3.992-1.348,3.717,3.717,0,0,1,1.517,4.488,2.771,2.771,0,0,1-1.676,1.625A2.621,2.621,0,0,1,101.1,88.609Zm-.474-6.064a2.016,2.016,0,0,0-.652.107,2.174,2.174,0,0,0-1.31,1.282,3.006,3.006,0,0,0-.036,2.1,2.591,2.591,0,0,0,3.118,1.87,2.179,2.179,0,0,0,1.311-1.282,3.122,3.122,0,0,0-1.264-3.742A2.311,2.311,0,0,0,100.63,82.545Z" transform="translate(-97.364 -81.516)" fill="#5d5d5d" stroke="#fff9ed" stroke-width="0.4"/>
          </g>
          <g id="Group_16" data-name="Group 16" transform="translate(3.355 18.378)">
            <ellipse id="Ellipse_9" data-name="Ellipse 9" cx="2.407" cy="2.781" rx="2.407" ry="2.781" transform="matrix(0.947, -0.32, 0.32, 0.947, 0, 1.54)" fill="#5d5d5d" stroke="#fff9ed" stroke-width="0.4"/>
            <path id="Path_271" data-name="Path 271" d="M100.954,84.048a2.656,2.656,0,0,1-1.347-.38,3.4,3.4,0,0,1-1.384-4.1,2.485,2.485,0,0,1,3.656-1.235,3.4,3.4,0,0,1,1.385,4.1,2.536,2.536,0,0,1-1.534,1.488A2.416,2.416,0,0,1,100.954,84.048Zm-.423-5.492a1.807,1.807,0,0,0-.581.1,1.946,1.946,0,0,0-1.17,1.144,2.8,2.8,0,0,0,1.132,3.353,1.885,1.885,0,0,0,2.794-.943,2.794,2.794,0,0,0-1.132-3.353A2.056,2.056,0,0,0,100.531,78.555Z" transform="translate(-97.573 -77.594)" fill="#5d5d5d" stroke="#fff9ed" stroke-width="0.4"/>
          </g>
          <g id="Group_17" data-name="Group 17" transform="translate(11.319 17.889)">
            <circle id="Ellipse_10" data-name="Ellipse 10" cx="3.015" cy="3.015" r="3.015" transform="translate(0.301 0.301)" fill="#5d5d5d" stroke="#fff9ed" stroke-width="0.4"/>
            <path id="Path_272" data-name="Path 272" d="M107.566,83.882a3.316,3.316,0,1,1,3.316-3.316A3.319,3.319,0,0,1,107.566,83.882Zm0-6.029a2.713,2.713,0,1,0,2.713,2.713A2.716,2.716,0,0,0,107.566,77.853Z" transform="translate(-104.25 -77.25)" fill="#5d5d5d" stroke="#fff9ed" stroke-width="0.4"/>
          </g>
          <g id="Group_18" data-name="Group 18" transform="translate(14.44 13.879)">
            <ellipse id="Ellipse_11" data-name="Ellipse 11" cx="2.666" cy="3.015" rx="2.666" ry="3.015" transform="matrix(0.947, -0.32, 0.32, 0.947, 0, 1.706)" fill="#5d5d5d" stroke="#fff9ed" stroke-width="0.4"/>
            <path id="Path_273" data-name="Path 273" d="M110.443,80.845a2.908,2.908,0,0,1-1.452-.4,3.514,3.514,0,0,1-1.558-1.934,3.161,3.161,0,0,1,1.752-4.091,2.794,2.794,0,0,1,2.313.257,3.6,3.6,0,0,1,1.493,4.418,2.8,2.8,0,0,1-1.685,1.607A2.652,2.652,0,0,1,110.443,80.845Zm-.4-5.965a2.081,2.081,0,0,0-.668.111,2.557,2.557,0,0,0-1.372,3.326,2.893,2.893,0,0,0,1.285,1.6,2.151,2.151,0,0,0,3.144-1.061,2.89,2.89,0,0,0,.049-2.056h0a2.9,2.9,0,0,0-1.285-1.6A2.315,2.315,0,0,0,110.046,74.88Z" transform="translate(-106.755 -73.852)" fill="#5d5d5d" stroke="#fff9ed" stroke-width="0.4"/>
          </g>
          <g id="Group_19" data-name="Group 19" transform="translate(11.494 11.783)">
            <ellipse id="Ellipse_12" data-name="Ellipse 12" cx="2.666" cy="3.015" rx="2.666" ry="3.015" transform="matrix(0.947, -0.32, 0.32, 0.947, 0, 1.706)" fill="#5d5d5d" stroke="#fff9ed" stroke-width="0.4"/>
            <path id="Path_274" data-name="Path 274" d="M108.006,79.1a3.3,3.3,0,0,1-3.016-2.333,3.161,3.161,0,0,1,1.751-4.09,2.793,2.793,0,0,1,2.315.257,3.5,3.5,0,0,1,1.558,1.935,3.16,3.16,0,0,1-1.751,4.09A2.673,2.673,0,0,1,108.006,79.1Zm-.4-5.963a2.094,2.094,0,0,0-.67.11,2.739,2.739,0,1,0,3.107,1.815,2.893,2.893,0,0,0-1.285-1.6A2.305,2.305,0,0,0,107.6,73.142Z" transform="translate(-104.312 -72.114)" fill="#5d5d5d" stroke="#fff9ed" stroke-width="0.4"/>
          </g>
          <g id="Group_20" data-name="Group 20" transform="translate(2.912 5.152)">
            <circle id="Ellipse_13" data-name="Ellipse 13" cx="2.58" cy="2.58" r="2.58" transform="translate(0.302 0.301)" fill="#5d5d5d" stroke="#fff9ed" stroke-width="0.4"/>
            <path id="Path_275" data-name="Path 275" d="M100.159,72.448a2.881,2.881,0,1,1,2.882-2.881A2.884,2.884,0,0,1,100.159,72.448Zm0-5.158a2.278,2.278,0,1,0,2.279,2.278A2.281,2.281,0,0,0,100.159,67.29Z" transform="translate(-97.278 -66.687)" fill="#5d5d5d" stroke="#fff9ed" stroke-width="0.4"/>
          </g>
          <g id="Group_21" data-name="Group 21" transform="translate(7.847 4.174)">
            <ellipse id="Ellipse_14" data-name="Ellipse 14" cx="2.787" cy="2.62" rx="2.787" ry="2.62" transform="translate(0.301 0.301)" fill="#5d5d5d" stroke="#fff9ed" stroke-width="0.4"/>
            <path id="Path_276" data-name="Path 276" d="M104.458,71.718a2.926,2.926,0,1,1,3.088-2.922A3.012,3.012,0,0,1,104.458,71.718Zm0-5.239a2.324,2.324,0,1,0,2.485,2.318A2.409,2.409,0,0,0,104.458,66.479Z" transform="translate(-101.37 -65.876)" fill="#5d5d5d" stroke="#fff9ed" stroke-width="0.4"/>
          </g>
          <g id="Group_22" data-name="Group 22" transform="translate(4.943 0)">
            <ellipse id="Ellipse_15" data-name="Ellipse 15" cx="2.787" cy="2.62" rx="2.787" ry="2.62" transform="translate(0 3.941) rotate(-45)" fill="#5d5d5d" stroke="#fff9ed" stroke-width="0.4"/>
            <path id="Path_277" data-name="Path 277" d="M102.478,69.1a2.83,2.83,0,0,1-2.016-.821,3.093,3.093,0,0,1,4.367-4.367,2.822,2.822,0,0,1,.821,2.109,3.212,3.212,0,0,1-3.172,3.08Zm.334-5.408a2.565,2.565,0,0,0-1.806.763,2.324,2.324,0,1,0,3.279,3.279A2.558,2.558,0,0,0,105.048,66a2.205,2.205,0,0,0-2.236-2.31Z" transform="translate(-98.823 -62.274)" fill="#5d5d5d" stroke="#fff9ed" stroke-width="0.4"/>
          </g>
        </g>
        <g id="Layer_3" data-name="Layer 3" transform="translate(12.43 1.595)">
          <g id="Group_23" data-name="Group 23">
            <path id="Path_278" data-name="Path 278" d="M113.946,61.318c.914-1.938,1.577-3.6,3.869-3.6,4.273,0,7.658,4.574,7.658,4.574a4.229,4.229,0,0,1-1.355,2.26,16.767,16.767,0,0,1-3.33,1.933c4.929-.568,5.655,1.161,6.175,1.552a34.645,34.645,0,0,1,2.34,4.042l-2.257,1.244a1.747,1.747,0,0,0-.9,1.4l-.675,9.056-9.785-6.595-1.915-1.489a6.458,6.458,0,0,0-2.127,3.51,13.9,13.9,0,0,0,0,2.233s-4.335-2.383-5.212-3.722c-1.057-1.615-1.014-7.787-1.014-7.787a14.781,14.781,0,0,0,3.353-2.105c.244-.316.417-1.343.106-1.6-.535-.435-2.659.745-2.659.745a2.891,2.891,0,0,1,.32-3.3c1.929-1.929,4.36,0,4.36,0l3.978,2.694a.088.088,0,0,0,.135-.09S113.071,63.175,113.946,61.318Z" transform="translate(-105.119 -57.416)" fill="#5d5d5d" stroke="#fff9ed" stroke-width="0.4"/>
            <path id="Path_279" data-name="Path 279" d="M125.789,84.369l-10.218-6.885-1.736-1.349a6.26,6.26,0,0,0-1.842,3.183,13.2,13.2,0,0,0,.006,2.15l.037.551-.482-.266c-.181-.1-4.412-2.435-5.319-3.821-1.094-1.671-1.065-7.7-1.064-7.955v-.187l.169-.082a13.767,13.767,0,0,0,3.246-2.017,1.635,1.635,0,0,0,.153-1.18,4.5,4.5,0,0,0-2.321.777l-.264.146-.146-.263a3.126,3.126,0,0,1,.37-3.657c2.1-2.094,4.735-.043,4.762-.023l3.222,2.183c-.539-1.091-1.293-3.042-.638-4.43l.129-.276c.843-1.8,1.639-3.5,4.013-3.5,4.375,0,7.759,4.5,7.9,4.7l.075.1-.021.127a4.518,4.518,0,0,1-1.455,2.436,10.72,10.72,0,0,1-2,1.3c3.115-.063,4.107.979,4.616,1.518a1.69,1.69,0,0,0,.209.2,28.35,28.35,0,0,1,2.427,4.146l.134.26-2.513,1.385A1.446,1.446,0,0,0,126.5,74.8Zm-11.962-9,2.1,1.633,9.339,6.292.635-8.538a2.045,2.045,0,0,1,1.053-1.641l2-1.1a28.593,28.593,0,0,0-2.121-3.679,2.53,2.53,0,0,1-.283-.27c-.517-.55-1.6-1.694-5.676-1.223l-.256.03-.075-.25c-.071-.254.111-.338.412-.475a13.665,13.665,0,0,0,3.017-1.765,4.044,4.044,0,0,0,1.228-1.959c-.539-.68-3.622-4.345-7.333-4.345-1.991,0-2.609,1.322-3.467,3.151l-.129.279c-.8,1.685,1.031,4.64,1.05,4.669l.039.1a.389.389,0,0,1-.6.4l-3.979-2.695c-.109-.084-2.266-1.747-3.979-.036a2.415,2.415,0,0,0-.392,2.666c.79-.411,2.161-1.01,2.708-.561.485.393.257,1.607-.057,2.014a13.037,13.037,0,0,1-3.292,2.11c0,1.824.17,6.215.966,7.433.608.928,3.217,2.545,4.629,3.356a9.22,9.22,0,0,1,.036-1.764,6.714,6.714,0,0,1,2.238-3.686Z" transform="translate(-105.171 -57.467)" fill="#5d5d5d" stroke="#fff9ed" stroke-width="0.4"/>
          </g>
          <g id="Group_26" data-name="Group 26" transform="translate(9.65 8.685)">
            <g id="Group_24" data-name="Group 24" transform="translate(0.245 0.176)">
              <path id="Path_280" data-name="Path 280" d="M119.128,73.941l-3.4-5.865-2.348-3.26" transform="translate(-113.377 -64.816)" fill="#5d5d5d" stroke="#fff9ed" stroke-width="0.4"/>
            </g>
            <g id="Group_25" data-name="Group 25">
              <path id="Path_281" data-name="Path 281" d="M119.153,73.98,115.6,68.2l.01.016-2.433-3.2.489-.352,2.263,3.322.008.012,0,0,3.249,5.953Z" transform="translate(-113.174 -64.67)" fill="#5d5d5d" stroke="#fff9ed" stroke-width="0.4"/>
            </g>
          </g>
          <g id="Group_27" data-name="Group 27" transform="translate(4.755 2.177)">
            <path id="Path_282" data-name="Path 282" d="M118.093,59.273l.564,2.84-.066-.046,2.738-.405h0l-2.712.56.067-.044L115.51,67.51l-.038.064-.061.032-3.11,1.653.035-.032-3.223,4.3,3.03-4.439.011-.016.024-.016,2.921-1.967-.1.1,3.515-5.116.027-.039.04-.005,2.745-.364h0l-2.719.518-.057.011-.009-.057Z" transform="translate(-109.114 -59.273)" fill="#5d5d5d" stroke="#fff9ed" stroke-width="0.4"/>
          </g>
          <g id="Group_28" data-name="Group 28" transform="translate(12.238 11.756)">
            <path id="Path_283" data-name="Path 283" d="M115.32,67.47l6.334-.252h.029l.023.014,3.513,2.2-.014.023-3.593-2.064.051.013-6.332.293Z" transform="translate(-115.32 -67.217)" fill="#5d5d5d" stroke="#fff9ed" stroke-width="0.4"/>
          </g>
          <g id="Group_29" data-name="Group 29" transform="translate(17.475 14.159)">
            <path id="Path_284" data-name="Path 284" d="M119.663,69.209l3.636,2.625-.091.122Z" transform="translate(-119.663 -69.209)" fill="#5d5d5d" stroke="#fff9ed" stroke-width="0.4"/>
          </g>
          <g id="Group_30" data-name="Group 30" transform="translate(13.861 19.062)">
            <path id="Path_285" data-name="Path 285" d="M116.738,73.275l.073,2.972h-.145Z" transform="translate(-116.666 -73.275)" fill="#5d5d5d" stroke="#fff9ed" stroke-width="0.4"/>
          </g>
          <g id="Group_31" data-name="Group 31" transform="translate(10.344 15.686)">
            <path id="Path_286" data-name="Path 286" d="M115.648,70.476l-.269,1.607,0,.009-.006.009-1.5,2.044-.12-.09,1.553-2.006-.008.017Z" transform="translate(-113.749 -70.476)" fill="#5d5d5d" stroke="#fff9ed" stroke-width="0.4"/>
          </g>
          <g id="Group_32" data-name="Group 32" transform="translate(8.569 13.424)">
            <path id="Path_287" data-name="Path 287" d="M112.371,68.6l.094,4.854h-.187Z" transform="translate(-112.277 -68.599)" fill="#5d5d5d" stroke="#fff9ed" stroke-width="0.4"/>
          </g>
          <g id="Group_33" data-name="Group 33" transform="translate(2.019 13.695)">
            <path id="Path_288" data-name="Path 288" d="M106.845,71.349l4.64-2.525.046.087Z" transform="translate(-106.845 -68.824)" fill="#5d5d5d" stroke="#fff9ed" stroke-width="0.4"/>
          </g>
          <g id="Group_34" data-name="Group 34" transform="translate(16.142 19.195)">
            <path id="Path_289" data-name="Path 289" d="M118.873,73.386l2.767,4.05-.053.039-3.029-3.859Z" transform="translate(-118.558 -73.386)" fill="#5d5d5d" stroke="#fff9ed" stroke-width="0.4"/>
          </g>
        </g>
      </g>
    </g>
    <g id="Group_67" data-name="Group 67" transform="translate(-270 3465.294)">
      <text id="Osteria_La_Vignetta" data-name="Osteria La Vignetta" transform="translate(674 944.706)" fill="#fff9ed" font-size="39" font-family="MightypeScript, Mightype Script"><tspan x="-144.007" y="0">Osteria La Vignetta</tspan></text>
      <text id="Cucina_Lariana" data-name="Cucina Lariana" transform="translate(675 961.706)" fill="#fff9ed" font-size="9" font-family="HelveticaNeue-Thin, Helvetica Neue" font-weight="200" letter-spacing="0.05em"><tspan x="-36.927" y="0">CUCINA LARIANA</tspan></text>
    </g>
  </g>
</svg>
